<svg xmlns="http://www.w3.org/2000/svg" width="9.076" height="12.101" viewBox="0 0 9.076 12.101"><defs><style>.a{fill:#fff;}</style></defs><g transform="translate(-410.877 -449.005)"><path class="a" d="M83.789-567.066a.3.3,0,0,0-.3.3v1.079a3.565,3.565,0,0,1-3.475,3.64H79.1a3.564,3.564,0,0,1-3.474-3.64v-1.079a.3.3,0,0,0-.3-.3.3.3,0,0,0-.3.3v1.079A4.169,4.169,0,0,0,79.1-561.44h.156v1.287H76.9a.3.3,0,0,0-.3.3.3.3,0,0,0,.3.3h5.312a.3.3,0,0,0,.3-.3.3.3,0,0,0-.3-.3H79.856v-1.287h.156a4.169,4.169,0,0,0,4.08-4.245v-1.079A.3.3,0,0,0,83.789-567.066Z" transform="translate(335.861 1020.654)"/><path class="a" d="M80.715-566.143a2.761,2.761,0,0,0,2.758-2.758v-2.982a2.761,2.761,0,0,0-2.758-2.758,2.761,2.761,0,0,0-2.758,2.758v2.982A2.761,2.761,0,0,0,80.715-566.143Zm-2.153-5.739a2.155,2.155,0,0,1,2.153-2.153,2.156,2.156,0,0,1,2.153,2.153v2.982a2.156,2.156,0,0,1-2.153,2.153,2.155,2.155,0,0,1-2.153-2.153Z" transform="translate(334.7 1023.645)"/></g></svg>