<svg xmlns="http://www.w3.org/2000/svg" width="22.899" height="17.84" viewBox="0 0 22.899 17.84"><defs><style>.a{fill:none;}.b{fill:#fff;}.c,.d{stroke:none;}.d{fill:#fff;}</style></defs><g transform="translate(-656.551 -646)"><g transform="translate(656.551 646)"><g class="a"><path class="c" d="M11.449,0C17.772,0,22.934,3.625,22.9,8s-5.338,7.053-5.338,7.053-.4,1.842-.477,2.168a1.688,1.688,0,0,1-.182.553c-.07.113-.4.061-.551,0s.428.2-.467-.256-3.112-1.57-3.112-1.57S12.006,16,11.449,16C5.126,16,0,12.418,0,8S5.126,0,11.449,0Z"/><path class="d" d="M 11.44921875 1.000001907348633 C 8.593998908996582 1.000001907348633 5.922258377075195 1.768121719360352 3.926168441772461 3.162862777709961 C 2.03919792175293 4.481362342834473 0.9999980926513672 6.199222564697266 0.9999980926513672 8.000002861022949 C 0.9999980926513672 9.800782203674316 2.03919792175293 11.51864242553711 3.926168441772461 12.83714294433594 C 5.922258377075195 14.23188209533691 8.593998908996582 15.00000190734863 11.44921875 15.00000190734863 C 11.96382904052734 15.00000190734863 12.69711875915527 14.9499626159668 12.70445919036865 14.94945240020752 L 12.97756862640381 14.93066215515137 L 13.22211837768555 15.053542137146 C 13.2432804107666 15.06417083740234 15.25047492980957 16.07272720336914 16.20656394958496 16.55921745300293 C 16.34887313842773 15.91365242004395 16.58053588867188 14.85330104827881 16.58358764648438 14.83931255340576 L 16.68611907958984 14.37568283081055 L 17.10841941833496 14.16078281402588 C 17.15601921081543 14.13656234741211 21.86870956420898 11.69573211669922 21.89846801757812 7.991962432861328 C 21.9093189239502 6.642542839050293 21.31175804138184 5.321112632751465 20.17038917541504 4.17054271697998 C 18.20098876953125 2.18525218963623 14.94073867797852 1.000001907348633 11.44921875 1.000001907348633 M 11.44921875 1.9073486328125e-06 C 17.7724494934082 1.9073486328125e-06 22.9335994720459 3.625002861022949 22.89843940734863 8.000002861022949 C 22.86327934265137 12.37500190734863 17.56054878234863 15.05273246765137 17.56054878234863 15.05273246765137 C 17.56054878234863 15.05273246765137 17.15819931030273 16.89453315734863 17.08398818969727 17.220703125 C 17.00976943969727 17.54687309265137 16.97265815734863 17.66015243530273 16.90233993530273 17.7734317779541 C 16.83831024169922 17.8765983581543 16.55724716186523 17.84208106994629 16.39542961120605 17.78936386108398 C 16.3736457824707 17.77272605895996 16.25551605224609 17.70680236816406 15.88476943969727 17.51758193969727 C 14.99016857147217 17.06099319458008 12.77316856384277 15.94709205627441 12.77316856384277 15.94709205627441 C 12.77316856384277 15.94709205627441 12.00566864013672 16.00000190734863 11.44921875 16.00000190734863 C 5.125988006591797 16.00000190734863 -1.9073486328125e-06 12.4182825088501 -1.9073486328125e-06 8.000002861022949 C -1.9073486328125e-06 3.581722259521484 5.125988006591797 1.9073486328125e-06 11.44921875 1.9073486328125e-06 Z M 16.32574081420898 17.76373291015625 C 16.32691764831543 17.76373291015625 16.33439064025879 17.76642990112305 16.35155868530273 17.7734317779541 C 16.36482238769531 17.77884292602539 16.37955093383789 17.7841911315918 16.39542961120605 17.78936386108398 C 16.42012786865234 17.8082275390625 16.32096290588379 17.76373291015625 16.32574081420898 17.76373291015625 Z"/></g><path class="b" d="M.27-1.326a2.051,2.051,0,0,0,.114.5,1.413,1.413,0,0,0,.528.684,2.412,2.412,0,0,0,1.26.312A1.989,1.989,0,0,0,3.606-.288a1.4,1.4,0,0,0,.378-1.02,1.184,1.184,0,0,0-.5-1.032,2.642,2.642,0,0,0-.978-.366,5.108,5.108,0,0,1-.846-.216.571.571,0,0,1-.408-.546c0-.39.354-.654.876-.654a.949.949,0,0,1,.75.288.775.775,0,0,1,.18.426l.858-.1a1.617,1.617,0,0,0-.294-.7A1.769,1.769,0,0,0,2.13-4.812c-1.032,0-1.7.54-1.7,1.374a1.181,1.181,0,0,0,.462.972,2.121,2.121,0,0,0,.906.366,3.783,3.783,0,0,1,1.044.294.609.609,0,0,1,.3.552c0,.45-.36.72-.96.72A1.065,1.065,0,0,1,1.3-.888a.86.86,0,0,1-.168-.528ZM7.6.072a4.885,4.885,0,0,1,.264-.8l.9-2.112a7.322,7.322,0,0,0,.276-.876c-.006.09-.024.4-.048.918V-.8a5.579,5.579,0,0,1-.048.876h.84A5.2,5.2,0,0,1,9.738-.8V-3.816A6.214,6.214,0,0,1,9.786-4.7h-1.1a3.325,3.325,0,0,1-.216.714L7.254-1.014,6.036-3.99A4.152,4.152,0,0,1,5.814-4.7h-1.1a5.952,5.952,0,0,1,.048.888V-.8a5.627,5.627,0,0,1-.048.876h.84A5.482,5.482,0,0,1,5.508-.8V-2.772c0-.132-.024-.624-.048-.942a6.677,6.677,0,0,0,.306.918L6.63-.738a4.085,4.085,0,0,1,.264.81Zm2.88-1.4a2.051,2.051,0,0,0,.114.5,1.413,1.413,0,0,0,.528.684,2.412,2.412,0,0,0,1.26.312,1.989,1.989,0,0,0,1.434-.456,1.4,1.4,0,0,0,.378-1.02,1.184,1.184,0,0,0-.5-1.032,2.642,2.642,0,0,0-.978-.366,5.108,5.108,0,0,1-.846-.216.571.571,0,0,1-.408-.546c0-.39.354-.654.876-.654a.949.949,0,0,1,.75.288.775.775,0,0,1,.18.426l.858-.1a1.617,1.617,0,0,0-.294-.7,1.769,1.769,0,0,0-1.494-.606c-1.032,0-1.7.54-1.7,1.374a1.181,1.181,0,0,0,.462.972,2.121,2.121,0,0,0,.906.366,3.783,3.783,0,0,1,1.044.294.609.609,0,0,1,.3.552c0,.45-.36.72-.96.72a1.065,1.065,0,0,1-.876-.354.86.86,0,0,1-.168-.528Z" transform="translate(4.449 10)"/></g></g></svg>