<svg xmlns="http://www.w3.org/2000/svg" width="19.98" height="17.338" viewBox="0 0 19.98 17.338"><defs><style>.a{fill:#0081CC;}</style></defs><g transform="translate(-137.744 -435.893)"><path class="a" d="M147.909,449.1a1.934,1.934,0,0,0,1.934-1.934v-9.338a1.935,1.935,0,0,0-3.869,0v9.338A1.935,1.935,0,0,0,147.909,449.1Z"/><path class="a" d="M151.969,446.929a.5.5,0,0,0-1,0,3.061,3.061,0,1,1-6.122,0,.5.5,0,0,0-1,0,4.054,4.054,0,0,0,3.561,4.011v1.291h-2.182a.5.5,0,0,0,0,1h5.365a.5.5,0,0,0,0-1h-2.183V450.94A4.053,4.053,0,0,0,151.969,446.929Z"/><path class="a" d="M157.224,439.995a.5.5,0,0,0-.5.5v3.991a.5.5,0,0,0,1,0v-3.991A.5.5,0,0,0,157.224,439.995Z"/><path class="a" d="M153.241,439.995a.5.5,0,0,0-.5.5v3.991a.5.5,0,0,0,1,0v-3.991A.5.5,0,0,0,153.241,439.995Z"/><path class="a" d="M155.232,438.5a.5.5,0,0,0-.5.5v6.984a.5.5,0,0,0,1,0V439A.5.5,0,0,0,155.232,438.5Z"/><path class="a" d="M151.249,444.246a.5.5,0,0,0,.5-.5v-2.51a.5.5,0,0,0-1,0v2.51A.5.5,0,0,0,151.249,444.246Z"/><path class="a" d="M138.244,439.995a.5.5,0,0,0-.5.5v3.991a.5.5,0,0,0,1,0v-3.991A.5.5,0,0,0,138.244,439.995Z"/><path class="a" d="M142.227,439.995a.5.5,0,0,0-.5.5v3.991a.5.5,0,0,0,1,0v-3.991A.5.5,0,0,0,142.227,439.995Z"/><path class="a" d="M140.235,438.5a.5.5,0,0,0-.5.5v6.984a.5.5,0,0,0,1,0V439A.5.5,0,0,0,140.235,438.5Z"/><path class="a" d="M144.218,444.246a.5.5,0,0,0,.5-.5v-2.51a.5.5,0,0,0-1,0v2.51A.5.5,0,0,0,144.218,444.246Z"/></g></svg>