<?xml version="1.0" encoding="UTF-8"?>
<svg width="15px" height="15px" viewBox="0 0 15 15" version="1.1" xmlns="http://www.w3.org/2000/svg" xmlns:xlink="http://www.w3.org/1999/xlink">
    <!-- Generator: Sketch 50.2 (55047) - http://www.bohemiancoding.com/sketch -->
    <title>Add_Pic</title>
    <desc>Created with Sketch.</desc>
    <defs></defs>
    <g id="Page-1" stroke="none" stroke-width="1" fill="none" fill-rule="evenodd">
        <g id="safari-home-screen-copy-52" transform="translate(-15.000000, -591.000000)" fill="#FFFFFF">
            <g id="Write-Message-Container" transform="translate(0.000000, 573.000000)">
                <path d="M23.5903733,26.5903733 L28.9984958,26.5903733 C29.5516113,26.5903733 30,26.1490667 30,25.5893555 L30,25.4106445 C30,24.8577976 29.5594404,24.4096267 28.9984958,24.4096267 L23.5903733,24.4096267 L23.5903733,19.0015042 C23.5903733,18.4483887 23.1490667,18 22.5893555,18 L22.4106445,18 C21.8577976,18 21.4096267,18.4405596 21.4096267,19.0015042 L21.4096267,24.4096267 L16.0015042,24.4096267 C15.4483887,24.4096267 15,24.8509333 15,25.4106445 L15,25.5893555 C15,26.1422024 15.4405596,26.5903733 16.0015042,26.5903733 L21.4096267,26.5903733 L21.4096267,31.9984958 C21.4096267,32.5516113 21.8509333,33 22.4106445,33 L22.5893555,33 C23.1422024,33 23.5903733,32.5594404 23.5903733,31.9984958 L23.5903733,26.5903733 Z" id="Add_Pic"></path>
            </g>
        </g>
    </g>
</svg>