<svg xmlns="http://www.w3.org/2000/svg" xmlns:xlink="http://www.w3.org/1999/xlink" width="13.891" height="11.77" viewBox="0 0 13.891 11.77"><defs><style>.a{fill:#585858;}.b{clip-path:url(#a);}</style><clipPath id="a"><path class="a" d="M0-12.564H13.89v-11.77H0Z" transform="translate(0 24.334)"/></clipPath></defs><g class="b" transform="translate(0 0)"><g transform="translate(0 0)"><path class="a" d="M-6.308-3.27c-.03.129-.059.257-.1.376A2.518,2.518,0,0,1-4.026-.335c0,1.571-1.344,2.52-3.814,2.8a3.821,3.821,0,0,0-.267-.593c2.046-.2,3.36-.909,3.36-2.184V-.385A1.952,1.952,0,0,0-6.624-2.272,7.815,7.815,0,0,1-8.591.633a2.229,2.229,0,0,0,.257.534l-.583.366a2.556,2.556,0,0,1-.237-.494,3.2,3.2,0,0,1-1.868.741,1.179,1.179,0,0,1-1.2-1.314,3.552,3.552,0,0,1,2.56-3.024c-.02-.514-.02-1.077-.01-1.66-1.67,0-1.848,0-2.174-.02l-.02-.652c.5.03,1.364.03,2.214.03.01-.455.03-1.008.05-1.473l.988.07c-.01.1-.109.178-.257.2-.03.366-.049.82-.079,1.186A22.623,22.623,0,0,0-4.984-5.3l.089.672a24,24,0,0,1-4.081.385C-9-3.725-9.006-3.231-9-2.766a5.15,5.15,0,0,1,1.482-.227c.148,0,.277,0,.4.01.04-.158.069-.307.1-.465ZM-9.342.416A11.584,11.584,0,0,1-9.629-1.9,2.77,2.77,0,0,0-11.546.356c0,.583.326.781.682.761a2.7,2.7,0,0,0,1.522-.7m2.026-2.777a4.611,4.611,0,0,0-1.67.237A9.591,9.591,0,0,0-8.759-.088,6.481,6.481,0,0,0-7.316-2.361" transform="translate(12.218 6.334)"/></g><g transform="translate(7.961 4.24)"><path class="a" d="M-6.329-8.038H-7.2l-.811-2.441h-2.619l-.79,2.441h-.84l2.49-7.531h.949Zm-1.848-3.093-.741-2.233c-.158-.514-.287-.988-.385-1.433h-.03c-.1.455-.237.929-.375,1.4l-.751,2.263Z" transform="translate(12.258 15.569)"/></g></g></svg>