<?xml version="1.0" encoding="utf-8"?>
<!-- Generator: Adobe Illustrator 25.4.1, SVG Export Plug-In . SVG Version: 6.00 Build 0)  -->
<svg version="1.1" id="レイヤー_1" xmlns="http://www.w3.org/2000/svg" xmlns:xlink="http://www.w3.org/1999/xlink" x="0px"
	 y="0px" viewBox="0 0 42 40" style="enable-background:new 0 0 42 40;" xml:space="preserve">
<style type="text/css">
	.st0{fill-rule:evenodd;clip-rule:evenodd;fill:#0081CC;}
	.st1{fill:none;stroke:#0081CC;stroke-width:2;}
</style>
<desc>Created with Sketch.</desc>
<g id="Page-1">
	<g id="Group-14" transform="translate(1.000000, 1.000000)">
		<path id="Path" class="st0" d="M20.3,12.1c-1,0-1.8,0.8-1.8,1.8s0.8,1.8,1.8,1.8c1,0,1.8-0.8,1.8-1.8S21.3,12.1,20.3,12.1"/>
		<path id="Path_00000048468611668939797470000013144320480663325853_" class="st0" d="M12,12.1c-1,0-1.8,0.8-1.8,1.8
			s0.8,1.8,1.8,1.8c1,0,1.8-0.8,1.8-1.8S13,12.1,12,12.1"/>
		<path id="Path_00000121245634712977624150000015095418312274620607_" class="st0" d="M28.7,12.1c-1,0-1.8,0.8-1.8,1.8
			s0.8,1.8,1.8,1.8c1,0,1.8-0.8,1.8-1.8S29.7,12.1,28.7,12.1"/>
		<path id="Path_00000105413842781453343920000012299579562008729520_" class="st1" d="M36,0H3.5C1.6,0,0,1.5,0,3.3v21.4
			C0,26.5,1.6,28,3.5,28h2.2v7.6c0,0.6,0.3,1.1,0.9,1.4C6.8,37,7,37.1,7.2,37.1c0.3,0,0.7-0.1,1-0.3L18.8,28H36
			c1.9,0,3.5-1.5,3.5-3.3V3.3C39.5,1.5,37.9,0,36,0z"/>
	</g>
</g>
</svg>
