<?xml version="1.0" encoding="UTF-8"?>
<svg width="27px" height="27px" viewBox="0 0 27 27" version="1.1" xmlns="http://www.w3.org/2000/svg" xmlns:xlink="http://www.w3.org/1999/xlink">
    <!-- Generator: Sketch 50.2 (55047) - http://www.bohemiancoding.com/sketch -->
    <title>44</title>
    <desc>Created with Sketch.</desc>
    <defs></defs>
    <g id="Page-1" stroke="none" stroke-width="1" fill="none" fill-rule="evenodd">
        <g id="safari-home-screen-copy-52" transform="translate(-332.000000, -70.000000)" fill="#FFFFFF" fill-rule="nonzero">
            <g id="44" transform="translate(332.000000, 70.000000)">
                <path d="M14.1753,13.5 L19.0413,8.634 C19.2273,8.4474 19.2276,8.1453 19.0413,7.959 C18.8541,7.7724 18.5523,7.7724 18.3657,7.959 L13.5,12.8247 L8.634,7.959 C8.4483,7.7724 8.1453,7.7724 7.959,7.959 C7.7724,8.1453 7.7724,8.4474 7.959,8.634 L12.8247,13.5 L7.9593,18.3654 C7.7727,18.552 7.7727,18.8541 7.9593,19.041 C8.0526,19.134 8.1747,19.1811 8.2968,19.1808 C8.4192,19.1811 8.5413,19.134 8.6343,19.041 L13.5,14.1753 L18.3657,19.041 C18.459,19.134 18.5814,19.1811 18.7035,19.1811 C18.8253,19.1811 18.9477,19.134 19.0413,19.041 C19.2276,18.8541 19.2276,18.552 19.041,18.3654 L14.1753,13.5 Z" id="Shape" stroke="#FFFFFF"></path>
                <path d="M13.5,0 C6.0564,0 0,6.0564 0,13.5 C0,20.9439 6.0564,27 13.5,27 C20.9439,27 27,20.9436 27,13.5 C27,6.0564 20.9439,0 13.5,0 Z M13.5,26.0448 C6.5829,26.0448 0.9552,20.4171 0.9552,13.5 C0.9552,6.5823 6.5826,0.9549 13.5,0.9549 C20.4174,0.9549 26.0448,6.5826 26.0448,13.5003 C26.0448,20.4171 20.4174,26.0448 13.5,26.0448 Z" id="Shape"></path>
            </g>
        </g>
    </g>
</svg>