<?xml version="1.0" encoding="utf-8"?>
<!-- Generator: Adobe Illustrator 25.4.1, SVG Export Plug-In . SVG Version: 6.00 Build 0)  -->
<svg version="1.1" id="レイヤー_1" xmlns="http://www.w3.org/2000/svg" xmlns:xlink="http://www.w3.org/1999/xlink" x="0px"
	 y="0px" viewBox="0 0 160 160" style="enable-background:new 0 0 160 160;" xml:space="preserve">
<style type="text/css">
	.st0{fill:#0081CC;}
	.st1{fill:#0B318F;}
</style>
<g>
	<path class="st0" d="M71.3,45.8h-15l0,18.5h-21C21.1,64.1,15.6,67.9,15,78.5v21c0.3,10,5.7,14.4,18,14.7h38.4L71.3,45.8z
		 M56.3,100.4H38.7c-8.5,0-9.2-0.7-9.5-5.3v-6.5c0.1-7.3,0.5-10.5,8.3-10.6h18.8V100.4z"/>
	<g>
		<g>
			<polygon class="st0" points="121.9,92.3 116.8,99.4 127.4,114.2 145,114.2 125.6,87.1 			"/>
			<polygon class="st0" points="125.6,72.9 145,45.8 127.4,45.8 116.8,60.6 121.9,67.7 			"/>
		</g>
		<polygon class="st1" points="111.7,67.7 96.1,45.8 78.4,45.8 102.9,80 78.4,114.2 96.1,114.2 111.7,92.3 120.5,80 		"/>
	</g>
</g>
</svg>
