<?xml version="1.0" encoding="utf-8"?>
<!-- Generator: Adobe Illustrator 25.4.1, SVG Export Plug-In . SVG Version: 6.00 Build 0)  -->
<svg version="1.1" id="レイヤー_1" xmlns="http://www.w3.org/2000/svg" xmlns:xlink="http://www.w3.org/1999/xlink" x="0px"
	 y="0px" viewBox="0 0 24.9 21.8" style="enable-background:new 0 0 24.9 21.8;" xml:space="preserve">
<style type="text/css">
	.st0{fill:#0081CC;}
</style>
<g transform="translate(-154.26 -770.823)">
	<path class="st0" d="M157.9,792.6c-0.3,0-0.6-0.3-0.6-0.6c0-0.1,0-0.2,0-0.2l0.9-2.3c-2.4-1.9-3.9-4.8-4-7.9
		c0-5.9,5.6-10.8,12.4-10.8s12.5,4.8,12.5,10.8s-5.6,10.8-12.5,10.8c-1.9,0-3.7-0.4-5.4-1.1l-3.2,1.3
		C158,792.6,158,792.6,157.9,792.6z M161.3,790c0.1,0,0.2,0,0.2,0.1c1.6,0.7,3.4,1.1,5.1,1.1c6.2,0,11.2-4.3,11.2-9.5
		s-5-9.5-11.2-9.5s-11.2,4.3-11.2,9.5c0.1,2.9,1.5,5.5,3.8,7.2c0.2,0.2,0.3,0.5,0.2,0.7l-0.6,1.4l2.1-0.8
		C161.2,790,161.2,790,161.3,790z"/>
	<path class="st0" d="M169,780.1c0-0.1,0-0.1,0-0.2l-0.2-0.1l0.2,0.1c0-0.1,0-0.3-0.2-0.3l-0.8-0.2c-0.1,0-0.3,0-0.3,0.2
		c0,0,0,0,0,0c0,0.1,0,0.2-0.1,0.3c-0.1,0-0.2,0-0.3,0c-0.5,0-1,0.1-1.5,0.2c0-0.4,0-0.7,0-1.2c1.5,0,3.1-0.2,4.6-0.4
		c0.1,0,0.2-0.1,0.2-0.3l-0.1-0.8c0-0.1-0.1-0.2-0.3-0.2c0,0,0,0,0,0c-1.4,0.3-2.9,0.4-4.3,0.5c0-0.1,0-0.3,0-0.4c0-0.2,0-0.4,0-0.5
		c0.2-0.1,0.3-0.2,0.3-0.4c0-0.1-0.1-0.2-0.2-0.3c0,0,0,0,0,0L165,776c-0.1,0-0.1,0-0.2,0.1c0,0-0.1,0.1-0.1,0.2c0,0.5,0,1-0.1,1.5
		c-0.9,0-1.8,0-2.3,0c-0.1,0-0.1,0-0.2,0.1c0,0-0.1,0.1-0.1,0.2l0,0.8c0,0.1,0.1,0.2,0.2,0.2c0.4,0,0.6,0,2.3,0c0,0.6,0,1.1,0,1.5
		c-1.9,0.8-3,2.2-3,3.7c-0.1,0.9,0.6,1.7,1.5,1.8c0.1,0,0.1,0,0.2,0c0.7,0,1.5-0.3,2.1-0.7c0.1,0.1,0.1,0.2,0.2,0.3
		c0.1,0.1,0.2,0.1,0.3,0.1l0.7-0.4c0.1,0,0.1-0.1,0.1-0.2c0-0.1,0-0.1,0-0.2c-0.1-0.1-0.2-0.3-0.2-0.4c0.9-0.9,1.7-2,2.2-3.2
		c1,0.1,1.8,0.9,1.8,1.9v0.1c0,1.7-2.3,2.2-3.7,2.3c-0.1,0-0.2,0.1-0.2,0.3c0,0,0,0.1,0,0.1c0.1,0.2,0.2,0.4,0.3,0.6
		c0,0.1,0.1,0.2,0.2,0.2h0c3.9-0.4,4.7-2.1,4.7-3.5C171.8,781.7,170.6,780.3,169,780.1z M163.5,784.7c-0.1,0-0.3,0-0.4-0.1
		c-0.1-0.1-0.2-0.3-0.2-0.5c0.1-1,0.8-1.9,1.8-2.2c0,0.7,0.1,1.5,0.3,2.2C164.6,784.4,164.1,784.6,163.5,784.7z M166.1,783
		c-0.1-0.6-0.1-1.1-0.2-1.7c0.4-0.1,0.9-0.2,1.3-0.2C167,781.8,166.6,782.5,166.1,783L166.1,783z"/>
</g>
</svg>
