<?xml version="1.0" encoding="utf-8"?>
<!-- Generator: Adobe Illustrator 25.4.1, SVG Export Plug-In . SVG Version: 6.00 Build 0)  -->
<svg version="1.1" id="レイヤー_1" xmlns="http://www.w3.org/2000/svg" xmlns:xlink="http://www.w3.org/1999/xlink" x="0px"
	 y="0px" viewBox="0 0 50 50" style="enable-background:new 0 0 50 50;" xml:space="preserve">
<style type="text/css">
	.st0{fill-rule:evenodd;clip-rule:evenodd;fill:#3E3D43;}
	.st1{fill:#0081CC;}
	.st2{fill:#FFFFFF;}
</style>
<path class="st0" d="M13,17.4L21.4,9H43v38H13V17.4z M11,17v31c0,0.3,0.1,0.5,0.3,0.7S11.7,49,12,49h32c0.6,0,1-0.4,1-1V8
	c0-0.6-0.4-1-1-1H21c-0.3,0-0.5,0.1-0.7,0.3l-9,9C11.1,16.5,11,16.7,11,17z"/>
<path class="st0" d="M11,17c0,0.6,0.4,1,1,1h9c0.6,0,1-0.4,1-1v-5c0-0.6-0.4-1-1-1s-1,0.4-1,1v4h-8C11.4,16,11,16.4,11,17z"/>
<path class="st0" d="M21,24c0-0.6,0.4-1,1-1h16c0.6,0,1,0.4,1,1s-0.4,1-1,1H22C21.4,25,21,24.6,21,24z"/>
<path class="st0" d="M17,36c0-0.6,0.4-1,1-1h16c0.6,0,1,0.4,1,1s-0.4,1-1,1H18C17.4,37,17,36.6,17,36z"/>
<path class="st0" d="M17,30c0-0.6,0.4-1,1-1h20c0.6,0,1,0.4,1,1s-0.4,1-1,1H18C17.4,31,17,30.6,17,30z"/>
<path class="st0" d="M5,2c0-0.6,0.4-1,1-1h32c0.6,0,1,0.4,1,1v6h-2V3H7v38h5v2H6c-0.6,0-1-0.4-1-1V2z"/>
<rect y="34" class="st1" width="50" height="16"/>
<path class="st2" d="M12.6,47v-8.5h2.6c0.8,0,1.4,0.2,2,0.5c0.6,0.3,1.1,0.8,1.4,1.4c0.3,0.6,0.5,1.3,0.5,2.1v0.4
	c0,0.8-0.2,1.5-0.5,2.1c-0.3,0.6-0.8,1.1-1.4,1.4c-0.6,0.3-1.3,0.5-2,0.5H12.6z M14.4,39.9v5.7h0.8c0.7,0,1.2-0.2,1.6-0.7
	s0.5-1.1,0.6-1.9v-0.5c0-0.9-0.2-1.5-0.5-2c-0.4-0.4-0.9-0.7-1.6-0.7H14.4z"/>
<path class="st2" d="M22.2,45.6h3.7V47h-5.5v-8.5h1.8V45.6z"/>
<path class="st2" d="M31.5,41.8v1.9h-2.3v-1.9H31.5z M33,45.1v-4.6h-5.1V46h1.4v-0.9H33z M37.6,37.6H26.8v1.4h7.9v7.1
	c0,0.3-0.1,0.3-0.4,0.3c-0.3,0-1.3,0-2.2,0c0.2,0.4,0.5,1.1,0.6,1.5c1.2,0,2.1,0,2.7-0.3c0.6-0.2,0.8-0.7,0.8-1.5v-7.2h1.4V37.6z"/>
</svg>
