<?xml version="1.0" encoding="UTF-8"?>
<svg width="23px" height="22px" viewBox="0 0 23 22" version="1.1" xmlns="http://www.w3.org/2000/svg" xmlns:xlink="http://www.w3.org/1999/xlink">
    <!-- Generator: Sketch 50.2 (55047) - http://www.bohemiancoding.com/sketch -->
    <title>154</title>
    <desc>Created with Sketch.</desc>
    <defs></defs>
    <g id="Page-1" stroke="none" stroke-width="1" fill="none" fill-rule="evenodd">
        <g id="safari-home-screen-copy-36" transform="translate(-90.000000, -344.000000)" fill="#000000" fill-rule="nonzero">
            <g id="154" transform="translate(90.000000, 344.000000)">
                <path d="M22.1891222,0.360260157 L20.4582444,0.020050602 C20.0606,-0.0580920655 19.5415667,0.0986957946 19.2586667,0.376843489 L11.3216222,8.1805572 C11.2807333,8.22050796 11.2408667,8.22075922 11.1997222,8.18030594 L9.73794444,6.74383768 C9.58716667,6.59534148 9.40061111,6.51342988 9.21226667,6.51342988 C8.91505556,6.51342988 8.66537778,6.70639955 8.56034444,7.01696012 L7.81795556,9.20696491 C7.79802222,9.26550909 7.71241111,9.30998257 7.63651111,9.29691692 C7.26365556,9.23234243 6.88262222,9.19992956 6.50388889,9.19992956 C4.76611111,9.19992956 3.13387778,9.8640166 1.90746667,11.0700771 C0.677222222,12.2794039 0,13.8872333 0,15.5973265 C0,17.307671 0.677222222,18.9157516 1.90721111,20.1248272 C3.13694444,21.3339029 4.77224444,22 6.51181111,22 C8.25112222,22 9.88642222,21.3339029 11.1164111,20.1248272 C12.6121778,18.6544385 13.2863333,16.5486067 12.9201222,14.4915198 C12.9070889,14.4181512 12.9505333,14.3332244 13.0111,14.3136259 L15.2382667,13.5837081 C15.4979111,13.4985301 15.6785889,13.3171185 15.7335333,13.0864594 C15.7887333,12.8565541 15.7097667,12.6150908 15.5165667,12.4251362 L14.0555556,10.9884167 C14.0223333,10.9557526 14.0223333,10.9007261 14.0555556,10.8683132 L15.5518333,9.39742196 C15.6167444,9.33335 15.8012556,9.2567149 15.9323556,9.28410253 L17.7120444,9.63386006 C18.0000556,9.69089667 18.2706889,9.60345729 18.4365444,9.40395479 C18.5753111,9.23787021 18.6254,9.01751291 18.5778667,8.78283365 L18.2556111,7.19384899 L19.8707222,7.5121987 C20.1572,7.56848152 20.4293667,7.48154466 20.5954778,7.28204216 C20.7337333,7.11570632 20.7835667,6.89560029 20.7360333,6.66092102 L20.4140333,5.0716851 L22.0294,5.38953228 C22.0866444,5.4008391 22.1446556,5.40636688 22.2016444,5.40636688 C22.4201444,5.40636688 22.6222889,5.32395275 22.7712778,5.1744515 C22.9187333,5.0267091 23,4.82519649 23,4.60760308 L23,1.33214388 C23,0.876856055 22.6435,0.449960904 22.1891222,0.360260157 Z M22.1845222,4.60383415 L20.4582444,4.26462964 C20.1699778,4.20784429 19.8996,4.29478115 19.7334889,4.49453492 C19.5952333,4.66036823 19.5451444,4.88097679 19.5926778,5.11565605 L19.9154444,6.70464071 L18.2995667,6.386291 C18.0125778,6.32950566 17.7414333,6.41694504 17.5753222,6.61644754 C17.4368111,6.78278338 17.3867222,7.00339194 17.4342556,7.23756868 L17.7565111,8.8268046 L16.0923333,8.49940944 C15.7212667,8.42654329 15.2400556,8.57202433 14.9763222,8.83157859 L13.4803,10.3027211 C13.1299333,10.6472021 13.1299333,11.2082715 13.4803,11.5537576 L14.8240111,12.8759013 L12.7540111,13.5545616 C12.3083222,13.7007964 12.0351333,14.1626171 12.1192111,14.6292117 C12.4394222,16.4295082 11.8496,18.2725194 10.5414111,19.5584814 C9.46526667,20.6173019 8.03415556,21.1999799 6.51181111,21.1999799 C4.98972222,21.1999799 3.55835556,20.6173019 2.48246667,19.5584814 C1.40606667,18.5006658 0.813433333,17.0935953 0.813433333,15.596824 C0.813433333,14.1005552 1.40606667,12.6932334 2.48246667,11.6354179 C3.55503333,10.5803663 4.98307778,9.99919588 6.50363333,9.99919588 C6.83534444,9.99919588 7.16935556,10.0275885 7.49595556,10.0841226 C7.9695,10.1660342 8.44508889,9.88612771 8.58947778,9.45948382 L9.28024444,7.42400553 L10.6244667,8.74539552 C10.9633333,9.07907225 11.5577556,9.07907225 11.8971333,8.74539552 L19.8339222,0.942686856 C19.9131444,0.864041663 20.1347111,0.770571977 20.2982667,0.804241165 L22.0296556,1.14470198 C22.1055556,1.15977774 22.1860556,1.25601131 22.1860556,1.33214388 L22.1845222,4.60383415 Z" id="Shape"></path>
                <path d="M6.0001322,14 C5.46579417,14 4.96371208,14.2075347 4.58589464,14.5855915 C4.2080772,14.9631196 4,15.4651685 4,15.9997356 C4,16.533774 4.2080772,17.0358229 4.58589464,17.413351 C4.96344768,17.7914078 5.46579417,18 6.0001322,18 C6.53447022,18 7.03628792,17.7914078 7.41410536,17.4138797 C7.7919228,17.0358229 8,16.533774 8,15.9997356 C8,15.4654329 7.7916584,14.9631196 7.41410536,14.5855915 C7.03655232,14.2075347 6.53447022,14 6.0001322,14 Z M6.81895697,16.8185063 C6.60003966,17.0371447 6.30947188,17.1574356 6.0001322,17.1574356 C5.69079252,17.1574356 5.39969595,17.0371447 5.18104303,16.8185063 C4.96239011,16.5998678 4.84182695,16.3090549 4.84182695,15.9994712 C4.84182695,15.6904164 4.96239011,15.3993391 5.18130742,15.1799075 C5.39996034,14.9615334 5.69079252,14.8409782 6.0001322,14.8409782 C6.30947188,14.8409782 6.60030405,14.9615334 6.81895697,15.1807006 C7.03787428,15.3993391 7.15843744,15.6904164 7.15843744,15.9994712 C7.15870183,16.3090549 7.03813867,16.5998678 6.81895697,16.8185063 Z" id="Shape"></path>
            </g>
        </g>
    </g>
</svg>