<?xml version="1.0" encoding="UTF-8"?>
<svg width="23px" height="19px" viewBox="0 0 23 19" version="1.1" xmlns="http://www.w3.org/2000/svg" xmlns:xlink="http://www.w3.org/1999/xlink">
    <!-- Generator: Sketch 50.2 (55047) - http://www.bohemiancoding.com/sketch -->
    <title>7D</title>
    <desc>Created with Sketch.</desc>
    <defs></defs>
    <g id="Page-1" stroke="none" stroke-width="1" fill="none" fill-rule="evenodd">
        <g id="safari-home-screen-copy-53" transform="translate(-331.000000, -300.000000)" fill="#FFFFFF">
            <path d="M343.541413,316.806272 C343.541413,317.255928 343.43945,317.426206 343.403763,317.450677 C343.347684,317.490952 343.13866,317.471069 343.021403,317.424166 C341.670397,316.78486 338.035427,315.040788 337.393062,314.654859 C336.964818,314.399953 336.975015,314.183792 336.995407,313.754019 C336.995407,313.672958 337.000505,313.596486 337.000505,313.524093 C336.995407,313.049456 337.000505,305.284996 337.000505,305.284996 C337.000505,305.284487 337.000505,305.283467 337.000505,305.282447 C337.000505,304.982677 337.219725,304.80934 337.275805,304.771614 C337.902875,304.474393 341.231958,302.648241 342.7563,301.684183 C343.046894,301.504219 343.266114,301.5032 343.378273,301.564377 C343.52102,301.641359 343.546511,301.837637 343.546511,301.959483 C343.556707,302.313293 343.546511,312.79404 343.541413,316.806272 Z M335.471065,313.134086 L332.529441,313.134086 L332.529441,305.932969 L335.471065,305.932969 C335.471065,307.559784 335.471065,311.792256 335.471065,313.134086 Z M344.107306,300.220509 C344.703788,300.543221 345.065755,301.179978 345.075952,301.924306 C345.086148,302.2669 345.070853,315.317107 345.070853,316.804233 C345.075952,317.717309 344.795554,318.366302 344.244956,318.728269 C343.933969,318.934744 343.592394,319 343.291604,319 C342.827674,319 342.450412,318.843997 342.384136,318.815957 C342.164916,318.710426 337.444043,316.469286 336.607949,315.966609 C335.960486,315.5817 335.67499,315.102985 335.552635,314.663526 L331.76472,314.663526 C331.341575,314.663526 331,314.320931 331,313.898806 L331,305.168249 C331,304.746123 331.341575,304.403529 331.76472,304.403529 L335.664794,304.403529 C335.89421,303.90799 336.27657,303.574062 336.541673,303.427236 C336.567164,303.413471 336.592654,303.401745 336.613047,303.391549 C336.929131,303.253389 340.319391,301.415002 341.945697,300.389767 C342.664534,299.938072 343.475137,299.875365 344.107306,300.220509 Z M351.549236,309.529228 L353.773717,311.751663 C354.075428,312.051329 354.075428,312.536624 353.773717,312.836289 C353.625418,312.986122 353.425982,313.060783 353.231659,313.060783 C353.037337,313.060783 352.837901,312.986122 352.689602,312.836289 L350.465122,310.613854 L348.245755,312.836289 C348.092343,312.986122 347.89802,313.060783 347.703698,313.060783 C347.504262,313.060783 347.309939,312.986122 347.16164,312.836289 C346.859929,312.536624 346.859929,312.051329 347.16164,311.751663 L349.381007,309.529228 L347.16164,307.306793 C346.859929,307.007128 346.859929,306.521833 347.16164,306.222167 C347.458238,305.922502 347.944044,305.922502 348.245755,306.222167 L350.465122,308.444602 L352.689602,306.222167 C352.986199,305.922502 353.472006,305.922502 353.773717,306.222167 C354.075428,306.521833 354.075428,307.007128 353.773717,307.306793 L351.549236,309.529228 Z" id="7D"></path>
        </g>
    </g>
</svg>