<?xml version="1.0" encoding="UTF-8"?>
<svg width="31px" height="37px" viewBox="0 0 31 37" version="1.1" xmlns="http://www.w3.org/2000/svg" xmlns:xlink="http://www.w3.org/1999/xlink">
    <!-- Generator: Sketch 50.2 (55047) - http://www.bohemiancoding.com/sketch -->
    <title>Group</title>
    <desc>Created with Sketch.</desc>
    <defs></defs>
    <g id="Page-1" stroke="none" stroke-width="1" fill="none" fill-rule="evenodd">
        <g id="safari-home-screen-copy-60" transform="translate(-71.000000, -384.000000)" fill="#BCBCBC" fill-rule="nonzero">
            <g id="全画面表示_1人">
                <g id="対話画面/状態/ビデオOFF_大" transform="translate(71.000000, 384.000000)">
                    <g id="Group-3">
                        <g id="meet-in/1px/video-off">
                            <g id="icon">
                                <g id="Group">
                                    <path d="M4.80162628,31.19655 C4.80162628,30.68595 4.45974316,30.27155 4.03849432,30.27155 L1.52626391,30.27155 L1.52626391,7.8255 L14.9848591,7.8255 C15.406108,7.8255 15.7479911,7.4111 15.7479911,6.9005 C15.7479911,6.3899 15.406108,5.9755 14.9848591,5.9755 L0.763131957,5.9755 C0.341883117,5.9755 0,6.3899 0,6.9005 L0,31.19655 C0,31.70715 0.341883117,32.12155 0.763131957,32.12155 L4.03849432,32.12155 C4.45974316,32.12155 4.80162628,31.709 4.80162628,31.19655 Z" id="Shape"></path>
                                    <path d="M30.113187,6.0791 C29.8598272,5.92 29.5545744,5.94405 29.3210561,6.1457 L21.4592706,12.88895 L21.4592706,12.1397 C21.4592706,11.6291 21.1173875,11.2147 20.6961387,11.2147 C20.2748898,11.2147 19.9330067,11.6291 19.9330067,12.1397 L19.9330067,14.6779 C19.9330067,15.02385 20.0917382,15.3402 20.345098,15.4993 C20.5999841,15.6584 20.9037106,15.6362 21.137229,15.4327 L28.9990144,8.6876 L28.9990144,29.50565 L21.1082299,23.3766 C20.8731853,23.19345 20.5740376,23.1842 20.3298353,23.3433 C20.0841069,23.50425 19.9330067,23.8169 19.9330067,24.1536 L19.9330067,30.27155 L11.1829357,30.27155 C10.7616869,30.27155 10.4198037,30.68595 10.4198037,31.19655 C10.4198037,31.70715 10.7616869,32.12155 11.1829357,32.12155 L20.6961387,32.12155 C21.1173875,32.12155 21.4592706,31.70715 21.4592706,31.19655 L21.4592706,25.8445 L29.3500551,31.97355 C29.4752087,32.0716 29.6186775,32.1197 29.7621463,32.1197 C29.8888262,32.1197 30.0139799,32.08085 30.1284497,32.005 C30.3741782,31.84405 30.5252783,31.5314 30.5252783,31.1947 L30.5252783,6.9005 C30.5252783,6.55455 30.3665468,6.2382 30.113187,6.0791 Z" id="Shape"></path>
                                    <path d="M22.6314413,0.12765 C22.2666643,-0.1332 21.7996275,0.01665 21.5874768,0.45695 L4.59100186,35.60695 C4.37732491,36.04725 4.49942602,36.61335 4.86267683,36.87235 C4.98477795,36.9593 5.11756291,37 5.2488216,37 C5.511339,37 5.76622507,36.8372 5.90816761,36.54305 L22.9046426,1.39305 C23.1167933,0.95275 22.9962184,0.38665 22.6314413,0.12765 Z" id="Shape"></path>
                                </g>
                            </g>
                        </g>
                    </g>
                </g>
            </g>
        </g>
    </g>
</svg>