<?xml version="1.0" encoding="utf-8"?>
<!-- Generator: Adobe Illustrator 25.4.1, SVG Export Plug-In . SVG Version: 6.00 Build 0)  -->
<svg version="1.1" id="レイヤー_1" xmlns="http://www.w3.org/2000/svg" xmlns:xlink="http://www.w3.org/1999/xlink" x="0px"
	 y="0px" viewBox="0 0 46 48" style="enable-background:new 0 0 46 48;" xml:space="preserve">
<style type="text/css">
	.st0{fill:none;stroke:#0081CC;stroke-width:3;}
	.st1{fill:#B2B2B2;}
</style>
<desc>Created with Sketch.</desc>
<g id="Page-1">
	<g id="pen1__Icon-Copy" transform="translate(2.000000, 2.000000)">
		<g>
			<ellipse id="Oval" class="st0" cx="21.2" cy="22.1" rx="21.2" ry="22.1"/>
			<path id="Fill-91" class="st1" d="M26.4,29.2c0,0,1.5,0.2,1.4-1.2c-0.4-6-1.5-11.8-4.4-17.1c-1.1-2-2.2-2-3.3,0
				c-2.9,5.2-3.9,10.9-4.3,16.9c-0.1,0.8,0,1.4,1.1,1.4C17.1,29.2,26.4,29.2,26.4,29.2z"/>
			<path id="Fill-91-Copy" class="st1" d="M16.6,29.2c0,0-1.5,0.2-1.4-1.2c0.4-6,1.5-11.8,4.4-17.1c1.1-2,2.2-2,3.3,0
				c2.9,5.2,3.9,10.9,4.3,16.9c0.1,0.8,0,1.4-1.1,1.4C25.8,29.2,16.6,29.2,16.6,29.2z"/>
			<path id="Path" class="st1" d="M15.7,31.6c-1.9,0-3.1,1.2-3,3.1c0.1,2.2-1.2,5,2.1,6.1c3.7,1.2,7.3,1.7,11.1,0.8
				c4.7-1.2,5.2-1.7,4.9-6.6c-0.1-2-1-3.3-3.1-3.4C23.7,31.6,19.7,31.6,15.7,31.6z"/>
			<path id="Path-Copy" class="st1" d="M27.2,31.6c1.9,0,3.1,1.2,3,3.1c-0.1,2.2,1.2,5-2.1,6.1c-3.7,1.2-7.3,1.7-11.1,0.8
				c-4.7-1.2-5.2-1.7-4.9-6.6c0.1-2,1-3.3,3.1-3.4C19.1,31.6,23.2,31.6,27.2,31.6z"/>
		</g>
	</g>
</g>
</svg>
