<svg xmlns="http://www.w3.org/2000/svg" width="45.373" height="47.93" viewBox="0 0 45.373 47.93">
  <g id="Page-1" transform="translate(-0.127 -0.57)">
    <g id="pen2__Icon-Copy" transform="translate(1 2)">
      <g id="グループ_1357" data-name="グループ 1357">
        <path id="Rectangle" d="M16.774,36.977H26.853a5.554,5.554,0,0,1,5.554,5.554L21.721,45.066l-10.5-2.535A5.554,5.554,0,0,1,16.774,36.977Z" fill="#b2b2b2"/>
        <path id="Rectangle-2" d="M17.519,17.32l5.042-3.607a3,3,0,0,1,4.745,2.44V32.437H16.265V19.76A3,3,0,0,1,17.519,17.32Z" fill="#b2b2b2"/>
        <path id="Rectangle-3" d="M17.251,26.9,21.985,22l4.734,4.9a5,5,0,0,1-3.595,8.475H20.846A5,5,0,0,1,17.251,26.9Z" fill="#b2b2b2"/>
        <ellipse id="Oval" cx="21.186" cy="22.465" rx="21.186" ry="22.465" transform="translate(0.627 0.07)" fill="none" stroke="#0081cc" stroke-width="3"/>
      </g>
    </g>
  </g>
</svg>
