<?xml version="1.0" encoding="UTF-8"?>
<svg width="136px" height="137px" viewBox="0 0 136 137" version="1.1" xmlns="http://www.w3.org/2000/svg" xmlns:xlink="http://www.w3.org/1999/xlink">
    <!-- Generator: Sketch 50.2 (55047) - http://www.bohemiancoding.com/sketch -->
    <title>meet-in/rogo copy</title>
    <desc>Created with Sketch.</desc>
    <defs></defs>
    <g id="Page-1" stroke="none" stroke-width="1" fill="none" fill-rule="evenodd">
        <g id="safari-home-screen-copy-60" transform="translate(-114.000000, -226.000000)" fill="#B2B2B2">
            <g id="全画面表示_1人">
                <g id="対話画面/状態/ビデオOFF_大" transform="translate(71.000000, 221.000000)">
                    <g id="共通/rogo_グレー" transform="translate(38.000000, 0.000000)">
                        <path d="M38.9637123,83.5747247 C51.6599695,82.1242092 59.5391809,85.940704 65.2992626,88.7242092 C70.0453106,91.0159618 71.8017342,91.6932814 74.430196,90.8845185 C77.2593036,90.0231783 79.0373352,87.1824566 81.9358973,82.2324566 C85.7157579,75.784003 90.8939664,66.9510133 102.58082,62.3504978 C111.920117,58.6793638 124.466661,58.9530752 139.973505,63.1546216 C135.196588,31.2602917 108.160321,6.42524012 74.8669867,5.57781744 C37.5483868,4.6283329 6.52543878,34.1690545 5.57777261,71.5592607 C5.30767232,82.2015288 7.51014728,92.3288484 11.6496272,101.399982 C17.5208359,93.9077143 26.9095221,84.9479205 38.9637123,83.5747247" id="Fill-18-Copy"></path>
                        <path d="M107.538813,76.6115653 C100.459098,79.3997096 97.4710172,84.4966168 94.0106466,90.4038333 C90.5549062,96.2971323 86.6392237,102.980637 78.3278518,105.51672 C70.1322372,108.018782 64.1113158,105.117751 58.8050026,102.550741 C53.7024222,100.085792 48.8668553,97.764658 40.310078,98.7342457 C30.8797191,99.8089879 23.073049,110.032184 19.4444444,115.659503 C31.4507883,131.16672 50.0475794,141.34971 71.1586183,141.887854 C107.387557,142.81105 137.677375,114.994555 140.282685,79.1569261 C128.308754,75.4455859 115.800795,73.3610498 107.538813,76.6115653" id="Fill-20-Copy"></path>
                    </g>
                </g>
            </g>
        </g>
    </g>
</svg>