<?xml version="1.0" encoding="UTF-8"?>
<svg width="40px" height="59px" viewBox="0 0 40 59" version="1.1" xmlns="http://www.w3.org/2000/svg" xmlns:xlink="http://www.w3.org/1999/xlink">
    <!-- Generator: Sketch 51.3 (57544) - http://www.bohemiancoding.com/sketch -->
    <title>Shape Copy 3</title>
    <desc>Created with Sketch.</desc>
    <defs></defs>
    <g id="Page-1" stroke="none" stroke-width="1" fill="none" fill-rule="evenodd">
        <g id="Shape-Copy-3" transform="translate(1.000000, 1.000000)" stroke="#B2B2B2">
            <path d="M35.342469,25.8820757 C34.1242723,25.8820757 33.136578,26.8683826 33.136578,28.0851384 L33.136578,29.2086234 C33.136578,29.7369373 32.6611517,30.1655191 32.0744734,30.1655191 C31.4876739,30.1655191 31.0122476,29.7369373 31.0122476,29.2086234 L31.0122476,25.2815497 C31.0104297,23.820547 29.8243483,22.6368335 28.3618336,22.6368335 C26.8975011,22.6368335 25.7108137,23.8221205 25.7108137,25.2842125 C25.7108137,25.2842125 25.7180851,29.2005142 25.7108137,29.2037821 C25.7108137,29.7368163 25.262655,30.165398 24.7091826,30.165398 C24.156195,30.165398 23.7075516,29.7368163 23.7075516,29.2085024 L23.7075516,21.5200518 C23.7062185,19.9364416 22.4205193,18.652996 20.8347549,18.652996 C19.2475362,18.652996 17.9612311,19.937652 17.9612311,21.5228356 C17.9612311,21.5228356 17.9583225,29.0658032 17.9583225,29.2656305 C17.9285099,29.7674379 17.51283,30.1656401 17.0028647,30.1656401 C16.4736302,30.1656401 16.0446194,29.7370583 16.0446194,29.2087445 L16.0446194,13.1276241 C16.0446194,11.5425615 14.7583143,10.2579056 13.1714592,10.2579056 C11.5843617,10.2579056 10.2979354,11.5425615 10.2979354,13.1276241 C10.2713949,33.9205569 10.2715161,35.1317904 10.269577,36.8535005 C10.269577,37.5033326 10.2821807,38.899582 9.96854236,39.1332989 C9.70810617,39.3274376 9.36114068,39.0862166 8.94121913,38.5201401 C7.98830623,37.235121 6.61244204,35.1940019 5.6104474,33.8298265 C4.66056424,32.5364561 3.16023846,31.1322185 1.45716267,32.0624866 C-0.162413568,32.9473669 -0.436786555,35.2145777 0.658402794,36.6996662 C0.658402794,36.6996662 7.75380458,47.0985532 10.1785637,50.7139629 C10.9142821,51.8109184 13.9102374,54.6514782 17.0444471,55.9665488 C19.956854,57.188554 22.9886395,56.9279748 24.437199,56.9279748 C25.9977965,56.9279748 29.0906539,56.3002254 31.8805934,54.0138961 C34.890726,51.5471206 37.5482387,47.3483661 37.5482387,45.5879266 L37.5482387,29.2962057 C37.5482387,26.8683826 36.5607868,25.8820757 35.342469,25.8820757 Z" fill-rule="nonzero"></path>
            <path d="M19.3967914,13.761246 C20.6880231,11.1888975 20.1324548,8.10381267 17.9514463,6.07455199 C15.1479074,3.46607457 10.6285525,3.46607457 7.82501356,6.07455199 C5.66079114,8.08819452 5.09584362,11.1427708 6.35217834,13.7058285 C6.60065085,14.212739 7.21580896,14.4236073 7.72617245,14.1768158 C8.23653594,13.9300244 8.44884053,13.3190282 8.20036803,12.8121176 C7.3383618,11.0535324 7.72452469,8.96561452 9.23032454,7.56458355 C11.2433281,5.69163851 14.5331318,5.69163851 16.5461353,7.56458355 C18.0635107,8.97638461 18.4432442,11.0850549 17.5571664,12.8502695 C17.3038936,13.354831 17.5103896,13.967788 18.018388,14.2193472 C18.5263864,14.4709064 19.1435186,14.2658075 19.3967914,13.761246 L19.3967914,13.761246 Z" id="Shape-Copy-2"></path>
            <path d="M23.1161693,15.0875343 C25.1331709,11.0693314 24.2658354,6.25299494 20.8520323,3.07671368 C16.4429791,-1.02557123 9.32057145,-1.02557123 4.91151829,3.07671368 C1.52395511,6.22858071 0.641970797,10.9973217 2.60441916,15.000927 C2.85289167,15.5078376 3.46804979,15.7187058 3.97841327,15.4719143 C4.48877676,15.2251229 4.70108135,14.6141267 4.45260885,14.1072161 C2.88448897,10.9080833 3.58768866,7.10600071 6.31682927,4.56674525 C9.93534705,1.19999272 15.8282035,1.19999272 19.4467213,4.56674525 C22.1968912,7.12556688 22.888392,10.9654888 21.2765443,14.1765578 C21.0232716,14.6811193 21.2297675,15.2940763 21.7377659,15.5456355 C22.2457643,15.7971947 22.8628966,15.5920958 23.1161693,15.0875343 L23.1161693,15.0875343 Z" id="Shape-Copy"></path>
        </g>
    </g>
</svg>