<?xml version="1.0" encoding="utf-8"?>
<!-- Generator: Adobe Illustrator 25.4.1, SVG Export Plug-In . SVG Version: 6.00 Build 0)  -->
<svg version="1.1" id="レイヤー_1" xmlns="http://www.w3.org/2000/svg" xmlns:xlink="http://www.w3.org/1999/xlink" x="0px"
	 y="0px" viewBox="0 0 38 57" style="enable-background:new 0 0 38 57;" xml:space="preserve">
<style type="text/css">
	.st0{fill:#0081CC;}
	.st1{fill-rule:evenodd;clip-rule:evenodd;fill:#0081CC;}
</style>
<desc>Created with Sketch.</desc>
<g id="Page-1">
	<g id="Shape-Copy-6">
		<path class="st0" d="M35.3,25.9c-1.2,0-2.2,1-2.2,2.2v1.1c0,0.5-0.5,1-1.1,1c-0.6,0-1.1-0.4-1.1-1v-3.9c0-1.5-1.2-2.6-2.7-2.6
			c-1.5,0-2.7,1.2-2.7,2.6c0,0,0,3.9,0,3.9c0,0.5-0.4,1-1,1c-0.6,0-1-0.4-1-1v-7.7c0-1.6-1.3-2.9-2.9-2.9c-1.6,0-2.9,1.3-2.9,2.9
			c0,0,0,7.5,0,7.7c0,0.5-0.4,0.9-1,0.9c-0.5,0-1-0.4-1-1V13.1c0-1.6-1.3-2.9-2.9-2.9c-1.6,0-2.9,1.3-2.9,2.9c0,20.8,0,22,0,23.7
			c0,0.6,0,2-0.3,2.3c-0.3,0.2-0.6,0-1-0.6c-1-1.3-2.3-3.3-3.3-4.7c-0.9-1.3-2.5-2.7-4.2-1.8c-1.6,0.9-1.9,3.2-0.8,4.6
			c0,0,7.1,10.4,9.5,14c0.7,1.1,3.7,3.9,6.9,5.3c2.9,1.2,5.9,1,7.4,1c1.6,0,4.7-0.6,7.4-2.9c3-2.5,5.7-6.7,5.7-8.4V29.3
			C37.5,26.9,36.6,25.9,35.3,25.9z"/>
		<path id="Shape-Copy-5" class="st1" d="M19.4,13.8c1.3-2.6,0.7-5.7-1.4-7.7c-2.8-2.6-7.3-2.6-10.1,0c-2.2,2-2.7,5.1-1.5,7.6
			c0.2,0.5,0.9,0.7,1.4,0.5c0.5-0.2,0.7-0.9,0.5-1.4c-0.9-1.8-0.5-3.8,1-5.2c2-1.9,5.3-1.9,7.3,0c1.5,1.4,1.9,3.5,1,5.3
			c-0.3,0.5,0,1.1,0.5,1.4C18.5,14.5,19.1,14.3,19.4,13.8L19.4,13.8z"/>
		<path id="Shape-Copy-4" class="st1" d="M23.1,15.1c2-4,1.1-8.8-2.3-12C16.4-1,9.3-1,4.9,3.1C1.5,6.2,0.6,11,2.6,15
			c0.2,0.5,0.9,0.7,1.4,0.5s0.7-0.9,0.5-1.4c-1.6-3.2-0.9-7,1.9-9.5c3.6-3.4,9.5-3.4,13.1,0c2.8,2.6,3.4,6.4,1.8,9.6
			c-0.3,0.5,0,1.1,0.5,1.4C22.2,15.8,22.9,15.6,23.1,15.1L23.1,15.1z"/>
	</g>
</g>
</svg>
