<svg xmlns="http://www.w3.org/2000/svg" width="26.632" height="30.567" viewBox="0 0 26.632 30.567"><defs><style>.a{fill:#fefffe;}</style></defs><path class="a" d="M21.491,30.567h-8.41A5.206,5.206,0,0,1,9.371,29L0,19.306l2.658-2.332a2.583,2.583,0,0,1,2.9-.344l3.094,1.631V6.091a3.2,3.2,0,0,1,3.209-3.186,3.833,3.833,0,0,1,.654.063,3.212,3.212,0,0,1,5.847-1.579,3.221,3.221,0,0,1,4.416,2.956V4.7a3.581,3.581,0,0,1,.642-.063A3.2,3.2,0,0,1,26.63,7.824V25.471a5.112,5.112,0,0,1-5.136,5.1ZM3.7,19.457l7.522,7.771a2.605,2.605,0,0,0,1.855.791h8.416a2.564,2.564,0,0,0,2.567-2.543V7.823a.6.6,0,0,0-.29-.558.67.67,0,0,0-.652-.028.61.61,0,0,0-.341.531.419.419,0,0,0,0,.056v7.45H20.207V4.347a.625.625,0,0,0-.611-.641.632.632,0,0,0-.673.583.418.418,0,0,0,0,.058V15.278H16.348V3.186a.625.625,0,0,0-.611-.641.632.632,0,0,0-.673.583V15.281H12.508V6.091a.633.633,0,0,0-.636-.631h-.006a.645.645,0,0,0-.641.631v16.4L4.353,18.883Z"/></svg>