<svg height="20.33" viewBox="0 0 23.432 20.33" width="23.432" xmlns="http://www.w3.org/2000/svg"><g fill="#0081cc"><path d="m148.243 451.381a2.268 2.268 0 0 0 2.268-2.268v-10.952a2.269 2.269 0 1 0 -4.537 0v10.951a2.269 2.269 0 0 0 2.269 2.269z" transform="translate(-136.322 -435.892)"/><path d="m153.372 447.015a.587.587 0 1 0 -1.173 0 3.59 3.59 0 1 1 -7.18 0 .587.587 0 1 0 -1.173 0 4.755 4.755 0 0 0 4.176 4.7v1.514h-2.559a.587.587 0 1 0 0 1.173h6.292a.586.586 0 1 0 0-1.173h-2.555v-1.514a4.754 4.754 0 0 0 4.172-4.7z" transform="translate(-136.69 -434.072)"/><path d="m157.31 439.995a.587.587 0 0 0 -.586.586v4.681a.587.587 0 0 0 1.173 0v-4.681a.587.587 0 0 0 -.587-.586z" transform="translate(-134.465 -435.183)"/><path d="m153.327 439.995a.587.587 0 0 0 -.586.586v4.681a.587.587 0 0 0 1.173 0v-4.681a.587.587 0 0 0 -.587-.586z" transform="translate(-135.153 -435.183)"/><path d="m155.318 438.5a.586.586 0 0 0 -.586.586v8.191a.586.586 0 0 0 1.173 0v-8.191a.585.585 0 0 0 -.587-.586z" transform="translate(-134.809 -435.442)"/><path d="m151.335 444.852a.587.587 0 0 0 .586-.586v-2.944a.587.587 0 1 0 -1.173 0v2.944a.587.587 0 0 0 .587.586z" transform="translate(-135.497 -435.055)"/><path d="m138.33 439.995a.586.586 0 0 0 -.586.586v4.681a.587.587 0 0 0 1.173 0v-4.681a.587.587 0 0 0 -.587-.586z" transform="translate(-137.744 -435.183)"/><path d="m142.313 439.995a.587.587 0 0 0 -.586.586v4.681a.587.587 0 0 0 1.173 0v-4.681a.587.587 0 0 0 -.587-.586z" transform="translate(-137.056 -435.183)"/><path d="m140.321 438.5a.586.586 0 0 0 -.586.586v8.191a.587.587 0 0 0 1.173 0v-8.191a.586.586 0 0 0 -.587-.586z" transform="translate(-137.4 -435.442)"/><path d="m144.3 444.852a.586.586 0 0 0 .586-.586v-2.944a.587.587 0 1 0 -1.173 0v2.944a.587.587 0 0 0 .587.586z" transform="translate(-136.712 -435.055)"/></g></svg>