<svg xmlns="http://www.w3.org/2000/svg" viewBox="0 0 16 12"><defs><style>.cls-1{fill:#b2b2b2;}</style></defs><g id="レイヤー_2" data-name="レイヤー 2"><g id="レイヤー_1-2" data-name="レイヤー 1"><g id="グループ_6" data-name="グループ 6"><path id="Shape" class="cls-1" d="M15.6,12a.39.39,0,0,1-.23-.07L11.25,9.11V11.6a.4.4,0,0,1-.4.4H.4a.4.4,0,0,1-.4-.4V.4A.4.4,0,0,1,.4,0H10.85a.4.4,0,0,1,.4.4V3.18L15.36.08a.42.42,0,0,1,.42,0A.42.42,0,0,1,16,.4V11.6a.39.39,0,0,1-.21.35A.41.41,0,0,1,15.6,12ZM.8.8V11.2h9.65V8.35A.4.4,0,0,1,11.07,8l4.13,2.82V1.2L11.09,4.3a.4.4,0,0,1-.56-.08A.41.41,0,0,1,10.45,4V.8Z"/></g></g></g></svg>