<svg xmlns="http://www.w3.org/2000/svg" viewBox="0 0 12 16"><defs><style>.cls-1{fill:#b2b2b2;}</style></defs><g id="レイヤー_2" data-name="レイヤー 2"><g id="レイヤー_1-2" data-name="レイヤー 1"><g id="グループ_6" data-name="グループ 6"><g id="icon"><g id="Group"><path id="Shape" class="cls-1" d="M11.6,6.06a.4.4,0,0,0-.4.4V7.89A4.71,4.71,0,0,1,6.61,12.7H5.39A4.72,4.72,0,0,1,.8,7.89V6.46a.4.4,0,1,0-.8,0V7.89A5.52,5.52,0,0,0,5.39,13.5H5.6v1.7H2.49a.4.4,0,0,0,0,.8h7a.4.4,0,0,0,0-.8H6.4V13.5h.21A5.52,5.52,0,0,0,12,7.89V6.46A.4.4,0,0,0,11.6,6.06Z"/><path id="Shape-2" class="cls-1" d="M6,11.24A3.67,3.67,0,0,1,2.35,7.59V3.65a3.65,3.65,0,0,1,7.3,0V7.59A3.66,3.66,0,0,1,6,11.24ZM3.15,3.65h0V7.59a2.85,2.85,0,1,0,5.7,0V3.65a2.85,2.85,0,0,0-5.69,0Z"/></g></g></g></g></g></svg>