<svg id="レイヤー_1" data-name="レイヤー 1" xmlns="http://www.w3.org/2000/svg" width="336" height="42.442" viewBox="0 0 336 42.442">
  <path id="パス_449" data-name="パス 449" d="M153.164,0h-9.41V11.5H130.578c-8.937-.177-12.4,2.209-12.768,8.76V33.285c.179,6.235,3.562,8.962,11.325,9.113h24.08Zm-9.41,33.865H132.71c-5.35,0-5.771-.454-5.975-3.282V26.507c0-4.519.306-6.5,5.235-6.589h11.785Z" transform="translate(32.661)" fill="#0081cc"/>
  <path id="パス_450" data-name="パス 450" d="M69.41,40.366v-9.34l-1.1.492A44.437,44.437,0,0,1,56.54,34.85V29.8c9.269-1.363,16.6-5.428,20.735-11.474l.817-1.262H57.255V12.281H69.41V7.75H74.8v4.531H86.391a25.589,25.589,0,0,1-6.665,11.6l-.817.846,1.1.417c3.715,1.388,6.18,2.348,7.852,3.067v5.895a86.222,86.222,0,0,0-12.065-4.8l-1-.29v11.36Z" transform="translate(15.703 2.032)" fill="#0081cc"/>
  <path id="パス_451" data-name="パス 451" d="M219.83,40.007V9.12h5.324v9.845L228.984,20c2.081.593,4.175,1.161,6.269,1.729,1.392.353,2.924.82,6.282,1.83l.855.265v5.226c-3.83-1.426-8.937-2.991-16.126-4.986l-1.085-.29V40.007Z" transform="translate(60.896 2.391)" fill="#737373"/>
  <path id="パス_452" data-name="パス 452" d="M189.18,40.007V34.958H191.1c6.192,0,9.486-1.616,12.563-6.2a64.1,64.1,0,0,0,7.1-13.7l.409-1.1H191.925V9.12h26.812a75.953,75.953,0,0,1-6.052,14l-.243.442.294.417a109.872,109.872,0,0,1,9.41,16.03h-6.729l-.575-1.351a59.044,59.044,0,0,0-4.379-8.9l-.741-1.186-.689,1.262c-3.626,6.5-8.605,9.744-15.666,10.211Z" transform="translate(52.414 2.391)" fill="#737373"/>
  <path id="パス_453" data-name="パス 453" d="M83.59,40.007V34.958h1.915c6.205,0,9.486-1.616,12.576-6.2a65.36,65.36,0,0,0,7.1-13.7l.4-1.1H86.348V9.12H113.16a75.955,75.955,0,0,1-6.065,14l-.23.442.294.417a110.865,110.865,0,0,1,9.346,16.03h-6.729l-.575-1.351a57.884,57.884,0,0,0-4.379-8.9l-.741-1.186-.677,1.262c-3.639,6.5-8.618,9.744-15.679,10.211Z" transform="translate(23.19 2.391)" fill="#0081cc"/>
  <path id="パス_454" data-name="パス 454" d="M239.49,9.12V13.9h25.242v2.638c0,3.408-1.583,4.923-5.107,5.049h-8.58V28c0,5.806-1.685,7.573-7.2,7.573h-4.29v4.468h6.512a9.69,9.69,0,0,0,7.661-3.332c1.762-2.2,2.336-3.787,2.553-9.82v-.871h3.677c6.46-.139,9.806-3.345,9.7-9.252V9.2Z" transform="translate(66.338 2.391)" fill="#737373"/>
  <path id="パス_455" data-name="パス 455" d="M7.839,40a8.219,8.219,0,0,1-6.1-2.007A7.626,7.626,0,0,1,.012,32.183V9.16H5.336v6.033H26.518v5.251H5.336v10.88a3.968,3.968,0,0,0,.83,3.092,4.608,4.608,0,0,0,3.511,1.01H27.845v4.557Z" transform="translate(0.043 2.402)" fill="#0081cc"/>
  <rect id="長方形_486" data-name="長方形 486" width="2.988" height="4.847" transform="translate(26.561 9.782)" fill="#0081cc"/>
  <rect id="長方形_487" data-name="長方形 487" width="3.064" height="4.847" transform="translate(22.041 9.782)" fill="#0081cc"/>
  <path id="パス_456" data-name="パス 456" d="M27.61,39.988V34.939H40.378c9.78,0,12.5-2.524,12.666-11.764V15.034h5.465v8.343c0,6.513-1.136,10.1-4.341,13.014-2.937,2.689-6.512,3.559-14.7,3.6ZM42.918,26.621c-5.873-1.262-7.8-1.578-15.1-2.676V18.9l1.992.341C37.467,20.5,38.3,20.7,42.918,21.762Zm0-9.972c-6.907-1.363-10.508-1.994-15.1-2.524V9.19c5.222.77,9.346,1.477,15.1,2.613Z" transform="translate(7.697 2.41)" fill="#0081cc"/>
  <rect id="長方形_488" data-name="長方形 488" width="2.988" height="4.847" transform="translate(65.272 9.782)" fill="#0081cc"/>
  <rect id="長方形_489" data-name="長方形 489" width="3.064" height="4.847" transform="translate(60.765 9.782)" fill="#0081cc"/>
  <path id="パス_457" data-name="パス 457" d="M171.029,23.511l-3.179,4.405,6.639,9.164h11.057l-12.168-16.8Z" transform="translate(46.51 5.318)" fill="#0081cc"/>
  <path id="パス_458" data-name="パス 458" d="M173.378,16.8,185.546,0H174.489L167.85,9.164l3.179,4.405Z" transform="translate(46.51)" fill="#0081cc"/>
  <path id="パス_459" data-name="パス 459" d="M169.875,13.569,160.057,0H149l15.359,21.193L149,42.4h11.057l9.818-13.569,5.528-7.636Z" transform="translate(41.293)" fill="#0b318f"/>
</svg>
