<svg xmlns="http://www.w3.org/2000/svg" width="21.041" height="21.744" viewBox="0 0 21.041 21.744">
  <defs>
    <style>
      .cls-1 {
        fill: none;
        stroke: #0081cc;
        stroke-linecap: round;
        stroke-linejoin: round;
      }

      .cls-2 {
        fill: #fff;
      }

      .cls-3 {
        fill: #e21e1e;
      }
    </style>
  </defs>
  <g id="orange_mic_error" transform="translate(0.5)">
    <g id="グループ_1330" data-name="グループ 1330" transform="translate(-0.55 1.568)">
      <path id="パス_870" data-name="パス 870" class="cls-1" d="M2.55,14.4a6.209,6.209,0,0,1-2-4.61V8.09"/>
      <path id="パス_871" data-name="パス 871" class="cls-1" d="M14.5,8.09v1.7A6.229,6.229,0,0,1,8.26,16H6.48"/>
      <line id="線_8" data-name="線 8" class="cls-1" y2="2.66" transform="translate(7.5 16.17)"/>
      <line id="線_9" data-name="線 9" class="cls-1" x2="6.95" transform="translate(4.94 18.99)"/>
      <path id="パス_872" data-name="パス 872" class="cls-1" d="M4.14,11.53a3.8,3.8,0,0,1-.7-2.2V5.08A4,4,0,0,1,7.5,1.14h0a4.138,4.138,0,0,1,1.16.16"/>
      <path id="パス_873" data-name="パス 873" class="cls-1" d="M11.56,6.89V9.27a4.05,4.05,0,0,1-4.06,4h0"/>
      <line id="線_10" data-name="線 10" class="cls-1" x1="2.14" y2="4.01" transform="translate(2.09 15.49)"/>
      <line id="線_11" data-name="線 11" class="cls-1" x1="1.41" y2="2.63" transform="translate(4.23 12.86)"/>
      <line id="線_12" data-name="線 12" class="cls-1" x1="6.59" y2="12.36" transform="translate(5.64 0.5)"/>
    </g>
    <g id="グループ_1332" data-name="グループ 1332" transform="translate(-227 -7.004)">
      <path id="パス_874" data-name="パス 874" class="cls-2" d="M625.15,377.7l-2.892-5.857a.683.683,0,0,0-1.267,0L618.1,377.7a.984.984,0,0,0,0,.855.721.721,0,0,0,.633.428h5.785a.721.721,0,0,0,.634-.428A.984.984,0,0,0,625.15,377.7Z" transform="translate(-379.031 -363.401)"/>
      <g id="グループ_1331" data-name="グループ 1331" transform="translate(237.46 7)">
        <path id="パス_875" data-name="パス 875" class="cls-3" d="M627.943,378.9l-4.022-6.967a1.017,1.017,0,0,0-1.762,0l-4.022,6.967a1.017,1.017,0,0,0,.881,1.526h8.045a1.017,1.017,0,0,0,.881-1.526Zm-4.9.38a.63.63,0,1,1,.63-.63.63.63,0,0,1-.63.63Zm.388-2.016a.388.388,0,0,1-.776,0l-.242-2.849a.63.63,0,0,1,1.26,0Z" transform="translate(-618 -371.42)"/>
      </g>
    </g>
  </g>
</svg>
