<svg xmlns="http://www.w3.org/2000/svg" width="14.95" height="20.353" viewBox="0 0 14.95 20.353">
  <defs>
    <style>
      .cls-1 {
        fill: none;
        stroke: #0081cc;
        stroke-linecap: round;
        stroke-linejoin: round;
      }
    </style>
  </defs>
  <g id="orange_mic_off" transform="translate(0.5 0.676)">
    <g id="レイヤー_1" data-name="レイヤー 1" transform="translate(-0.55 -0.5)">
      <g id="グループ_6" data-name="グループ 6">
        <g id="グループ_3" data-name="グループ 3">
          <path id="パス_3" data-name="パス 3" class="cls-1" d="M2.55,14.4a6.21,6.21,0,0,1-2-4.61V8.09"/>
          <path id="パス_4" data-name="パス 4" class="cls-1" d="M14.5,8.09v1.7A6.23,6.23,0,0,1,8.26,16H6.48"/>
          <line id="線_2" data-name="線 2" class="cls-1" y2="2.66" transform="translate(7.5 16.17)"/>
          <line id="線_3" data-name="線 3" class="cls-1" x2="6.95" transform="translate(4.94 18.99)"/>
          <path id="パス_5" data-name="パス 5" class="cls-1" d="M4.14,11.53a3.79,3.79,0,0,1-.7-2.2V5.08A4,4,0,0,1,7.5,1.14h0a4.11,4.11,0,0,1,1.16.16"/>
          <path id="パス_8" data-name="パス 8" class="cls-1" d="M11.56,6.89V9.27a4.05,4.05,0,0,1-4.06,4h0"/>
          <line id="線_4" data-name="線 4" class="cls-1" x1="2.14" y2="4.01" transform="translate(2.09 15.49)"/>
          <line id="線_5" data-name="線 5" class="cls-1" x1="1.41" y2="2.63" transform="translate(4.23 12.86)"/>
          <line id="線_6" data-name="線 6" class="cls-1" x1="6.59" y2="12.36" transform="translate(5.64 0.5)"/>
        </g>
      </g>
    </g>
  </g>
</svg>
