<svg xmlns="http://www.w3.org/2000/svg" width="15" height="15" viewBox="0 0 15 15"><defs><style>.a{fill:#a2a2a2;}</style></defs><path class="a" d="M288.844-701.949l-2.59-2.582a.376.376,0,0,0-.529,0L279-697.824a.378.378,0,0,0-.1.195l-.617,3.2a.373.373,0,0,0,.1.336.373.373,0,0,0,.265.11.381.381,0,0,0,.071-.007l3.207-.616a.369.369,0,0,0,.193-.1l6.728-6.707a.374.374,0,0,0,.11-.266A.376.376,0,0,0,288.844-701.949Zm-7.176,6.626-2.551.489.491-2.54,6.381-6.361,2.06,2.052Z" transform="translate(-273.954 704.641)"/><path class="a" d="M285.416-696.047a.375.375,0,0,0-.375.375v5.87H273.266v-11.738h5.888a.375.375,0,0,0,.375-.375.375.375,0,0,0-.375-.375h-6.263a.375.375,0,0,0-.375.375v12.488a.375.375,0,0,0,.375.375h12.525a.375.375,0,0,0,.375-.375v-6.245A.375.375,0,0,0,285.416-696.047Z" transform="translate(-272.516 704.053)"/></svg>