<svg xmlns="http://www.w3.org/2000/svg" width="22" height="22" viewBox="0 0 22 22"><defs><style>.a{fill:#c0392b;opacity:0.8;}.b,.c{fill:#fff;}.b{stroke:#fff;stroke-linecap:round;stroke-miterlimit:10;stroke-width:0.6px;}</style></defs><g transform="translate(-126 -507)"><rect class="a" width="22" height="22" rx="2" transform="translate(126 507)"/><g transform="translate(-218.023 212.092)"><line class="b" x1="6.929" y2="11.923" transform="translate(351.445 299.408)"/><g transform="translate(351.023 304.402)"><path class="c" d="M352.263,309.814a3.045,3.045,0,0,1-.673-2.066v-1.012a.284.284,0,0,0-.567,0v1.012a3.481,3.481,0,0,0,.893,2.546s.113.124.182.012c.022-.036.11-.191.167-.3S352.263,309.814,352.263,309.814Z" transform="translate(-351.023 -306.452)"/><path class="c" d="M359.855,306.452a.283.283,0,0,0-.284.284v1.012a3.341,3.341,0,0,1-3.257,3.412h-.859a3.314,3.314,0,0,1-2-.743l-.291.5a3.887,3.887,0,0,0,2.289.807h.146v1.205H353.4a.284.284,0,0,0,0,.567h4.979a.284.284,0,0,0,0-.567h-2.205v-1.205h.146a3.908,3.908,0,0,0,3.824-3.979v-1.012A.284.284,0,0,0,359.855,306.452Z" transform="translate(-351.631 -306.452)"/></g><g transform="translate(352.692 300.202)"><path class="c" d="M354.467,308.062a.029.029,0,0,0,0,.035,2.583,2.583,0,0,0,4.392-1.846v-2.8a2.57,2.57,0,0,0-.686-1.747.029.029,0,0,0-.045.006Z" transform="translate(-353.693 -300.869)"/><path class="c" d="M357.069,300.771a2.267,2.267,0,0,0-1.263-.237,2.712,2.712,0,0,0-2.429,2.761v2.614a2.958,2.958,0,0,0,.189,1.05c.04.076.15.235.291-.012.064-.111,3.286-5.838,3.286-5.838A.239.239,0,0,0,357.069,300.771Z" transform="translate(-353.377 -300.528)"/></g></g></g></svg>