<svg xmlns="http://www.w3.org/2000/svg" xmlns:xlink="http://www.w3.org/1999/xlink" width="20" height="20" viewBox="0 0 20 20"><defs><style>.a{fill:none;}.b{clip-path:url(#a);}.c{fill:#db6363;}</style><clipPath id="a"><rect class="a" width="20" height="20"/></clipPath></defs><g class="b"><path class="c" d="M4.136,18.165h12.55a1.666,1.666,0,0,0,1.442-2.5L11.853,4.824a1.666,1.666,0,0,0-2.883,0L2.695,15.665a1.666,1.666,0,0,0,1.442,2.5Zm6.275-5.833a.836.836,0,0,1-.833-.833V9.832a.833.833,0,0,1,1.667,0V11.5A.836.836,0,0,1,10.411,12.332Zm.833,3.333H9.578V14h1.667Z" transform="translate(-0.802 -1.493)"/><rect class="a" width="20" height="20"/></g></svg>