<?xml version="1.0" encoding="UTF-8"?>
<svg width="42px" height="40px" viewBox="0 0 42 40" version="1.1" xmlns="http://www.w3.org/2000/svg" xmlns:xlink="http://www.w3.org/1999/xlink">
    <!-- Generator: Sketch 50.2 (55047) - http://www.bohemiancoding.com/sketch -->
    <title>Group 14</title>
    <desc>Created with Sketch.</desc>
    <defs></defs>
    <g id="Page-1" stroke="none" stroke-width="1" fill="none" fill-rule="evenodd">
        <g id="Group-14" transform="translate(1.000000, 1.000000)">
            <path d="M20.331,12.14 C19.322,12.14 18.503,12.96 18.503,13.97 C18.503,14.98 19.322,15.8 20.331,15.8 C21.341,15.8 22.16,14.98 22.16,13.97 C22.16,12.96 21.341,12.14 20.331,12.14" id="Path" fill="#FF9F00"></path>
            <path d="M11.97,12.14 C10.96,12.14 10.142,12.96 10.142,13.97 C10.142,14.98 10.96,15.8 11.97,15.8 C12.979,15.8 13.798,14.98 13.798,13.97 C13.798,12.96 12.979,12.14 11.97,12.14" id="Path" fill="#FF9F00"></path>
            <path d="M28.693,12.14 C27.684,12.14 26.865,12.96 26.865,13.97 C26.865,14.98 27.684,15.8 28.693,15.8 C29.703,15.8 30.521,14.98 30.521,13.97 C30.521,12.96 29.703,12.14 28.693,12.14" id="Path" fill="#FF9F00"></path>
            <path d="M36,0 L3.5,0 C1.571,0 0,1.48 0,3.29 L0,24.69 C0,26.5 1.571,27.97 3.5,27.97 L5.75,27.97 L5.75,35.6 C5.75,36.18 6.086,36.71 6.613,36.96 C6.816,37.05 7.034,37.1 7.25,37.1 C7.594,37.1 7.934,36.98 8.208,36.75 L18.791,27.97 L36,27.97 C37.93,27.97 39.5,26.5 39.5,24.69 L39.5,3.29 C39.5,1.48 37.93,0 36,0 Z" id="Path" stroke="#FF9F00" stroke-width="2"></path>
        </g>
    </g>
</svg>