<svg width="160" height="160" viewBox="0 0 160 160" fill="none" xmlns="http://www.w3.org/2000/svg">
<circle cx="80" cy="80" r="80" fill="white"/>
<path d="M47.1424 81.062C58.8035 82.8032 64.949 88.1143 69.4011 91.9268C73.0826 95.0913 74.49 96.116 77.0215 96.029C79.5529 95.942 82.0341 93.8402 85.7856 90.136C90.6923 85.314 97.4046 78.7093 108.918 77.4234C118.053 76.3686 129.247 79.6329 142.08 87.0745C143.095 78.2127 142.189 69.2344 139.423 60.7476C136.658 52.2609 132.097 44.464 126.051 37.885C120.005 31.3059 112.614 26.0984 104.379 22.6151C96.1442 19.1318 87.2575 17.4541 78.3207 17.6955C69.384 17.937 60.6061 20.092 52.5815 24.0146C44.5569 27.9372 37.4729 33.5358 31.8095 40.4313C26.146 47.3267 22.0353 55.3579 19.7557 63.9809C17.4761 72.6039 17.0809 81.6174 18.5969 90.4109C25.5507 85.1072 36.0641 79.4033 47.1424 81.062Z" fill="#FF9900"/>
<path d="M110.409 90.5239C103.439 91.3198 99.5578 95.1217 95.0689 99.5407C90.58 103.96 85.4978 108.941 77.4849 109.222C69.4721 109.503 64.9026 105.468 60.778 101.92C56.6534 98.3716 53.0536 95.2878 45.1682 94.1021C36.5311 92.8032 27.1228 100.054 22.5598 104.144C27.4455 115.767 35.749 125.641 46.3726 132.462C56.9963 139.283 69.4401 142.729 82.0594 142.345C94.6787 141.962 106.879 137.766 117.049 130.313C127.219 122.86 134.879 112.5 139.016 100.603C129.214 94.4587 118.56 89.6174 110.409 90.5239Z" fill="#84828D"/>
<rect x="52.418" y="47.3301" width="4.15584" height="12.4675" transform="rotate(57.3084 52.418 47.3301)" fill="white"/>
<rect width="4.15584" height="12.4675" transform="matrix(-0.540117 0.84159 0.84159 0.540117 105.141 47.3301)" fill="white"/>
</svg>
