<svg xmlns="http://www.w3.org/2000/svg" width="24.901" height="21.803" viewBox="0 0 24.901 21.803"><defs><style>.a{fill:#b4b4b4;}</style></defs><g transform="translate(-154.26 -770.823)"><path class="a" d="M157.884,792.626a.623.623,0,0,1-.58-.851l.911-2.324a10.141,10.141,0,0,1-3.955-7.861c0-5.938,5.585-10.767,12.45-10.767s12.451,4.829,12.451,10.767-5.586,10.766-12.451,10.766a13.923,13.923,0,0,1-5.4-1.069l-3.2,1.294A.609.609,0,0,1,157.884,792.626Zm3.437-2.638a.62.62,0,0,1,.25.053,12.659,12.659,0,0,0,5.138,1.069c6.178,0,11.2-4.27,11.2-9.52s-5.027-9.52-11.2-9.52-11.2,4.272-11.2,9.52a8.983,8.983,0,0,0,3.832,7.155.622.622,0,0,1,.208.727l-.553,1.409,2.093-.847A.639.639,0,0,1,161.321,789.988Z"/><path class="a" d="M167.315,778.89c.016-.064.031-.127.045-.192l-.234-.06.235.056a.243.243,0,0,0-.175-.291l-.817-.206a.241.241,0,0,0-.3.189c-.022.114-.043.223-.067.335-.09,0-.183,0-.283,0a6.26,6.26,0,0,0-1.49.189c0-.353.005-.737.019-1.163a27.836,27.836,0,0,0,4.579-.449.242.242,0,0,0,.182-.267l-.1-.782a.241.241,0,0,0-.3-.2,24.944,24.944,0,0,1-4.295.467c.009-.134.017-.274.025-.413.012-.182.022-.362.035-.532a.482.482,0,0,0,.31-.394.24.24,0,0,0-.223-.263l-1.151-.08a.261.261,0,0,0-.178.061.238.238,0,0,0-.08.17c-.019.464-.039,1-.052,1.483-.9,0-1.8,0-2.329-.034a.28.28,0,0,0-.182.067.239.239,0,0,0-.074.18l.023.76a.241.241,0,0,0,.227.235c.37.022.574.023,2.3.023-.008.593,0,1.089.009,1.532-1.867.8-2.975,2.163-2.975,3.682a1.616,1.616,0,0,0,1.635,1.772,3.764,3.764,0,0,0,2.067-.734,2.881,2.881,0,0,0,.18.335.243.243,0,0,0,.333.074l.679-.426a.243.243,0,0,0,.108-.153.252.252,0,0,0-.035-.186,2.332,2.332,0,0,1-.219-.42,9.284,9.284,0,0,0,2.16-3.176A1.972,1.972,0,0,1,168.7,782v.082c0,1.693-2.316,2.17-3.7,2.3a.241.241,0,0,0-.187.359,4.289,4.289,0,0,1,.289.638.243.243,0,0,0,.232.175h.027c3.851-.431,4.66-2.14,4.66-3.5A3.133,3.133,0,0,0,167.315,778.89Zm-5.509,4.618a.505.505,0,0,1-.371-.113.724.724,0,0,1-.167-.532,2.809,2.809,0,0,1,1.767-2.249,13.388,13.388,0,0,0,.285,2.224A2.746,2.746,0,0,1,161.806,783.508Zm2.6-1.671a12.3,12.3,0,0,1-.157-1.691,5.092,5.092,0,0,1,1.344-.21A7.306,7.306,0,0,1,164.41,781.837Z" transform="translate(1.708 1.192)"/></g></svg>