<svg width="50" height="50" viewBox="0 0 50 50" fill="none" xmlns="http://www.w3.org/2000/svg">
<path fill-rule="evenodd" clip-rule="evenodd" d="M13 17.4142L21.4142 9L43 9L43 47L13 47L13 17.4142ZM11 17L11 48C11 48.2652 11.1054 48.5196 11.2929 48.7071C11.4804 48.8946 11.7348 49 12 49L44 49C44.5523 49 45 48.5523 45 48L45 8C45 7.44771 44.5523 7 44 7L21 7C20.7348 7 20.4804 7.10536 20.2929 7.29289L11.2929 16.2929C11.1054 16.4804 11 16.7348 11 17Z" fill="#3E3D43"/>
<path fill-rule="evenodd" clip-rule="evenodd" d="M11 17C11 17.5523 11.4477 18 12 18L21 18C21.5523 18 22 17.5523 22 17L22 12C22 11.4477 21.5523 11 21 11C20.4477 11 20 11.4477 20 12L20 16L12 16C11.4477 16 11 16.4477 11 17Z" fill="#3E3D43"/>
<path fill-rule="evenodd" clip-rule="evenodd" d="M21 24C21 23.4477 21.4477 23 22 23H38C38.5523 23 39 23.4477 39 24C39 24.5523 38.5523 25 38 25H22C21.4477 25 21 24.5523 21 24Z" fill="#3E3D43"/>
<path fill-rule="evenodd" clip-rule="evenodd" d="M17 36C17 35.4477 17.4477 35 18 35H34C34.5523 35 35 35.4477 35 36C35 36.5523 34.5523 37 34 37H18C17.4477 37 17 36.5523 17 36Z" fill="#3E3D43"/>
<path fill-rule="evenodd" clip-rule="evenodd" d="M17 30C17 29.4477 17.4477 29 18 29L38 29C38.5523 29 39 29.4477 39 30C39 30.5523 38.5523 31 38 31L18 31C17.4477 31 17 30.5523 17 30Z" fill="#3E3D43"/>
<path fill-rule="evenodd" clip-rule="evenodd" d="M5 2C5 1.44772 5.44772 1 6 1H38C38.5523 1 39 1.44772 39 2V8H37V3H7V41H12V43H6C5.44772 43 5 42.5523 5 42V2Z" fill="#3E3D43"/>
<rect y="34" width="50" height="16" fill="#FFAA00"/>
<path d="M12.6074 47.0001V38.4689H15.2324C15.9824 38.4689 16.6523 38.6388 17.2422 38.9787C17.8359 39.3146 18.2988 39.7951 18.6309 40.4201C18.9629 41.0412 19.1289 41.7482 19.1289 42.5412V42.9337C19.1289 43.7267 18.9648 44.4318 18.6367 45.049C18.3125 45.6662 17.8535 46.1447 17.2598 46.4845C16.666 46.8244 15.9961 46.9962 15.25 47.0001H12.6074ZM14.3652 39.8927V45.588H15.2148C15.9023 45.588 16.4277 45.3634 16.791 44.9142C17.1543 44.465 17.3398 43.8224 17.3477 42.9865V42.5353C17.3477 41.6681 17.168 41.0119 16.8086 40.5665C16.4492 40.1173 15.9238 39.8927 15.2324 39.8927H14.3652Z" fill="white"/>
<path d="M22.1699 45.588H25.9023V47.0001H20.4121V38.4689H22.1699V45.588Z" fill="white"/>
<path d="M31.5423 41.7801V43.7001H29.2623V41.7801H31.5423ZM32.9583 45.0681V40.4241H27.8703V45.9801H29.2623V45.0681H32.9583ZM37.5783 37.6401H26.7663V39.0801H34.6983V46.2081C34.6983 46.4601 34.5903 46.5441 34.3143 46.5441C34.0263 46.5441 32.9823 46.5561 32.1303 46.5081C32.3463 46.8921 32.6343 47.6001 32.7183 48.0201C33.9423 48.0201 34.8303 47.9961 35.4303 47.7561C35.9943 47.5161 36.1983 47.0961 36.1983 46.2321V39.0801H37.5783V37.6401Z" fill="white"/>
</svg>
