<?xml version="1.0" encoding="UTF-8"?>
<svg width="19px" height="21px" viewBox="0 0 19 21" version="1.1" xmlns="http://www.w3.org/2000/svg" xmlns:xlink="http://www.w3.org/1999/xlink">
    <!-- Generator: Sketch 50.2 (55047) - http://www.bohemiancoding.com/sketch -->
    <title>161</title>
    <desc>Created with Sketch.</desc>
    <defs></defs>
    <g id="Page-1" stroke="none" stroke-width="1" fill="none" fill-rule="evenodd">
        <g id="safari-home-screen-copy-36" transform="translate(-91.000000, -296.000000)" fill="#000000" fill-rule="nonzero">
            <g id="161" transform="translate(91.000000, 296.500000)">
                <path d="M14,5.00021463 C14,2.24308894 11.7570073,0 9,0 C6.24299266,0 4,2.24308894 4,5.00021463 C4,7.75691106 6.24299266,10 9,10 C11.7570073,10 14,7.75691106 14,5.00021463 Z M4.68377903,5.00021463 C4.68377903,2.61997768 6.61986522,0.683379121 9,0.683379121 C11.3803494,0.683379121 13.316221,2.61997768 13.316221,5.00021463 C13.316221,7.38002232 11.3801348,9.31662088 9,9.31662088 C6.61986522,9.31662088 4.68377903,7.38002232 4.68377903,5.00021463 Z" id="Shape"></path>
                <path d="M0,17.6309251 C0,19.1134791 1.16184201,20 2.28430328,20 L16.7156967,20 C17.838378,20 19,19.1134791 19,17.6309251 C19,16.0645143 17.2932077,12 9.5,12 C1.70679234,12 0,16.0647459 0,17.6309251 Z M9.5,12.7378022 C16.6826961,12.7378022 18.2992867,16.3614883 18.2992867,17.6309251 C18.2992867,18.6904879 17.4832913,19.2624294 16.7156967,19.2624294 L2.28430328,19.2624294 C1.51670874,19.2624294 0.700713277,18.6904879 0.700713277,17.6309251 C0.700713277,16.3614883 2.31730391,12.7378022 9.5,12.7378022 Z" id="Shape"></path>
            </g>
        </g>
    </g>
</svg>