<?xml version="1.0" encoding="UTF-8"?>
<svg width="234px" height="37px" viewBox="0 0 234 37" version="1.1" xmlns="http://www.w3.org/2000/svg" xmlns:xlink="http://www.w3.org/1999/xlink">
    <!-- Generator: Sketch 50.2 (55047) - http://www.bohemiancoding.com/sketch -->
    <title>Group 3</title>
    <desc>Created with Sketch.</desc>
    <defs></defs>
    <g id="Page-1" stroke="none" stroke-width="1" fill="none" fill-rule="evenodd">
        <g id="safari-home-screen-copy-60" transform="translate(-71.000000, -384.000000)">
            <g id="全画面表示_1人">
                <g id="対話画面/状態/ビデオOFF_大" transform="translate(71.000000, 384.000000)">
                    <g id="Group-3">
                        <g id="共通/1px/video-off-copy" fill="#BCBCBC">
                            <g id="meet-in/1px/video-off">
                                <g id="icon" fill-rule="nonzero">
                                    <g id="Group">
                                        <path d="M4.8763,31.19655 C4.8763,30.68595 4.5291,30.27155 4.1013,30.27155 L1.55,30.27155 L1.55,7.8255 L15.2179,7.8255 C15.6457,7.8255 15.9929,7.4111 15.9929,6.9005 C15.9929,6.3899 15.6457,5.9755 15.2179,5.9755 L0.775,5.9755 C0.3472,5.9755 0,6.3899 0,6.9005 L0,31.19655 C0,31.70715 0.3472,32.12155 0.775,32.12155 L4.1013,32.12155 C4.5291,32.12155 4.8763,31.709 4.8763,31.19655 Z" id="Shape"></path>
                                        <path d="M30.5815,6.0791 C30.3242,5.92 30.0142,5.94405 29.77705,6.1457 L21.793,12.88895 L21.793,12.1397 C21.793,11.6291 21.4458,11.2147 21.018,11.2147 C20.5902,11.2147 20.243,11.6291 20.243,12.1397 L20.243,14.6779 C20.243,15.02385 20.4042,15.3402 20.6615,15.4993 C20.92035,15.6584 21.2288,15.6362 21.46595,15.4327 L29.45,8.6876 L29.45,29.50565 L21.4365,23.3766 C21.1978,23.19345 20.894,23.1842 20.646,23.3433 C20.39645,23.50425 20.243,23.8169 20.243,24.1536 L20.243,30.27155 L11.35685,30.27155 C10.92905,30.27155 10.58185,30.68595 10.58185,31.19655 C10.58185,31.70715 10.92905,32.12155 11.35685,32.12155 L21.018,32.12155 C21.4458,32.12155 21.793,31.70715 21.793,31.19655 L21.793,25.8445 L29.8065,31.97355 C29.9336,32.0716 30.0793,32.1197 30.225,32.1197 C30.35365,32.1197 30.48075,32.08085 30.597,32.005 C30.84655,31.84405 31,31.5314 31,31.1947 L31,6.9005 C31,6.55455 30.8388,6.2382 30.5815,6.0791 Z" id="Shape"></path>
                                        <path d="M22.9834,0.12765 C22.61295,-0.1332 22.13865,0.01665 21.9232,0.45695 L4.6624,35.60695 C4.4454,36.04725 4.5694,36.61335 4.9383,36.87235 C5.0623,36.9593 5.19715,37 5.33045,37 C5.59705,37 5.8559,36.8372 6.00005,36.54305 L23.26085,1.39305 C23.4763,0.95275 23.35385,0.38665 22.9834,0.12765 Z" id="Shape"></path>
                                    </g>
                                </g>
                            </g>
                        </g>
                        <path d="M51.5144596,9.34866667 C51.0382653,7.97966667 50.671962,6.75866667 50.45218,5.57466667 L46.6792556,5.57466667 C47.1188196,6.35166667 47.7415353,7.72066667 48.5474026,9.86666667 L56.3862941,30.2536667 C57.1555311,32.1776667 57.4119434,32.9176667 57.5584647,33.6946667 L61.1116071,33.6946667 C61.2947588,32.9176667 61.6244318,31.8816667 62.2471475,30.2536667 L70.086039,9.86666667 C71.0017973,7.46166667 71.3681006,6.57366667 71.954186,5.57466667 L68.1446313,5.57466667 C68.0347403,6.53666667 67.7416976,7.60966667 67.0823516,9.34866667 L60.1958488,28.2926667 C59.9394365,29.0696667 59.7196545,29.7356667 59.3533511,30.8826667 C58.9870478,29.7726667 58.6207444,28.6996667 58.4742231,28.2926667 L51.5144596,9.34866667 Z M74.9945037,5.57466667 L74.9945037,8.86766667 L78.5476461,8.86766667 L78.5476461,5.57466667 L74.9945037,5.57466667 Z M75.1043947,13.7516667 C75.2875464,15.0466667 75.3608071,16.1566667 75.3608071,17.9326667 L75.3608071,29.5136667 C75.3608071,31.0676667 75.2875464,32.1036667 75.1043947,33.6946667 L78.4011248,33.6946667 C78.2179731,32.2516667 78.1447124,31.2156667 78.1447124,29.5136667 L78.1447124,17.9326667 C78.1447124,16.0826667 78.2179731,15.0466667 78.4011248,13.7516667 L75.1043947,13.7516667 Z M99.2437848,33.6946667 L99.2437848,31.8816667 C99.2437848,31.3636667 99.2804151,30.6976667 99.3536758,30.0686667 C97.6320501,32.7696667 95.2510784,34.0646667 91.917718,34.0646667 C86.2766466,34.0646667 82.8333952,30.1426667 82.8333952,23.7046667 C82.8333952,17.3776667 86.3499072,13.3446667 91.8444573,13.3446667 C95.1778177,13.3446667 97.7419411,14.7136667 99.3536758,17.2666667 L99.3170455,16.7116667 C99.2071545,15.9346667 99.2071545,15.6016667 99.2071545,14.7506667 L99.2071545,9.79266667 C99.2071545,8.05366667 99.1338938,6.98066667 98.9507421,5.57466667 L102.174212,5.57466667 C101.99106,7.05466667 101.917799,8.12766667 101.917799,9.75566667 L101.917799,29.4396667 C101.917799,31.2896667 101.99106,32.2516667 102.174212,33.6946667 L99.2437848,33.6946667 Z M92.1375,15.7496667 C88.1447936,15.7496667 85.7271916,18.7096667 85.7271916,23.6306667 C85.7271916,26.0726667 86.2766466,28.1816667 87.2290353,29.4026667 C88.3645756,30.8456667 90.0862013,31.6226667 92.1375,31.6226667 C96.4232491,31.6226667 99.1705241,28.4776667 99.1705241,23.5936667 C99.1705241,21.1516667 98.4379174,19.0056667 97.1192254,17.7106667 C95.8371637,16.4526667 94.0789077,15.7496667 92.1375,15.7496667 Z M124.701867,24.1486667 L109.280496,24.1486667 C109.390387,26.6276667 109.756691,27.9966667 110.74571,29.3286667 C111.91788,30.9566667 113.712767,31.8446667 115.910587,31.8446667 C118.877644,31.8446667 120.928942,30.3646667 121.954592,27.5156667 L124.518715,28.5516667 C123.822739,30.1056667 123.346545,30.7716667 122.504047,31.6226667 C120.782421,33.3246667 118.547971,34.2126667 115.873956,34.2126667 C110.122994,34.2126667 106.496591,30.1426667 106.496591,23.7416667 C106.496591,17.4146667 110.086364,13.2706667 115.580914,13.2706667 C120.306227,13.2706667 123.712848,16.3416667 124.445455,21.2996667 C124.482085,21.7066667 124.628606,23.1496667 124.701867,24.1486667 Z M109.390387,21.8176667 L121.77144,21.8176667 C121.551658,19.7456667 121.002203,18.4136667 119.830032,17.2666667 C118.694492,16.1566667 117.265909,15.6016667 115.507653,15.6016667 C113.273203,15.6016667 111.405056,16.7486667 110.306146,18.8206667 C109.793321,19.7456667 109.610169,20.4116667 109.390387,21.8176667 Z M137.852157,34.1756667 C131.844782,34.1756667 128.035227,30.1426667 128.035227,23.7416667 C128.035227,17.3406667 131.844782,13.2706667 137.815526,13.2706667 C143.786271,13.2706667 147.559195,17.3406667 147.559195,23.7046667 C147.559195,30.0316667 143.749641,34.1756667 137.852157,34.1756667 Z M137.888787,15.6016667 C133.529777,15.6016667 130.855763,18.6726667 130.855763,23.6676667 C130.855763,28.6996667 133.529777,31.7706667 137.815526,31.7706667 C142.101276,31.7706667 144.73866,28.6996667 144.73866,23.7046667 C144.73866,18.7096667 142.101276,15.6016667 137.888787,15.6016667 Z M176.020965,5.01966667 C183.749965,5.01966667 188.65843,10.7176667 188.65843,19.6346667 C188.65843,28.5516667 183.713335,34.2496667 175.984334,34.2496667 C168.255334,34.2496667 163.346869,28.5516667 163.346869,19.6346667 C163.346869,10.7546667 168.328595,5.01966667 176.020965,5.01966667 Z M176.057595,31.6226667 C178.585088,31.6226667 180.746278,30.7716667 182.394643,29.1066667 C184.482572,27.0346667 185.654743,23.5936667 185.654743,19.6346667 C185.654743,15.5646667 184.555833,12.3086667 182.431273,10.1626667 C180.746278,8.49766667 178.548458,7.60966667 176.020965,7.60966667 C170.160111,7.60966667 166.313926,12.3456667 166.313926,19.5976667 C166.313926,26.8496667 170.196742,31.6226667 176.057595,31.6226667 Z M196.570582,20.3376667 L205.14208,20.3376667 C207.046858,20.3376667 208.109137,20.4116667 209.317938,20.5966667 L209.317938,17.4886667 C207.962616,17.6736667 206.900336,17.7476667 205.14208,17.7476667 L196.570582,17.7476667 L196.570582,8.20166667 L207.120118,8.20166667 C209.061526,8.20166667 210.123806,8.27566667 211.332607,8.46066667 L211.332607,5.31566667 C209.940654,5.50066667 208.915005,5.57466667 207.120118,5.57466667 L197.41308,5.57466667 C195.654824,5.57466667 194.665805,5.53766667 193.383743,5.46366667 C193.603525,6.90666667 193.676786,8.09066667 193.676786,9.68166667 L193.676786,29.3656667 C193.676786,31.2896667 193.603525,32.4366667 193.383743,33.6946667 L196.863625,33.6946667 C196.643843,32.3626667 196.570582,31.3636667 196.570582,29.3656667 L196.570582,20.3376667 Z M218.622043,20.3376667 L227.193541,20.3376667 C229.098319,20.3376667 230.160598,20.4116667 231.369399,20.5966667 L231.369399,17.4886667 C230.014077,17.6736667 228.951797,17.7476667 227.193541,17.7476667 L218.622043,17.7476667 L218.622043,8.20166667 L229.171579,8.20166667 C231.112987,8.20166667 232.175267,8.27566667 233.384068,8.46066667 L233.384068,5.31566667 C231.992115,5.50066667 230.966466,5.57466667 229.171579,5.57466667 L219.464541,5.57466667 C217.706285,5.57466667 216.717266,5.53766667 215.435204,5.46366667 C215.654986,6.90666667 215.728247,8.09066667 215.728247,9.68166667 L215.728247,29.3656667 C215.728247,31.2896667 215.654986,32.4366667 215.435204,33.6946667 L218.915086,33.6946667 C218.695304,32.3626667 218.622043,31.3636667 218.622043,29.3656667 L218.622043,20.3376667 Z" id="Video-OFF" fill="#B2B2B2"></path>
                    </g>
                </g>
            </g>
        </g>
    </g>
</svg>