<?xml version="1.0" encoding="UTF-8"?>
<svg width="46px" height="48px" viewBox="0 0 46 48" version="1.1" xmlns="http://www.w3.org/2000/svg" xmlns:xlink="http://www.w3.org/1999/xlink">
    <!-- Generator: Sketch 51.3 (57544) - http://www.bohemiancoding.com/sketch -->
    <title>pen1__Icon Copy</title>
    <desc>Created with Sketch.</desc>
    <defs></defs>
    <g id="Page-1" stroke="none" stroke-width="1" fill="none" fill-rule="evenodd">
        <g id="pen1__Icon-Copy" transform="translate(2.000000, 2.000000)">
            <g>
                <ellipse id="Oval" stroke="#FDAB02" stroke-width="3" cx="21.1864407" cy="22.1481481" rx="21.1864407" ry="22.1481481"></ellipse>
                <path d="M26.3540958,29.1707408 C26.3540958,29.1707408 27.8314165,29.3521447 27.7456618,28.0084903 C27.3643059,22.0021235 26.2923729,16.1708325 23.3590597,10.8974639 C22.2487893,8.90096652 21.1430589,8.91889597 20.0226998,10.9470335 C17.1489104,16.1476297 16.0734463,21.8903281 15.6784705,27.8054656 C15.6239911,28.6154551 15.6969287,29.1707408 16.7959689,29.1707408 C17.1249766,29.1707408 26.3540958,29.1707408 26.3540958,29.1707408 Z" id="Fill-91" fill="#B2B2B2" fill-rule="nonzero"></path>
                <path d="M25.8496558,29.1707408 C25.8496558,29.1707408 27.3269765,29.3521447 27.2412219,28.0084903 C26.8598659,22.0021235 25.7879329,16.1708325 22.8546198,10.8974639 C21.7443494,8.90096652 20.638619,8.91889597 19.5182598,10.9470335 C16.6444704,16.1476297 15.5690064,21.8903281 15.1740306,27.8054656 C15.1195512,28.6154551 15.1924887,29.1707408 16.291529,29.1707408 C16.6205366,29.1707408 25.8496558,29.1707408 25.8496558,29.1707408 Z" id="Fill-91-Copy" fill="#B2B2B2" fill-rule="nonzero" transform="translate(21.202960, 19.295923) scale(-1, 1) translate(-21.202960, -19.295923) "></path>
                <path d="M15.6855327,31.64606 C13.7368846,31.6703175 12.6054278,32.8315133 12.6765537,34.7320353 C12.7582728,36.9320847 11.4341203,39.72697 14.8103309,40.863381 C18.4902139,42.1015679 22.1463882,42.5698431 25.9412833,41.6417302 C30.6739306,40.4847531 31.1112793,39.9110106 30.8020581,34.9993951 C30.6749395,32.9775856 29.8310129,31.6861376 27.7305287,31.6465873 C23.7156981,31.64606 19.7003632,31.64606 15.6855327,31.64606 Z" id="Path" fill="#B2B2B2" fill-rule="nonzero"></path>
                <path d="M15.1810945,31.64606 C13.2324464,31.6703175 12.1009896,32.8315133 12.1721155,34.7320353 C12.2538346,36.9320847 10.9296821,39.72697 14.3058927,40.863381 C17.9857757,42.1015679 21.6419501,42.5698431 25.4368451,41.6417302 C30.1694924,40.4847531 30.6068411,39.9110106 30.2976199,34.9993951 C30.1705013,32.9775856 29.3265747,31.6861376 27.2260905,31.6465873 C23.21126,31.64606 19.195925,31.64606 15.1810945,31.64606 Z" id="Path-Copy" fill="#B2B2B2" fill-rule="nonzero" transform="translate(21.178799, 36.888238) scale(-1, 1) translate(-21.178799, -36.888238) "></path>
            </g>
        </g>
    </g>
</svg>