<svg xmlns="http://www.w3.org/2000/svg" width="10" height="12.053" viewBox="0 0 10 12.053"><path d="M183.918-844.64h-6.365a.3.3,0,0,0-.21.085l-3.033,2.949a.3.3,0,0,0-.091.216v8.5a.3.3,0,0,0,.3.3h9.4a.3.3,0,0,0,.3-.3v-11.451A.3.3,0,0,0,183.918-844.64Zm-6.242.6h.025v2.794h-2.878v-.019Zm5.941,10.848h-8.795v-7.451H178a.3.3,0,0,0,.3-.3v-3.1h5.314Z" transform="translate(-174.219 844.64)"/><path d="M183.216-834.692h-5.283a.3.3,0,0,0-.3.3.3.3,0,0,0,.3.3h5.283a.3.3,0,0,0,.3-.3A.3.3,0,0,0,183.216-834.692Z" transform="translate(-175.575 840.687)"/><path d="M183.683-838.7H185.5a.3.3,0,0,0,.3-.3.3.3,0,0,0-.3-.3h-1.818a.3.3,0,0,0-.3.3A.3.3,0,0,0,183.683-838.7Z" transform="translate(-177.86 842.519)"/><path d="M183.216-830.38h-5.283a.3.3,0,0,0-.3.3.3.3,0,0,0,.3.3h5.283a.3.3,0,0,0,.3-.3A.3.3,0,0,0,183.216-830.38Z" transform="translate(-175.575 838.974)"/></svg>