<?xml version="1.0" encoding="UTF-8"?>
<svg width="24px" height="19px" viewBox="0 0 24 19" version="1.1" xmlns="http://www.w3.org/2000/svg" xmlns:xlink="http://www.w3.org/1999/xlink">
    <!-- Generator: Sketch 50.2 (55047) - http://www.bohemiancoding.com/sketch -->
    <title>7D</title>
    <desc>Created with Sketch.</desc>
    <defs></defs>
    <g id="Page-1" stroke="none" stroke-width="1" fill="none" fill-rule="evenodd">
        <g id="safari-home-screen-copy-59" transform="translate(-331.000000, -300.000000)" fill="#FFFFFF">
            <path d="M348.303071,305.459862 C348.369347,305.52257 350.021143,307.028049 350.092517,309.24064 C350.143498,310.653843 349.552114,312.003319 348.338758,313.252362 C348.190912,313.406836 347.992085,313.484327 347.78816,313.484327 C347.599529,313.484327 347.405799,313.412954 347.257953,313.268676 C346.952065,312.974004 346.946967,312.490191 347.242659,312.186852 C348.150127,311.251344 348.593665,310.282189 348.568174,309.305386 C348.517193,307.748415 347.288542,306.606433 347.278346,306.595217 C346.96736,306.311251 346.941869,305.828458 347.222267,305.515942 C347.507762,305.204446 347.986987,305.176916 348.303071,305.459862 Z M351.305873,302.899579 C351.42313,302.986757 354.165927,305.076483 354.165927,309.374211 C354.165927,313.672449 351.42313,315.762174 351.305873,315.849352 C351.168223,315.951315 351.010181,316.000767 350.852139,316.000767 C350.617625,316.000767 350.388209,315.894216 350.235265,315.69233 C349.985456,315.354833 350.051732,314.877648 350.388209,314.62478 C350.485073,314.551877 352.636486,312.872551 352.636486,309.374211 C352.636486,305.835595 350.413699,304.142504 350.393307,304.12619 C350.051732,303.873833 349.985456,303.394608 350.235265,303.056092 C350.490171,302.717066 350.969396,302.647731 351.305873,302.899579 Z M343.541413,316.806272 C343.541413,317.255928 343.43945,317.426206 343.403763,317.450677 C343.347684,317.490952 343.13866,317.471069 343.021403,317.424166 C341.670397,316.78486 338.035427,315.040788 337.393062,314.654859 C336.964818,314.399953 336.975015,314.183792 336.995407,313.754019 C336.995407,313.672958 337.000505,313.596486 337.000505,313.524093 C336.995407,313.049456 337.000505,305.284996 337.000505,305.284996 C337.000505,305.284487 337.000505,305.283467 337.000505,305.282447 C337.000505,304.982677 337.219725,304.80934 337.275805,304.771614 C337.902875,304.474393 341.231958,302.648241 342.7563,301.684183 C343.046894,301.504219 343.266114,301.5032 343.378273,301.564377 C343.52102,301.641359 343.546511,301.837637 343.546511,301.959483 C343.556707,302.313293 343.546511,312.79404 343.541413,316.806272 Z M335.471065,313.134086 L332.529441,313.134086 L332.529441,305.932969 L335.471065,305.932969 C335.471065,307.559784 335.471065,311.792256 335.471065,313.134086 Z M344.107306,300.220509 C343.475137,299.875365 342.664534,299.938072 341.945697,300.389767 C340.319391,301.415002 336.929131,303.253389 336.613047,303.391549 C336.592654,303.401745 336.567164,303.413471 336.541673,303.427236 C336.27657,303.574062 335.89421,303.90799 335.664794,304.403529 L331.76472,304.403529 C331.341575,304.403529 331,304.746123 331,305.168249 L331,313.898806 C331,314.320931 331.341575,314.663526 331.76472,314.663526 L335.552635,314.663526 C335.67499,315.102985 335.960486,315.5817 336.607949,315.966609 C337.444043,316.469286 342.164916,318.710426 342.384136,318.815957 C342.450412,318.843997 342.827674,319 343.291604,319 C343.592394,319 343.933969,318.934744 344.244956,318.728269 C344.795554,318.366302 345.075952,317.717309 345.070853,316.804233 C345.070853,315.317107 345.086148,302.2669 345.075952,301.924306 C345.065755,301.179978 344.703788,300.543221 344.107306,300.220509 Z" id="7D"></path>
        </g>
    </g>
</svg>
