<svg xmlns="http://www.w3.org/2000/svg" width="11" height="11" viewBox="0 0 11 11"><defs><style>.a{fill:#fff;}</style></defs><path class="a" d="M33.241-913.915a.275.275,0,0,0-.275.276v2.144a5.536,5.536,0,0,0-5.022-3.144,5.531,5.531,0,0,0-5.422,4.292.276.276,0,0,0,.211.327.254.254,0,0,0,.058.006.275.275,0,0,0,.268-.217,4.979,4.979,0,0,1,4.884-3.858,4.988,4.988,0,0,1,4.581,2.935H30.409a.275.275,0,0,0-.275.276.275.275,0,0,0,.275.275h2.832a.275.275,0,0,0,.275-.275v-2.76A.275.275,0,0,0,33.241-913.915Z" transform="translate(-22.516 914.64)"/><path class="a" d="M33.3-903.045a.274.274,0,0,0-.327.211,4.98,4.98,0,0,1-4.884,3.858,4.987,4.987,0,0,1-4.581-2.935h2.116a.275.275,0,0,0,.275-.276.275.275,0,0,0-.275-.275H22.791a.275.275,0,0,0-.275.275v2.76a.275.275,0,0,0,.275.276.275.275,0,0,0,.275-.276v-2.144a5.535,5.535,0,0,0,5.021,3.145,5.531,5.531,0,0,0,5.422-4.293A.275.275,0,0,0,33.3-903.045Z" transform="translate(-22.516 909.425)"/></svg>