<svg xmlns="http://www.w3.org/2000/svg" width="11" height="8" viewBox="0 0 11 8"><defs><style>.a{fill:#fff;}</style></defs><path class="a" d="M33.364-572.208a.283.283,0,0,0-.289.026l-2.826,2.067v-1.854a.271.271,0,0,0-.275-.267H22.791a.27.27,0,0,0-.275.267v7.467a.271.271,0,0,0,.275.267h7.183a.271.271,0,0,0,.275-.267v-1.659l2.836,1.879a.282.282,0,0,0,.156.046.278.278,0,0,0,.128-.031.266.266,0,0,0,.147-.236v-7.467A.267.267,0,0,0,33.364-572.208Zm-.4,7.2-2.837-1.879a.284.284,0,0,0-.284-.016.266.266,0,0,0-.146.236v1.9H23.066V-571.7H29.7v2.123a.267.267,0,0,0,.152.239.283.283,0,0,0,.289-.026l2.826-2.068Z" transform="translate(-22.516 572.236)"/></svg>