<svg xmlns="http://www.w3.org/2000/svg" width="22.899" height="17.841" viewBox="0 0 22.899 17.841">
  <g id="コンポーネント_17_10" data-name="コンポーネント 17 – 10" transform="translate(0)">
    <path id="前面オブジェクトで型抜き_2" data-name="前面オブジェクトで型抜き 2" d="M-5034.3,161.84a1.064,1.064,0,0,1-.309-.051c-.022-.016-.128-.076-.51-.27-.7-.357-2.211-1.118-3.052-1.54l-.06-.03h-.008c-.187.012-.834.051-1.315.051-6.313,0-11.449-3.589-11.449-8s5.136-8,11.449-8a13.444,13.444,0,0,1,9.431,3.467A6.35,6.35,0,0,1-5028.1,152a7.376,7.376,0,0,1-2.683,5.167,13.552,13.552,0,0,1-2.655,1.886s-.016.074-.041.188c-.1.47-.376,1.72-.436,1.98a1.68,1.68,0,0,1-.181.553C-5034.132,161.828-5034.225,161.84-5034.3,161.84Zm-1.126-8.944-.865.09a2,2,0,0,0,.114.5,1.4,1.4,0,0,0,.528.685,2.422,2.422,0,0,0,1.259.312,1.98,1.98,0,0,0,1.435-.456,1.4,1.4,0,0,0,.378-1.02,1.184,1.184,0,0,0-.5-1.032,2.668,2.668,0,0,0-.977-.365,5.153,5.153,0,0,1-.847-.217.568.568,0,0,1-.408-.546c0-.39.352-.653.876-.653a.952.952,0,0,1,.75.288.773.773,0,0,1,.18.426l.858-.1a1.63,1.63,0,0,0-.294-.7,1.77,1.77,0,0,0-1.494-.606c-1.035,0-1.7.539-1.7,1.374a1.175,1.175,0,0,0,.463.972,2.122,2.122,0,0,0,.905.366l.09.021a3.368,3.368,0,0,1,.955.273.61.61,0,0,1,.3.551c0,.451-.359.72-.961.72a1.063,1.063,0,0,1-.876-.354.864.864,0,0,1-.167-.529Zm-10.212,0-.864.09a2.044,2.044,0,0,0,.114.5,1.406,1.406,0,0,0,.529.685,2.419,2.419,0,0,0,1.259.312,1.98,1.98,0,0,0,1.435-.456,1.4,1.4,0,0,0,.377-1.02,1.183,1.183,0,0,0-.5-1.032,2.666,2.666,0,0,0-.979-.365l-.009,0a5.058,5.058,0,0,1-.836-.215.569.569,0,0,1-.408-.546c0-.39.352-.653.876-.653a.952.952,0,0,1,.75.288.777.777,0,0,1,.18.426l.858-.1a1.635,1.635,0,0,0-.294-.7,1.771,1.771,0,0,0-1.495-.606c-1.035,0-1.7.539-1.7,1.374a1.174,1.174,0,0,0,.463.972,2.122,2.122,0,0,0,.9.366l.08.019a3.389,3.389,0,0,1,.964.275.608.608,0,0,1,.3.551c0,.451-.359.72-.961.72a1.066,1.066,0,0,1-.876-.354.866.866,0,0,1-.167-.529Zm7.9-2.287h0c-.006.087-.022.377-.047.907v1.991a5.505,5.505,0,0,1-.048.876h.84a5.234,5.234,0,0,1-.048-.876V150.5a6.257,6.257,0,0,1,.048-.889h-1.1a3.373,3.373,0,0,1-.216.715l-1.213,2.975-1.217-2.975a4.1,4.1,0,0,1-.222-.715h-1.1a5.753,5.753,0,0,1,.048.889v3.012a5.472,5.472,0,0,1-.048.876h.841a5.5,5.5,0,0,1-.048-.876v-1.967c0-.134-.024-.624-.048-.943a6.633,6.633,0,0,0,.307.919l.863,2.057a4.06,4.06,0,0,1,.265.81h.708a4.931,4.931,0,0,1,.265-.8l.9-2.113A7.167,7.167,0,0,0-5037.731,150.609Z" transform="translate(5051 -143.999)" fill="#fff"/>
  </g>
</svg>
