<?xml version="1.0" encoding="UTF-8"?>
<svg width="18px" height="18px" viewBox="0 0 18 18" version="1.1" xmlns="http://www.w3.org/2000/svg" xmlns:xlink="http://www.w3.org/1999/xlink">
    <!-- Generator: Sketch 50.2 (55047) - http://www.bohemiancoding.com/sketch -->
    <title>モニター copy</title>
    <desc>Created with Sketch.</desc>
    <defs>
        <polygon id="path-1" points="8.99991 18 0 18 0 0 8.99991 0 17.99982 0 17.99982 18"></polygon>
    </defs>
    <g id="Symbols" stroke="none" stroke-width="1" fill="none" fill-rule="evenodd">
        <g id="contents/機能紹介" transform="translate(-482.000000, -336.000000)">
            <g id="contents">
                <g transform="translate(102.000000, 104.000000)">
                    <g id="text_2" transform="translate(380.000000, 231.000000)">
                        <g id="icon/1" transform="translate(0.000000, 1.000000)">
                            <g id="Page-1">
                                <mask id="mask-2" fill="white">
                                    <use xlink:href="#path-1"></use>
                                </mask>
                                <g id="Clip-2"></g>
                                <path d="M11.69982,8.1 C11.69982,8.5968 11.29662,9 10.79982,9 L7.19982,9 C6.70302,9 6.29982,8.5968 6.29982,8.1 C6.29982,7.6023 6.70302,7.2 7.19982,7.2 L10.79982,7.2 C11.29662,7.2 11.69982,7.6023 11.69982,8.1 L11.69982,8.1 Z M7.19982,3.6 L10.79982,3.6 C11.29662,3.6 11.69982,4.0023 11.69982,4.5 C11.69982,4.9968 11.29662,5.4 10.79982,5.4 L7.19982,5.4 C6.70302,5.4 6.29982,4.9968 6.29982,4.5 C6.29982,4.0023 6.70302,3.6 7.19982,3.6 L7.19982,3.6 Z M14.39982,3.6 L14.39982,1.8 C15.39252,1.8 16.19982,2.6073 16.19982,3.6 L14.39982,3.6 Z M12.59982,14.4 C12.59982,15.3927 11.79252,16.2 10.79982,16.2 L10.79982,14.4 C10.79982,13.4064 9.99432,12.6 8.99982,12.6 L5.39982,12.6 L5.39982,3.6 C5.39982,2.6064 6.20622,1.8 7.19982,1.8 L12.59982,1.8 L12.59982,14.4 Z M8.99982,16.2 L3.59982,16.2 C2.60712,16.2 1.79982,15.3927 1.79982,14.4 L8.09982,14.4 C8.59662,14.4 8.99982,14.8023 8.99982,15.3 L8.99982,16.2 Z M14.39982,0 L7.19982,0 C5.21172,0 3.59982,1.6119 3.59982,3.6 L3.59982,12.6 L0.89982,12.6 C0.40302,12.6 -0.00018,13.0023 -0.00018,13.5 L-0.00018,14.4 C-0.00018,16.3881 1.61172,18 3.59982,18 L10.79982,18 C12.78792,18 14.39982,16.3881 14.39982,14.4 L14.39982,5.4 L17.09982,5.4 C17.59662,5.4 17.99982,4.9968 17.99982,4.5 L17.99982,3.6 C17.99982,1.6119 16.38792,0 14.39982,0 L14.39982,0 Z" id="Fill-1" fill="#FFAA00" mask="url(#mask-2)"></path>
                            </g>
                        </g>
                    </g>
                </g>
            </g>
        </g>
    </g>
</svg>