<svg xmlns="http://www.w3.org/2000/svg" width="13.137" height="11.4" viewBox="0 0 13.137 11.4"><defs><style>.a{fill:#fff;}</style></defs><g transform="translate(-137.744 -435.893)"><path class="a" d="M147.246,444.576a1.272,1.272,0,0,0,1.272-1.272v-6.14a1.272,1.272,0,0,0-2.544,0v6.14A1.272,1.272,0,0,0,147.246,444.576Z" transform="translate(-2.819)"/><path class="a" d="M149.187,446.758a.329.329,0,1,0-.658,0,2.013,2.013,0,1,1-4.025,0,.329.329,0,1,0-.658,0,2.666,2.666,0,0,0,2.341,2.637v.849h-1.435a.329.329,0,1,0,0,.658h3.528a.329.329,0,1,0,0-.658h-1.435V449.4A2.665,2.665,0,0,0,149.187,446.758Z" transform="translate(-2.09 -3.608)"/><path class="a" d="M157.053,439.995a.329.329,0,0,0-.329.329v2.624a.329.329,0,0,0,.658,0v-2.624A.329.329,0,0,0,157.053,439.995Z" transform="translate(-6.5 -1.405)"/><path class="a" d="M153.07,439.995a.329.329,0,0,0-.329.329v2.624a.329.329,0,0,0,.658,0v-2.624A.329.329,0,0,0,153.07,439.995Z" transform="translate(-5.136 -1.405)"/><path class="a" d="M155.061,438.5a.328.328,0,0,0-.329.329v4.592a.329.329,0,1,0,.658,0v-4.592A.328.328,0,0,0,155.061,438.5Z" transform="translate(-5.818 -0.893)"/><path class="a" d="M151.078,443.044a.329.329,0,0,0,.329-.329v-1.65a.329.329,0,1,0-.658,0v1.65A.329.329,0,0,0,151.078,443.044Z" transform="translate(-4.454 -1.659)"/><path class="a" d="M138.073,439.995a.328.328,0,0,0-.329.329v2.624a.329.329,0,0,0,.658,0v-2.624A.329.329,0,0,0,138.073,439.995Z" transform="translate(0 -1.405)"/><path class="a" d="M142.056,439.995a.329.329,0,0,0-.329.329v2.624a.329.329,0,0,0,.658,0v-2.624A.329.329,0,0,0,142.056,439.995Z" transform="translate(-1.364 -1.405)"/><path class="a" d="M140.064,438.5a.328.328,0,0,0-.329.329v4.592a.329.329,0,1,0,.658,0v-4.592A.328.328,0,0,0,140.064,438.5Z" transform="translate(-0.682 -0.893)"/><path class="a" d="M144.047,443.044a.328.328,0,0,0,.329-.329v-1.65a.329.329,0,1,0-.658,0v1.65A.329.329,0,0,0,144.047,443.044Z" transform="translate(-2.046 -1.659)"/></g></svg>