<svg xmlns="http://www.w3.org/2000/svg" width="32" height="32" viewBox="0 0 32 32"><defs><style>.a{fill:#585858;}.b{fill:#fff;}</style></defs><circle class="a" cx="16" cy="16" r="16"/><g transform="translate(9 9)"><path class="b" d="M430.024-767.627l6.414-6.414a.351.351,0,0,0,0-.5.351.351,0,0,0-.5,0l-6.414,6.414-6.414-6.414a.351.351,0,0,0-.5,0,.351.351,0,0,0,0,.5l6.414,6.414-6.414,6.414a.351.351,0,0,0,0,.5.35.35,0,0,0,.248.1.35.35,0,0,0,.248-.1l6.414-6.414,6.414,6.414a.35.35,0,0,0,.248.1.35.35,0,0,0,.248-.1.351.351,0,0,0,0-.5Z" transform="translate(-422.516 774.64)"/></g></svg>