<?xml version="1.0" encoding="UTF-8"?>
<svg width="32px" height="29px" viewBox="0 0 32 29" version="1.1" xmlns="http://www.w3.org/2000/svg" xmlns:xlink="http://www.w3.org/1999/xlink">
    <!-- Generator: Sketch 50.2 (55047) - http://www.bohemiancoding.com/sketch -->
    <title>113 1</title>
    <desc>Created with Sketch.</desc>
    <defs></defs>
    <g id="Page-1" stroke="none" stroke-width="1" fill="none" fill-rule="evenodd">
        <g id="safari-home-screen-copy-50" transform="translate(-329.000000, -240.000000)" fill="#FFFFFF">
            <g id="sidetools" transform="translate(317.000000, 72.000000)">
                <g id="mic" transform="translate(1.000000, 160.000000)">
                    <g id="113" transform="translate(11.000000, 8.000000)">
                        <g id="Shape">
                            <path d="M13.7152,0.286109756 C9.61635556,0.286109756 6.28231111,3.60342683 6.28231111,7.67969512 C6.28231111,11.7563171 9.61635556,15.0732805 13.7152,15.0732805 C17.8140444,15.0732805 21.1480889,11.7563171 21.1480889,7.67969512 C21.1480889,3.60307317 17.8140444,0.286109756 13.7152,0.286109756 Z M13.7152,13.9270732 C10.2520889,13.9270732 7.43431111,11.1243293 7.43431111,7.67969512 C7.43431111,4.23506098 10.2520889,1.43267073 13.7152,1.43267073 C17.1779556,1.43267073 19.9957333,4.23506098 19.9957333,7.67969512 C19.9957333,11.1243293 17.1779556,13.9270732 13.7152,13.9270732 Z" fill-rule="nonzero"></path>
                            <path d="M13.7152,17.7158171 C2.464,17.7158171 0,23.2827561 0,25.4273415 C0,27.4838659 1.70488889,28.7138902 3.3536,28.7138902 L24.0764444,28.7138902 C25.7248,28.7138902 27.4300444,27.4838659 27.4300444,25.4273415 C27.4296889,23.2827561 24.9664,17.7158171 13.7152,17.7158171 Z M24.0764444,27.5673293 L3.3536,27.5673293 C2.28622222,27.5673293 1.15235556,26.8175732 1.15235556,25.4273415 C1.15235556,23.724122 3.46026667,18.8620244 13.7152,18.8620244 C23.9697778,18.8620244 26.2776889,23.724122 26.2776889,25.4273415 C26.2773333,26.8175732 25.1434667,27.5673293 24.0764444,27.5673293 Z" fill-rule="nonzero"></path>
                            <path d="M31.424,10.8958659 L28.0049778,10.8958659 L28.0049778,7.49543902 C28.0049778,7.17856098 27.7472,6.92215854 27.4286222,6.92215854 C27.1100444,6.92215854 26.8526222,7.17856098 26.8526222,7.49543902 L26.8526222,10.8958659 L23.4339556,10.8958659 C23.1153778,10.8958659 22.8579556,11.1522683 22.8579556,11.4687927 C22.8579556,11.7853171 23.1157333,12.0420732 23.4339556,12.0420732 L26.8526222,12.0420732 L26.8526222,15.4421463 C26.8526222,15.7590244 27.1104,16.0154268 27.4286222,16.0154268 C27.7472,16.0154268 28.0049778,15.7586707 28.0049778,15.4421463 L28.0049778,12.0420732 L31.424,12.0420732 C31.7425778,12.0420732 32,11.7853171 32,11.4687927 C32,11.1522683 31.7422222,10.8958659 31.424,10.8958659 Z" fill-rule="nonzero"></path>
                        </g>
                    </g>
                </g>
            </g>
        </g>
    </g>
</svg>