<?xml version="1.0" encoding="UTF-8"?>
<svg width="20px" height="19px" viewBox="0 0 20 19" version="1.1" xmlns="http://www.w3.org/2000/svg" xmlns:xlink="http://www.w3.org/1999/xlink">
    <!-- Generator: Sketch 50.2 (55047) - http://www.bohemiancoding.com/sketch -->
    <title>共通/1px/connect copy</title>
    <desc>Created with Sketch.</desc>
    <defs></defs>
    <g id="Page-1" stroke="none" stroke-width="1" fill="none" fill-rule="evenodd">
        <g id="safari-home-screen-copy-48" transform="translate(-45.000000, -343.000000)" fill="#FFAA00">
            <g id="Group-2" transform="translate(0.000000, 237.000000)">
                <g id="接続履歴/内容" transform="translate(12.000000, 72.000000)">
                    <g id="共通/1px/connect-copy" transform="translate(33.000000, 34.000000)">
                        <g id="meet-in/1px/connect">
                            <g id="icon" fill-rule="nonzero">
                                <g id="Group">
                                    <path d="M19.5,1.2521 C19.224,1.2521 19,1.4649 19,1.72805 L19,5.4321 C17.354,2.128 13.815,0 9.87,0 C5.129,0 0.983,3.1179 0.011,7.41475 C-0.047,7.67125 0.125,7.92395 0.395,7.98 C0.43,7.98665 0.466,7.99045 0.501,7.99045 C0.731,7.99045 0.939,7.83845 0.989,7.61425 C1.862,3.75345 5.597,0.9519 9.87,0.9519 C13.503,0.9519 16.761,2.9412 18.2,6.0211 L14.352,6.0211 C14.076,6.0211 13.852,6.2339 13.852,6.49705 C13.852,6.7602 14.076,6.973 14.352,6.973 L19.5,6.973 C19.776,6.973 20,6.7602 20,6.49705 L20,1.72805 C20,1.4649 19.776,1.2521 19.5,1.2521 Z" id="Shape"></path>
                                    <path d="M19.605,11.02095 C19.335,10.96395 19.069,11.12925 19.011,11.38575 C18.137,15.24655 14.403,18.04905 10.13,18.04905 C6.497,18.04905 3.238,16.05975 1.8,12.97985 L5.648,12.97985 C5.924,12.97985 6.148,12.76705 6.148,12.5039 C6.148,12.24075 5.924,12.02795 5.648,12.02795 L0.5,12.02795 C0.224,12.02795 0,12.24075 0,12.5039 L0,17.27195 C0,17.5351 0.224,17.7479 0.5,17.7479 C0.776,17.7479 1,17.5351 1,17.27195 L1,13.56885 C2.646,16.872 6.185,19 10.13,19 C14.871,19 19.017,15.8821 19.988,11.58525 C20.047,11.32875 19.875,11.07605 19.605,11.02095 Z" id="Shape"></path>
                                </g>
                            </g>
                        </g>
                    </g>
                </g>
            </g>
        </g>
    </g>
</svg>