<?xml version="1.0" encoding="UTF-8"?>
<svg width="57px" height="57px" viewBox="0 0 57 57" version="1.1" xmlns="http://www.w3.org/2000/svg" xmlns:xlink="http://www.w3.org/1999/xlink">
    <!-- Generator: Sketch 51.3 (57544) - http://www.bohemiancoding.com/sketch -->
    <title>Group 2</title>
    <desc>Created with Sketch.</desc>
    <defs></defs>
    <g id="Page-1" stroke="none" stroke-width="1" fill="none" fill-rule="evenodd">
        <g id="対話画面/複数人/6人/資料共有" transform="translate(-88.000000, -589.000000)">
            <g id="対話画面/フッター/ビデオ_マイクON" transform="translate(0.000000, 567.000000)">
                <g id="Group" transform="translate(17.000000, 22.000000)">
                    <g id="Group-2" transform="translate(71.000000, 0.000000)">
                        <circle id="Oval-Copy" fill="#FFFFFF" cx="28.5" cy="28.5" r="28.5"></circle>
                        <g id="meet-in/1px/microphone" transform="translate(16.921875, 14.250000)" fill="#36A0D4" fill-rule="nonzero">
                            <g id="icon">
                                <g id="Group">
                                    <path d="M22.5439453,11.1302297 C22.1291367,11.1302297 21.7924805,11.4594047 21.7924805,11.8649953 L21.7924805,14.4866391 C21.7924805,19.3610742 17.9209336,23.3273391 13.1626582,23.3273391 L10.8842168,23.3273391 C6.12594141,23.3273391 2.25439453,19.3610742 2.25439453,14.4866391 L2.25439453,11.8649953 C2.25439453,11.4594047 1.91773828,11.1302297 1.50292969,11.1302297 C1.08812109,11.1302297 0.751464844,11.4594047 0.751464844,11.8649953 L0.751464844,14.4866391 C0.751464844,20.1722555 5.29632422,24.7968703 10.8842168,24.7968703 L11.2719727,24.7968703 L11.2719727,27.9210938 L5.42557617,27.9210938 C5.01076758,27.9210938 4.67411133,28.2502688 4.67411133,28.6558594 C4.67411133,29.06145 5.01076758,29.390625 5.42557617,29.390625 L18.6197959,29.390625 C19.0346045,29.390625 19.3712607,29.06145 19.3712607,28.6558594 C19.3712607,28.2502688 19.0346045,27.9210938 18.6197959,27.9210938 L12.7749023,27.9210938 L12.7749023,24.7968703 L13.1626582,24.7968703 C18.7505508,24.7968703 23.2954102,20.1722555 23.2954102,14.4866391 L23.2954102,11.8649953 C23.2954102,11.4594047 22.9587539,11.1302297 22.5439453,11.1302297 Z" id="Shape"></path>
                                    <path d="M12.0234375,20.6380969 C15.8002998,20.6380969 18.873791,17.6329055 18.873791,13.9399734 L18.873791,6.69812344 C18.873791,3.00519141 15.8002998,0 12.0234375,0 C8.24507227,0 5.17308398,3.00519141 5.17308398,6.69812344 L5.17308398,13.9399734 C5.17308398,17.634375 8.24507227,20.6380969 12.0234375,20.6380969 Z M6.67601367,6.69812344 C6.67601367,3.81490312 9.07468945,1.46953125 12.0234375,1.46953125 C14.9721855,1.46953125 17.3708613,3.81490312 17.3708613,6.69812344 L17.3708613,13.9399734 C17.3708613,16.8231938 14.9721855,19.1685656 12.0234375,19.1685656 C9.07468945,19.1685656 6.67451074,16.8231938 6.67451074,13.9399734 L6.67451074,6.69812344 L6.67601367,6.69812344 Z" id="Shape"></path>
                                </g>
                            </g>
                        </g>
                    </g>
                </g>
            </g>
        </g>
    </g>
</svg>