<?xml version="1.0" encoding="UTF-8"?>
<svg width="57px" height="57px" viewBox="0 0 57 57" version="1.1" xmlns="http://www.w3.org/2000/svg" xmlns:xlink="http://www.w3.org/1999/xlink">
    <!-- Generator: Sketch 51.3 (57544) - http://www.bohemiancoding.com/sketch -->
    <title>Group</title>
    <desc>Created with Sketch.</desc>
    <defs></defs>
    <g id="Page-1" stroke="none" stroke-width="1" fill="none" fill-rule="evenodd">
        <g id="対話画面/複数人/6人/資料共有" transform="translate(-17.000000, -589.000000)">
            <g id="対話画面/フッター/ビデオ_マイクON" transform="translate(0.000000, 567.000000)">
                <g id="Group" transform="translate(17.000000, 22.000000)">
                    <g>
                        <circle id="Oval-Copy-2" fill="#FFFFFF" cx="28.5" cy="28.5" r="28.5"></circle>
                        <g id="meet-in/1px/video" transform="translate(14.250000, 16.921875)" fill="#36A0D4" fill-rule="nonzero">
                            <g id="icon">
                                <path d="M28.9835648,0.686838867 C28.7337445,0.560592773 28.4354297,0.587645508 28.2135305,0.760482422 L20.6616094,6.58583789 L20.6616094,1.35864844 C20.6616094,0.943839844 20.3324344,0.607183594 19.9268437,0.607183594 L0.734765625,0.607183594 C0.329175,0.607183594 0,0.943839844 0,1.35864844 L0,22.3996641 C0,22.8144727 0.329175,23.1511289 0.734765625,23.1511289 L19.9268437,23.1511289 C20.3324344,23.1511289 20.6616094,22.8144727 20.6616094,22.3996641 L20.6616094,17.7255527 L28.2414516,23.020374 C28.3663617,23.1075439 28.5118453,23.1511289 28.6558594,23.1511289 C28.7734219,23.1511289 28.8909844,23.1225732 28.9982602,23.063959 C29.2407328,22.934707 29.390625,22.679209 29.390625,22.3996641 L29.390625,1.35864844 C29.390625,1.07459473 29.2333852,0.814587891 28.9835648,0.686838867 Z M27.9210938,20.9763896 L20.3412516,15.6815684 C20.1149437,15.5252637 19.8239766,15.5087314 19.5829734,15.6379834 C19.3419703,15.7687383 19.1906086,16.0242363 19.1906086,16.3022783 L19.1906086,21.6497021 L1.46953125,21.6497021 L1.46953125,2.11161621 L19.1920781,2.11161621 L19.1920781,8.0947793 C19.1920781,8.37883301 19.349318,8.64034277 19.5991383,8.7680918 C19.8474891,8.89433789 20.1472734,8.86728516 20.3691727,8.69444824 L27.9210938,2.86758984 L27.9210938,20.9763896 Z" id="Shape"></path>
                            </g>
                        </g>
                    </g>
                </g>
            </g>
        </g>
    </g>
</svg>