<?xml version="1.0" encoding="UTF-8"?>
<svg width="57px" height="57px" viewBox="0 0 57 57" version="1.1" xmlns="http://www.w3.org/2000/svg" xmlns:xlink="http://www.w3.org/1999/xlink">
    <!-- Generator: Sketch 51.3 (57544) - http://www.bohemiancoding.com/sketch -->
    <title>Group 4</title>
    <desc>Created with Sketch.</desc>
    <defs></defs>
    <g id="Page-1" stroke="none" stroke-width="1" fill="none" fill-rule="evenodd">
        <g id="対話画面/複数人/6人/資料共有" transform="translate(-230.000000, -589.000000)">
            <g id="対話画面/フッター/ビデオ_マイクON" transform="translate(0.000000, 567.000000)">
                <g id="Group" transform="translate(17.000000, 22.000000)">
                    <g id="Group-4" transform="translate(213.000000, 0.000000)">
                        <circle id="Oval-Copy-2" fill="#FFFFFF" cx="28.5" cy="28.5" r="28.5"></circle>
                        <g id="meet-in/1px/pen" transform="translate(16.466667, 13.933333)" fill="#36A0D4" fill-rule="nonzero">
                            <g id="icon">
                                <path d="M23.899346,7.106 L18.2219048,0.20482 C17.9984286,-0.06688 17.6351365,-0.06688 17.4116603,0.20482 L2.66566984,18.1314467 C2.58430159,18.2303733 2.52929206,18.3557733 2.50751746,18.49232 L1.1552,27.0376333 C1.11967302,27.2647467 1.17926667,27.4988267 1.31335238,27.6618467 C1.4222254,27.7942133 1.56891746,27.8666667 1.71904762,27.8666667 C1.7545746,27.8666667 1.79124762,27.8624867 1.8267746,27.8541267 L8.8553873,26.2099933 C8.96884444,26.18352 9.07084127,26.11664 9.15220952,26.0177133 L23.899346,8.09108667 C24.1228222,7.81799333 24.1228222,7.3777 23.899346,7.106 Z M3.55842857,19.23218 L8.24799048,24.9337 L2.44104762,26.2922 L3.55842857,19.23218 Z M9.14647937,24.0559 L4.28042857,18.1398067 L17.8173556,1.68175333 L22.6845524,7.59784667 L9.14647937,24.0559 Z" id="Shape"></path>
                            </g>
                        </g>
                    </g>
                </g>
            </g>
        </g>
    </g>
</svg>