<?xml version="1.0" encoding="UTF-8"?>
<svg width="57px" height="57px" viewBox="0 0 57 57" version="1.1" xmlns="http://www.w3.org/2000/svg" xmlns:xlink="http://www.w3.org/1999/xlink">
    <!-- Generator: Sketch 51.3 (57544) - http://www.bohemiancoding.com/sketch -->
    <title>Group 3</title>
    <desc>Created with Sketch.</desc>
    <defs>
        <polygon id="path-1" points="0 24.1482692 24.1480769 24.1482692 24.1480769 0.000192307692 0 0.000192307692"></polygon>
    </defs>
    <g id="Page-1" stroke="none" stroke-width="1" fill="none" fill-rule="evenodd">
        <g id="対話画面/複数人/6人/資料共有" transform="translate(-301.000000, -589.000000)">
            <g id="対話画面/フッター/ビデオ_マイクON" transform="translate(0.000000, 567.000000)">
                <g id="Group" transform="translate(17.000000, 22.000000)">
                    <g id="Group-3" transform="translate(284.000000, 0.000000)">
                        <circle id="Oval" fill="#36A0D4" cx="28.5" cy="28.5" r="28.5"></circle>
                        <g id="共通/icon/close" transform="translate(16.031250, 17.031250)">
                            <g id="Page-1">
                                <mask id="mask-2" fill="white">
                                    <use xlink:href="#path-1"></use>
                                </mask>
                                <g id="Clip-2"></g>
                                <path d="M15.93,12.0736538 L23.3511538,4.6525 C24.4146154,3.58711538 24.4146154,1.86211538 23.3511538,0.796730769 C22.2857692,-0.266730769 20.5607692,-0.266730769 19.4953846,0.796730769 L12.0742308,8.21788462 L4.65307692,0.796730769 C3.58961538,-0.266730769 1.86269231,-0.266730769 0.797307692,0.796730769 C-0.266153846,1.86211538 -0.266153846,3.58711538 0.797307692,4.6525 L8.21846154,12.0736538 L0.797307692,19.4948077 C-0.266153846,20.5601923 -0.266153846,22.2851923 0.797307692,23.3505769 C1.33,23.8813462 2.02807692,24.1486538 2.72615385,24.1486538 C3.42423077,24.1486538 4.12038462,23.8813462 4.65307692,23.3505769 L12.0742308,15.9294231 L19.4953846,23.3505769 C20.0280769,23.8813462 20.7261538,24.1486538 21.4223077,24.1486538 C22.1203846,24.1486538 22.8184615,23.8813462 23.3511538,23.3505769 C24.4146154,22.2851923 24.4146154,20.5601923 23.3511538,19.4948077 L15.93,12.0736538 Z" id="Fill-1" fill="#FFFFFF" mask="url(#mask-2)"></path>
                            </g>
                        </g>
                    </g>
                </g>
            </g>
        </g>
    </g>
</svg>