<?xml version="1.0" encoding="UTF-8"?>
<svg width="50px" height="50px" viewBox="0 0 50 50" version="1.1" xmlns="http://www.w3.org/2000/svg" xmlns:xlink="http://www.w3.org/1999/xlink">
    <!-- Generator: Sketch 51.3 (57544) - http://www.bohemiancoding.com/sketch -->
    <title>Group 2</title>
    <desc>Created with Sketch.</desc>
    <defs></defs>
    <g id="Page-1" stroke="none" stroke-width="1" fill="none" fill-rule="evenodd">
        <g id="対話画面/複数人/6人/ビデオOFF_メニュー非表示" transform="translate(-40.000000, -89.000000)">
            <g id="全画面表示_1人">
                <g id="function/parts/マイクOFF" transform="translate(65.000000, 114.000000) rotate(-360.000000) translate(-65.000000, -114.000000) translate(40.000000, 89.000000)">
                    <g id="Group-2">
                        <circle id="Oval-5" fill="#36A0D4" cx="25" cy="25" r="25"></circle>
                        <g id="共通/1px/microphone-off-copy" transform="translate(11.111111, 8.333333)" fill="#FFFFFF">
                            <g id="meet-in/1px/microphone-off">
                                <g id="icon" fill-rule="nonzero">
                                    <g id="Group">
                                        <path d="M5.34275,24.5916 C5.5825,24.5916 5.81875,24.4992 5.99375,24.31935 C6.3175,23.97945 6.28775,23.4597 5.929,23.1528 C3.82725,21.36585 2.6215,18.81825 2.6215,16.15845 L2.6215,13.3518 C2.6215,12.8964 2.2295,12.5268 1.7465,12.5268 C1.2635,12.5268 0.8715,12.8964 0.8715,13.3518 L0.8715,16.15845 C0.8715,19.28355 2.28725,22.27995 4.7565,24.37875 C4.9245,24.52065 5.1345,24.5916 5.34275,24.5916 Z" id="Shape"></path>
                                        <path d="M26.2465,12.5268 C25.7635,12.5268 25.3715,12.8964 25.3715,13.3518 L25.3715,16.15845 C25.3715,21.3576 20.8635,25.5882 15.32125,25.5882 L12.21675,25.5882 C11.73375,25.5882 11.34175,25.9578 11.34175,26.4132 C11.34175,26.8686 11.73375,27.2382 12.21675,27.2382 L13.1215,27.2382 L13.1215,30.5085 L9.5095,30.5085 C9.0265,30.5085 8.6345,30.8781 8.6345,31.3335 C8.6345,31.7889 9.0265,32.1585 9.5095,32.1585 L21.679,32.1585 C22.162,32.1585 22.554,31.7889 22.554,31.3335 C22.554,30.8781 22.162,30.5085 21.679,30.5085 L14.8715,30.5085 L14.8715,27.2382 L15.32125,27.2382 C21.82775,27.2382 27.1215,22.26675 27.1215,16.15845 L27.1215,13.3518 C27.1215,12.8964 26.73125,12.5268 26.2465,12.5268 Z" id="Shape"></path>
                                        <path d="M8.10775,19.84785 C8.281,19.84785 8.45425,19.8 8.6065,19.69935 C9.00375,19.43865 9.10175,18.9255 8.82525,18.55095 C8.134,17.6154 7.76825,16.52145 7.76825,15.3879 L7.76825,8.3721 C7.76825,5.2437 10.56125,2.69775 13.9965,2.69775 C14.609,2.69775 15.211,2.77695 15.7885,2.93535 C16.254,3.06735 16.73875,2.80995 16.87175,2.3727 C17.0065,1.93545 16.73875,1.4784 16.275,1.35135 C15.54,1.15005 14.77175,1.04775 13.99475,1.04775 C9.59525,1.04775 6.0165,4.3329 6.0165,8.3721 L6.0165,15.3879 C6.0165,16.8597 6.49075,18.2787 7.38675,19.4931 C7.56,19.7241 7.83125,19.84785 8.10775,19.84785 Z" id="Shape"></path>
                                        <path d="M20.223,11.37345 L20.223,15.2955 C20.223,18.51795 17.43,21.13815 13.9965,21.13815 C13.5135,21.13815 13.1215,21.50775 13.1215,21.96315 C13.1215,22.41855 13.5135,22.78815 13.9965,22.78815 C18.39425,22.78815 21.973,19.4271 21.973,15.2955 L21.973,11.37345 C21.973,10.91805 21.581,10.54845 21.098,10.54845 C20.615,10.54845 20.223,10.9164 20.223,11.37345 Z" id="Shape"></path>
                                        <path d="M11.508,21.6051 L23.05275,1.21275 C23.28025,0.81015 23.11925,0.31185 22.69225,0.09735 C22.26875,-0.11715 21.73675,0.03465 21.50925,0.43725 L9.9645,20.8296 L7.511,25.16415 L3.7625,31.78725 C3.535,32.18985 3.696,32.68815 4.123,32.90265 C4.2525,32.96865 4.3925,33 4.5325,33 C4.84575,33 5.1485,32.8416 5.30425,32.56275 L9.05275,25.93965 L11.508,21.6051 Z" id="Shape"></path>
                                    </g>
                                </g>
                            </g>
                        </g>
                    </g>
                </g>
            </g>
        </g>
    </g>
</svg>