<?xml version="1.0" encoding="UTF-8"?>
<svg width="46px" height="48px" viewBox="0 0 46 48" version="1.1" xmlns="http://www.w3.org/2000/svg" xmlns:xlink="http://www.w3.org/1999/xlink">
    <!-- Generator: Sketch 51.3 (57544) - http://www.bohemiancoding.com/sketch -->
    <title>pen1__Icon</title>
    <desc>Created with Sketch.</desc>
    <defs></defs>
    <g id="Page-1" stroke="none" stroke-width="1" fill="none" fill-rule="evenodd">
        <g id="対話画面/ホワイトボード/表示" transform="translate(-316.000000, -140.000000)">
            <g id="Oval-7-Copy-2" transform="translate(6.000000, 82.000000)">
                <g id="pen1__Icon" transform="translate(312.000000, 60.000000)">
                    <ellipse id="Oval" stroke="#36A0D4" stroke-width="3" cx="21.1864407" cy="22.1481481" rx="21.1864407" ry="22.1481481"></ellipse>
                    <path d="M26.3540958,29.1707408 C26.3540958,29.1707408 27.8314165,29.3521447 27.7456618,28.0084903 C27.3643059,22.0021235 26.2923729,16.1708325 23.3590597,10.8974639 C22.2487893,8.90096652 21.1430589,8.91889597 20.0226998,10.9470335 C17.1489104,16.1476297 16.0734463,21.8903281 15.6784705,27.8054656 C15.6239911,28.6154551 15.6969287,29.1707408 16.7959689,29.1707408 C17.1249766,29.1707408 26.3540958,29.1707408 26.3540958,29.1707408 Z" id="Fill-91" fill="#B2B2B2" fill-rule="nonzero"></path>
                    <path d="M25.8496567,29.1707408 C25.8496567,29.1707408 27.3269774,29.3521447 27.2412228,28.0084903 C26.8598668,22.0021235 25.7879338,16.1708325 22.8546207,10.8974639 C21.7443503,8.90096652 20.6386199,8.91889597 19.5182607,10.9470335 C16.6444713,16.1476297 15.5690073,21.8903281 15.1740315,27.8054656 C15.1195521,28.6154551 15.1924896,29.1707408 16.2915299,29.1707408 C16.6205375,29.1707408 25.8496567,29.1707408 25.8496567,29.1707408 Z" id="Fill-91-Copy" fill="#B2B2B2" fill-rule="nonzero" transform="translate(21.202960, 19.295923) scale(-1, 1) translate(-21.202960, -19.295923) "></path>
                    <path d="M15.6855327,31.64606 C13.7368846,31.6703175 12.6054278,32.8315133 12.6765537,34.7320353 C12.7582728,36.9320847 11.4341203,39.72697 14.8103309,40.863381 C18.4902139,42.1015679 22.1463882,42.5698431 25.9412833,41.6417302 C30.6739306,40.4847531 31.1112793,39.9110106 30.8020581,34.9993951 C30.6749395,32.9775856 29.8310129,31.6861376 27.7305287,31.6465873 C23.7156981,31.64606 19.7003632,31.64606 15.6855327,31.64606 Z" id="Path" fill="#B2B2B2" fill-rule="nonzero"></path>
                    <path d="M15.1810936,31.64606 C13.2324455,31.6703175 12.1009887,32.8315133 12.1721146,34.7320353 C12.2538337,36.9320847 10.9296812,39.72697 14.3058918,40.863381 C17.9857748,42.1015679 21.6419492,42.5698431 25.4368442,41.6417302 C30.1694915,40.4847531 30.6068402,39.9110106 30.297619,34.9993951 C30.1705004,32.9775856 29.3265738,31.6861376 27.2260896,31.6465873 C23.2112591,31.64606 19.1959241,31.64606 15.1810936,31.64606 Z" id="Path-Copy" fill="#B2B2B2" fill-rule="nonzero" transform="translate(21.178799, 36.888238) scale(-1, 1) translate(-21.178799, -36.888238) "></path>
                </g>
            </g>
        </g>
    </g>
</svg>