<?xml version="1.0" encoding="UTF-8"?>
<svg width="46px" height="49px" viewBox="0 0 46 49" version="1.1" xmlns="http://www.w3.org/2000/svg" xmlns:xlink="http://www.w3.org/1999/xlink">
    <!-- Generator: Sketch 51.3 (57544) - http://www.bohemiancoding.com/sketch -->
    <title>pen2__Icon</title>
    <desc>Created with Sketch.</desc>
    <defs></defs>
    <g id="Page-1" stroke="none" stroke-width="1" fill="none" fill-rule="evenodd">
        <g id="対話画面/ホワイトボード/表示" transform="translate(-316.000000, -80.000000)">
            <g id="Oval-7-Copy-2" transform="translate(6.000000, 82.000000)">
                <g id="pen2__Icon" transform="translate(311.000000, 0.000000)">
                    <path d="M16.7744093,36.9767442 L26.85271,36.9767442 C29.9201382,36.9767442 32.40678,39.463386 32.40678,42.5308142 L21.7214566,45.0658733 L11.2203393,42.5308142 C11.2203393,39.463386 13.7069812,36.9767442 16.7744093,36.9767442 Z" id="Rectangle" fill="#B2B2B2" fill-rule="nonzero"></path>
                    <path d="M17.5192367,17.3200806 L22.5614078,13.7129774 C23.9089434,12.7489681 25.7828208,13.0598776 26.7468301,14.4074131 C27.1110654,14.9165576 27.3069011,15.5268908 27.3069011,16.1529064 L27.3069011,32.4365026 L16.26473,32.4365026 L16.26473,19.7600095 C16.26473,18.7919277 16.7318865,17.8833406 17.5192367,17.3200806 Z" id="Rectangle-2" fill="#B2B2B2" fill-rule="nonzero"></path>
                    <path d="M17.2513428,26.8969972 L21.9850681,22 L26.7187934,26.8969972 C28.6380358,28.8824366 28.5843725,32.0478067 26.5989331,33.9670491 C25.666591,34.8683058 24.4205738,35.372093 23.1238373,35.372093 L20.8462988,35.372093 C18.0848751,35.372093 15.8462988,33.1335168 15.8462988,30.372093 C15.8462988,29.0753565 16.3500861,27.8293393 17.2513428,26.8969972 Z" id="Rectangle-3" fill="#B2B2B2" fill-rule="nonzero"></path>
                    <ellipse id="Oval" stroke="#36A0D4" stroke-width="3" cx="21.8135597" cy="22.5348837" rx="21.1864407" ry="22.4651163"></ellipse>
                </g>
            </g>
        </g>
    </g>
</svg>