<?xml version="1.0" encoding="UTF-8"?>
<svg width="44px" height="47px" viewBox="0 0 44 47" version="1.1" xmlns="http://www.w3.org/2000/svg" xmlns:xlink="http://www.w3.org/1999/xlink">
    <!-- Generator: Sketch 50.2 (55047) - http://www.bohemiancoding.com/sketch -->
    <title>Group 2 Copy</title>
    <desc>Created with Sketch.</desc>
    <defs></defs>
    <g id="Page-1" stroke="none" stroke-width="1" fill="none" fill-rule="evenodd">
        <g id="safari-home-screen-copy-56" transform="translate(-324.000000, -140.000000)">
            <g id="Group-2-Copy-2" transform="translate(324.000000, 140.000000)">
                <g id="Group-2-Copy" transform="translate(0.627119, 0.000000)">
                    <ellipse id="Oval" stroke="#B2B2B2" cx="21.1864407" cy="23.5348837" rx="21.1864407" ry="22.4651163"></ellipse>
                    <path d="M16.1472903,37.9767442 L26.225591,37.9767442 C29.2930192,37.9767442 31.779661,40.463386 31.779661,43.5308142 L21.1864407,45.8243133 L10.5932203,43.5308142 L10.5932203,43.5308142 C10.5932203,40.463386 13.0798622,37.9767442 16.1472903,37.9767442 Z" id="Rectangle" fill="#B2B2B2"></path>
                    <path d="M16.8921177,18.3200806 L21.9342888,14.7129774 C23.2818244,13.7489681 25.1557018,14.0598776 26.1197111,15.4074131 C26.4839464,15.9165576 26.6797821,16.5268908 26.6797821,17.1529064 L26.6797821,33.4365026 L15.637611,33.4365026 L15.637611,20.7600095 C15.637611,19.7919277 16.1047675,18.8833406 16.8921177,18.3200806 Z" id="Rectangle-2" fill="#B2B2B2"></path>
                    <path d="M16.6242238,27.8969972 L21.3579491,23 L26.0916744,27.8969972 C28.0109168,29.8824366 27.9572535,33.0478067 25.9718141,34.9670491 C25.039472,35.8683058 23.7934548,36.372093 22.4967183,36.372093 L20.2191798,36.372093 C17.4577561,36.372093 15.2191798,34.1335168 15.2191798,31.372093 C15.2191798,30.0753565 15.7229671,28.8293393 16.6242238,27.8969972 Z" id="Rectangle-3" fill="#B2B2B2"></path>
                </g>
            </g>
        </g>
    </g>
</svg>