<svg xmlns="http://www.w3.org/2000/svg" width="23.432" height="20.333" viewBox="0 0 23.432 20.333"><defs><style>.a{fill:#fa0;}</style></defs><path class="a" d="M148.243,451.381a2.268,2.268,0,0,0,2.268-2.268V438.161a2.269,2.269,0,0,0-4.537,0v10.951A2.269,2.269,0,0,0,148.243,451.381Z" transform="translate(-136.322 -435.893)"/><path class="a" d="M153.372,447.015a.586.586,0,1,0-1.173,0,3.59,3.59,0,0,1-7.18,0,.586.586,0,1,0-1.173,0,4.755,4.755,0,0,0,4.176,4.7v1.514h-2.559a.586.586,0,0,0,0,1.173h6.292a.586.586,0,1,0,0-1.173H149.2v-1.514A4.754,4.754,0,0,0,153.372,447.015Z" transform="translate(-136.69 -434.073)"/><path class="a" d="M157.31,439.995a.587.587,0,0,0-.586.586v4.681a.586.586,0,1,0,1.173,0v-4.681A.587.587,0,0,0,157.31,439.995Z" transform="translate(-134.465 -435.184)"/><path class="a" d="M153.327,439.995a.587.587,0,0,0-.586.586v4.681a.586.586,0,1,0,1.173,0v-4.681A.587.587,0,0,0,153.327,439.995Z" transform="translate(-135.153 -435.184)"/><path class="a" d="M155.318,438.5a.586.586,0,0,0-.586.586v8.191a.586.586,0,0,0,1.173,0v-8.191A.585.585,0,0,0,155.318,438.5Z" transform="translate(-134.809 -435.443)"/><path class="a" d="M151.335,444.852a.587.587,0,0,0,.586-.586v-2.944a.586.586,0,0,0-1.173,0v2.944A.587.587,0,0,0,151.335,444.852Z" transform="translate(-135.497 -435.056)"/><path class="a" d="M138.33,439.995a.586.586,0,0,0-.586.586v4.681a.586.586,0,1,0,1.173,0v-4.681A.587.587,0,0,0,138.33,439.995Z" transform="translate(-137.744 -435.184)"/><path class="a" d="M142.313,439.995a.587.587,0,0,0-.586.586v4.681a.586.586,0,1,0,1.173,0v-4.681A.587.587,0,0,0,142.313,439.995Z" transform="translate(-137.056 -435.184)"/><path class="a" d="M140.321,438.5a.586.586,0,0,0-.586.586v8.191a.586.586,0,0,0,1.173,0v-8.191A.586.586,0,0,0,140.321,438.5Z" transform="translate(-137.4 -435.443)"/><path class="a" d="M144.3,444.852a.586.586,0,0,0,.586-.586v-2.944a.586.586,0,0,0-1.173,0v2.944A.587.587,0,0,0,144.3,444.852Z" transform="translate(-136.712 -435.056)"/></svg>