<svg xmlns="http://www.w3.org/2000/svg" xmlns:xlink="http://www.w3.org/1999/xlink" width="20" height="20" viewBox="0 0 20 20"><defs><style>.a{fill:none;}.b{clip-path:url(#a);}.c{fill:#4eb5a4;}</style><clipPath id="a"><rect class="a" width="20" height="20"/></clipPath></defs><g class="b"><path class="a" d="M0,0H20V20H0Z"/><path class="c" d="M10,2a8,8,0,1,0,8,8A8,8,0,0,0,10,2Zm0,14.4A6.4,6.4,0,1,1,16.4,10,6.408,6.408,0,0,1,10,16.4Zm3.1-9.368-4.7,4.7-1.5-1.5A.8.8,0,1,0,5.768,11.36L7.84,13.432a.8.8,0,0,0,1.128,0L14.24,8.16a.8.8,0,0,0,0-1.128.806.806,0,0,0-1.136,0Z"/></g></svg>