<svg xmlns="http://www.w3.org/2000/svg" width="21.878" height="19.54" viewBox="0 0 21.878 19.54"><defs><style>.a{fill:#fff;}</style></defs><g transform="translate(-721 -72)"><g transform="translate(103 -299.42)"><path class="a" d="M639.583,387.648l-8.731-15.123a2.208,2.208,0,0,0-3.825,0L618.3,387.647a2.209,2.209,0,0,0,1.913,3.313h17.463a2.208,2.208,0,0,0,1.913-3.312Zm-10.644.825a1.367,1.367,0,1,1,1.367-1.368A1.368,1.368,0,0,1,628.939,388.473Zm.843-4.377a.842.842,0,0,1-1.685,0l-.525-6.184a1.368,1.368,0,1,1,2.735,0Z" transform="translate(0 0)"/></g></g></svg>