<svg xmlns="http://www.w3.org/2000/svg" viewBox="0 0 15 15"><defs><style>.cls-1{fill:#b4b4b4;}</style></defs><g id="レイヤー_2" data-name="レイヤー 2"><g id="レイヤー_1-2" data-name="レイヤー 1"><path id="パス_384" data-name="パス 384" class="cls-1" d="M8,7.5,14.89.64a.39.39,0,0,0,0-.53.37.37,0,0,0-.53,0L7.5,7,.64.11a.37.37,0,0,0-.53,0,.37.37,0,0,0,0,.53L7,7.5.11,14.36a.37.37,0,0,0,0,.53A.39.39,0,0,0,.38,15a.36.36,0,0,0,.26-.11L7.5,8l6.86,6.86a.39.39,0,0,0,.27.11.36.36,0,0,0,.26-.11.37.37,0,0,0,0-.53Z"/></g></g></svg>