<svg xmlns="http://www.w3.org/2000/svg" width="25.039" height="19.891" viewBox="0 0 25.039 19.891"><defs><style>.a{fill:none;stroke:#b2b2b2;stroke-linecap:round;stroke-linejoin:round;}.b{fill:#fff;}.c{fill:#e21e1e;}</style></defs><g transform="translate(-3.5 -2.928)"><g transform="translate(-253 -8)"><g transform="translate(256.5 16.5)"><path class="a" d="M9.82.5H.5V13.63H2.65"/><path class="a" d="M7.33,13.63h6.23V9.83l5.94,3.8V.5L13.56,4.7V3.33"/><line class="a" x1="8.17" y2="13.13" transform="translate(4.65 0.5)"/></g><g transform="translate(34 3.928)"><path class="b" d="M625.15,377.705l-2.892-5.857a.683.683,0,0,0-1.267,0l-2.892,5.857a.984.984,0,0,0,0,.855.721.721,0,0,0,.633.428h5.785a.721.721,0,0,0,.634-.428A.984.984,0,0,0,625.15,377.705Z" transform="translate(-379.031 -363.401)"/><g transform="translate(237.46 7)"><path class="c" d="M627.943,378.9l-4.022-6.967a1.017,1.017,0,0,0-1.762,0l-4.022,6.967a1.017,1.017,0,0,0,.881,1.526h8.045a1.017,1.017,0,0,0,.881-1.526Zm-4.9.38a.63.63,0,1,1,.63-.63A.63.63,0,0,1,623.04,379.276Zm.388-2.016a.388.388,0,0,1-.776,0l-.242-2.849a.63.63,0,1,1,1.26,0Z" transform="translate(-618 -371.42)"/></g></g></g></g></svg>