<svg xmlns="http://www.w3.org/2000/svg" width="20" height="20" viewBox="0 0 20 20"><defs><style>.a{opacity:0.488;}.b{fill:none;}.c{fill:#707070;}</style></defs><g class="a"><path class="b" d="M0,0H20V20H0Z"/><path class="c" d="M10,2a8,8,0,1,0,8,8A8,8,0,0,0,10,2Zm0,14.4A6.4,6.4,0,1,1,16.4,10,6.408,6.408,0,0,1,10,16.4Zm-.8-3.2h1.6v1.6H9.2Zm1.288-7.968A3.2,3.2,0,0,0,6.944,7.464a.725.725,0,0,0,.7.936H7.8a.77.77,0,0,0,.7-.536,1.6,1.6,0,0,1,1.84-1.024A1.618,1.618,0,0,1,11.6,8.52c-.08,1.072-1.3,1.3-1.96,2.3,0,.008-.008.008-.008.016s-.016.024-.024.04a2.665,2.665,0,0,0-.2.4c-.008.024-.024.04-.032.064a.51.51,0,0,0-.016.056,2.974,2.974,0,0,0-.16,1h1.6a1.7,1.7,0,0,1,.224-.856c.016-.024.024-.048.04-.072a2.206,2.206,0,0,1,.224-.312c.008-.008.016-.024.024-.032a2.811,2.811,0,0,1,.264-.272c.768-.728,1.808-1.32,1.592-2.848a3.26,3.26,0,0,0-2.68-2.776Z"/></g></svg>