<?xml version="1.0" encoding="UTF-8"?>
<svg xmlns="http://www.w3.org/2000/svg" xmlns:xlink="http://www.w3.org/1999/xlink" width="21px" height="21px" viewBox="0 0 21 21" version="1.1">
<g id="surface1">
<path style="fill-rule:nonzero;fill:rgb(91.764706%,71.764706%,0%);fill-opacity:1;stroke-width:0.6;stroke-linecap:butt;stroke-linejoin:miter;stroke:rgb(13.72549%,9.411765%,8.235294%);stroke-opacity:1;stroke-miterlimit:10;" d="M 11.300074 5.8 C 11.300074 8.838095 8.838095 11.300074 5.8 11.300074 C 2.761905 11.300074 0.299926 8.838095 0.299926 5.8 C 0.299926 2.761905 2.761905 0.299926 5.8 0.299926 C 8.838095 0.299926 11.300074 2.761905 11.300074 5.8 Z M 11.300074 5.8 " transform="matrix(1.810345,0,0,1.810345,0,0)"/>
<path style="fill-rule:nonzero;fill:rgb(91.764706%,71.764706%,0%);fill-opacity:1;stroke-width:0.6;stroke-linecap:butt;stroke-linejoin:miter;stroke:rgb(13.72549%,9.411765%,8.235294%);stroke-opacity:1;stroke-miterlimit:10;" d="M 8.279241 5.8 C 8.279241 7.170164 7.170164 8.279241 5.8 8.279241 C 4.429836 8.279241 3.320759 7.170164 3.320759 5.8 C 3.320759 4.429836 4.429836 3.320759 5.8 3.320759 C 7.170164 3.320759 8.279241 4.429836 8.279241 5.8 Z M 8.279241 5.8 " transform="matrix(1.810345,0,0,1.810345,0,0)"/>
</g>
</svg>
