<svg xmlns="http://www.w3.org/2000/svg" viewBox="0 0 42.52 37.26"><defs><style>.cls-1{fill:#ffab26;}</style></defs><g id="レイヤー_2" data-name="レイヤー 2"><g id="レイヤー_1-2" data-name="レイヤー 1"><path class="cls-1" d="M39.89,2.63h0v32H2.63v-32H39.89Zm0-2.63H2.63A2.62,2.62,0,0,0,0,2.63v32a2.62,2.62,0,0,0,2.63,2.63H39.89a2.62,2.62,0,0,0,2.63-2.63v-32A2.62,2.62,0,0,0,39.89,0Z"/><path class="cls-1" d="M34.48,9.35a3.95,3.95,0,1,1-3.94-3.94A3.93,3.93,0,0,1,34.48,9.35Z"/><path class="cls-1" d="M37.26,32h-32V26.74l9.35-15.93,10.67,13.3h2.63l9.35-8Z"/></g></g></svg>