<svg xmlns="http://www.w3.org/2000/svg" viewBox="0 0 56.69 49.61"><defs><style>.cls-1{fill:#fff;}</style></defs><g id="レイヤー_2" data-name="レイヤー 2"><g id="レイヤー_1-2" data-name="レイヤー 1"><path class="cls-1" d="M53.18,3.61h0V46.2H3.51V3.61H53.18Zm0-3.61H3.51A3.55,3.55,0,0,0,0,3.51V46.1a3.55,3.55,0,0,0,3.51,3.51H53.18a3.55,3.55,0,0,0,3.51-3.51V3.51A3.42,3.42,0,0,0,53.18,0Z"/><path class="cls-1" d="M46.17,12.43a5.36,5.36,0,1,1-5.41-5.31A5.43,5.43,0,0,1,46.17,12.43Z"/><path class="cls-1" d="M49.68,42.69H7.11V35.58L19.53,14.23,33.75,32h3.51L49.68,21.35Z"/></g></g></svg>