<svg xmlns="http://www.w3.org/2000/svg" width="19.93" height="16.046" viewBox="0 0 19.93 16.046"><defs><style>.a{fill:#b1b1b1;}.b{fill:#fff;}</style></defs><g transform="translate(0 0)"><g transform="translate(0 0.007)"><path class="a" d="M6.124,2.744a2.5,2.5,0,0,0-.872,1.441c-.3.959-.039,1.226-.34,1.737a2.435,2.435,0,0,1-1.6.948A2.87,2.87,0,0,1,.1,5.495c-.605-1.586,1.754-3.508,2.03-3.733C4.393-.082,9.2-.006,9.2-.006c4.441.059,6.661.088,8.579,1.7.147.124,2.725,2.339,2.03,3.995A2.667,2.667,0,0,1,17.388,7a2.746,2.746,0,0,1-2.423-1.31,2.442,2.442,0,0,1-.2-.655c-.149-.844.157-1.3-.1-1.785a1.7,1.7,0,0,0-.426-.508,1.572,1.572,0,0,0-.149-.1c-.6-.346-4.895-.095-6.727-.164A2,2,0,0,0,6.124,2.744Z" transform="translate(0 0)"/><path class="a" d="M42.034,42.1c.274.378.034.793,0,1.494-.056,1.176.581,2.071,1.588,3.487a20.914,20.914,0,0,1,2.03,2.554c.18.322.31.6.393.786a4.427,4.427,0,0,1-.262,3.536,2.448,2.448,0,0,1-.924.7,1.929,1.929,0,0,1-.536.117,67.473,67.473,0,0,1-11.576.131c-1.212-.309-1.628-.369-2.1-1.17a4.768,4.768,0,0,1,0-3.444c.377-1.025.732-1.076,2.423-3.25,1.913-2.463,1.628-3.121,1.572-3.64a1.456,1.456,0,0,1,.265-1.3,1.025,1.025,0,0,1,1.31-.131c.327.327-.029.65.319,1.231a34.407,34.407,0,0,0,3.61.013c.318-.562-.174-.917.2-1.244A1.441,1.441,0,0,1,42.034,42.1Z" transform="translate(-28.329 -39.029)"/><circle class="b" cx="3.962" cy="3.962" r="3.962" transform="translate(5.993 6.543)"/></g></g></svg>