<svg xmlns="http://www.w3.org/2000/svg" width="13.225" height="15.297" viewBox="0 0 13.225 15.297"><defs><style>.a{fill:#fff;}</style></defs><path class="a" d="M11.934,15.307H7.758a2.577,2.577,0,0,1-1.843-.784L1.26,9.67,2.58,8.5a1.277,1.277,0,0,1,1.441-.172l1.537.816V3.058A1.6,1.6,0,0,1,7.152,1.464a1.873,1.873,0,0,1,.325.032,1.59,1.59,0,0,1,2.9-.791,1.568,1.568,0,0,1,.6-.115,1.6,1.6,0,0,1,1.594,1.594v.179a1.743,1.743,0,0,1,.319-.032,1.6,1.6,0,0,1,1.594,1.594v8.831A2.55,2.55,0,0,1,11.934,15.307ZM3.1,9.747l3.737,3.89a1.29,1.29,0,0,0,.918.4h4.183a1.279,1.279,0,0,0,1.275-1.275V3.925a.319.319,0,1,0-.638,0v3.73H11.3V2.184a.319.319,0,1,0-.638,0V7.655H9.384V1.6a.319.319,0,1,0-.638,0V7.655H7.471v-4.6a.316.316,0,0,0-.319-.319.32.32,0,0,0-.319.319v8.206L3.422,9.46,3.1,9.747Z" transform="translate(-1.26 -0.01)"/></svg>