<svg xmlns="http://www.w3.org/2000/svg" width="14.722" height="13.559" viewBox="0 0 14.722 13.559"><defs><style>.a,.c,.d{fill:#ffc400;}.b{fill:#d3a838;stroke:#c99328;}.b,.c,.d{stroke-linecap:round;}.b,.c{stroke-linejoin:round;}.c,.d{stroke:#ffaf00;}.d{stroke-miterlimit:10;}.e{fill:#d2cecb;}</style></defs><g transform="translate(2.666 2.356)"><path class="a" d="M4502.22,2925.149a8.922,8.922,0,0,0-.666-1.455c-.341-.568-.772-1.254-1.281-1-.427.214-.258.986.049,1.634a2.77,2.77,0,0,1,.229.424l-.562-.487-2.656-2.988s-.9-1.393-1.592-.9c-.39.277-.283.755-.069,1.183l-.15-.2s-.78-1.222-1.452-.608c-.352.321-.12.86.086,1.2a.714.714,0,0,0-.943-.051c-.485.421-.015,1.142-.015,1.142l.88,1.141c-.674-.51-1.385.008-.782.97a7.2,7.2,0,0,0,2.412,2.707c1.2.978,2.431,1.936,3.309,1.9.312-.012,1.424,1.216,1.424,1.216.4-.321,2.727-2.476,2.928-2.77,0,0-.873-.836-.8-1.04A3.762,3.762,0,0,0,4502.22,2925.149Z" transform="translate(-4492.992 -2920.275)"/><path class="b" d="M4502.307,2925.432a12.967,12.967,0,0,0-.87-1.893c-.241-.461-.625-1.06-1.165-.811-.755.349.278,2.058.278,2.058l-1.418-1.439-2.234-2.523s-.636-.771-1.158-.411c-.567.39-.219.979.214,1.547l-.434-.568s-.761-1.2-1.452-.609c-.361.311-.12.86.086,1.2a.714.714,0,0,0-.943-.051c-.485.421-.015,1.142-.015,1.142l.88,1.141c-.674-.51-1.411.025-.782.97a16.067,16.067,0,0,0,2.412,2.707,5.989,5.989,0,0,0,3.309,1.9c.337.034,1.424,1.216,1.424,1.216.279-.309,2.748-2.522,2.928-2.77,0,0-.873-.8-.8-1.04A2.772,2.772,0,0,0,4502.307,2925.432Z" transform="translate(-4492.992 -2920.307)"/><line class="b" x2="2.478" y2="3.003" transform="translate(2.68 1.289)"/><line class="b" x2="2.786" y2="3.408" transform="translate(1.178 1.674)"/><line class="b" x2="1.685" y2="2.002" transform="translate(1.085 3.908)"/></g><g transform="translate(3.846 2.168)"><path class="a" d="M4507.007,2924.387a8.913,8.913,0,0,0-.667-1.455c-.341-.569-.771-1.254-1.281-1-.428.214-.258.986.048,1.633a2.746,2.746,0,0,1,.23.425l-.562-.487-2.656-2.987s-.9-1.393-1.592-.9c-.39.277-.283.754-.069,1.183l-.151-.2s-.78-1.223-1.452-.608c-.351.321-.12.86.086,1.2a.713.713,0,0,0-.943-.05c-.485.421-.016,1.142-.016,1.142l.881,1.141c-.674-.511-1.385.008-.782.969a7.191,7.191,0,0,0,2.411,2.708c1.2.979,2.432,1.936,3.309,1.9.312-.012,1.424,1.216,1.424,1.216.4-.321,2.728-2.476,2.929-2.77,0,0-.873-.835-.8-1.04A3.763,3.763,0,0,0,4507.007,2924.387Z" transform="translate(-4497.78 -2919.511)"/><path class="c" d="M4507.094,2924.669a12.98,12.98,0,0,0-.87-1.893c-.241-.461-.626-1.06-1.165-.811-.755.349.278,2.058.278,2.058l-1.418-1.439-2.234-2.523s-.636-.771-1.158-.411c-.567.39-.22.979.214,1.547l-.434-.569s-.761-1.2-1.452-.608c-.361.311-.12.86.086,1.2a.713.713,0,0,0-.943-.05c-.485.421-.016,1.142-.016,1.142l.881,1.141c-.674-.511-1.411.025-.782.97a16.072,16.072,0,0,0,2.411,2.707,5.988,5.988,0,0,0,3.309,1.9c.337.034,1.424,1.216,1.424,1.216.279-.309,2.748-2.522,2.929-2.77,0,0-.874-.8-.8-1.04A2.768,2.768,0,0,0,4507.094,2924.669Z" transform="translate(-4497.78 -2919.543)"/><line class="d" x2="2.478" y2="3.003" transform="translate(2.68 1.289)"/><line class="d" x2="2.786" y2="3.408" transform="translate(1.177 1.674)"/><line class="d" x2="1.685" y2="2.002" transform="translate(1.085 3.908)"/></g><path class="e" d="M4515.843,2912.589l.162-1.874.992.368Z" transform="translate(-4507.546 -2910.715)"/><path class="e" d="M4519.379,2913.691l.668-.987.435.51Z" transform="translate(-4510.21 -2912.214)"/><path class="e" d="M4484.248,2935.121l-1.906.588-.034-1.121Z" transform="translate(-4482.275 -2928.705)"/><path class="e" d="M4483.409,2931.187l-1.236-.263.327-.631Z" transform="translate(-4482.173 -2925.468)"/></svg>