<svg xmlns="http://www.w3.org/2000/svg" width="21.039" height="21.749" viewBox="0 0 21.039 21.749"><defs><style>.a{fill:none;stroke:#f5a518;stroke-linecap:round;stroke-linejoin:round;}.b{fill:#fff;}.c{fill:#e21e1e;}</style></defs><g transform="translate(-126.5 -2.928)"><g transform="translate(126.45 4.5)"><path class="a" d="M2.55,14.4a6.209,6.209,0,0,1-2-4.61V8.09"/><path class="a" d="M14.5,8.09v1.7A6.229,6.229,0,0,1,8.26,16H6.48"/><line class="a" y2="2.66" transform="translate(7.5 16.17)"/><line class="a" x2="6.95" transform="translate(4.94 18.99)"/><path class="a" d="M4.14,11.53a3.8,3.8,0,0,1-.7-2.2V5.08A4,4,0,0,1,7.5,1.14h0a4.138,4.138,0,0,1,1.16.16"/><path class="a" d="M11.56,6.89V9.27a4.05,4.05,0,0,1-4.06,4h0"/><line class="a" x1="2.14" y2="4.01" transform="translate(2.09 15.49)"/><line class="a" x1="1.41" y2="2.63" transform="translate(4.23 12.86)"/><line class="a" x1="6.59" y2="12.36" transform="translate(5.64 0.5)"/></g><g transform="translate(-100 -4.072)"><path class="b" d="M625.15,377.705l-2.892-5.857a.683.683,0,0,0-1.267,0l-2.892,5.857a.984.984,0,0,0,0,.855.721.721,0,0,0,.633.428h5.785a.721.721,0,0,0,.634-.428A.984.984,0,0,0,625.15,377.705Z" transform="translate(-379.031 -363.401)"/><g transform="translate(237.46 7)"><path class="c" d="M627.943,378.9l-4.022-6.967a1.017,1.017,0,0,0-1.762,0l-4.022,6.967a1.017,1.017,0,0,0,.881,1.526h8.045a1.017,1.017,0,0,0,.881-1.526Zm-4.9.38a.63.63,0,1,1,.63-.63A.63.63,0,0,1,623.04,379.276Zm.388-2.016a.388.388,0,0,1-.776,0l-.242-2.849a.63.63,0,1,1,1.26,0Z" transform="translate(-618 -371.42)"/></g></g></g></svg>