<svg xmlns="http://www.w3.org/2000/svg" width="12.474" height="12.474" viewBox="0 0 12.474 12.474"><defs><style>.a{fill:#b1b1b1;}</style></defs><path class="a" d="M8.237,2a6.237,6.237,0,1,0,6.237,6.237A6.239,6.239,0,0,0,8.237,2Zm0,11.227a4.99,4.99,0,1,1,4.99-4.99A5,5,0,0,1,8.237,13.227Zm-.624-2.495H8.861v1.247H7.613Zm1-6.212A2.5,2.5,0,0,0,5.855,6.26a.566.566,0,0,0,.543.73h.125a.6.6,0,0,0,.549-.418,1.249,1.249,0,0,1,1.435-.8,1.262,1.262,0,0,1,.979,1.31c-.062.836-1.01,1.017-1.528,1.8,0,.006-.006.006-.006.012s-.012.019-.019.031a2.078,2.078,0,0,0-.156.312c-.006.019-.019.031-.025.05a.4.4,0,0,0-.012.044,2.319,2.319,0,0,0-.125.78H8.861a1.325,1.325,0,0,1,.175-.667c.012-.019.019-.037.031-.056a1.72,1.72,0,0,1,.175-.243c.006-.006.012-.019.019-.025A2.192,2.192,0,0,1,9.466,8.9c.6-.568,1.41-1.029,1.241-2.22A2.542,2.542,0,0,0,8.618,4.52Z" transform="translate(-2 -2)"/></svg>