<svg xmlns="http://www.w3.org/2000/svg" xmlns:xlink="http://www.w3.org/1999/xlink" width="24" height="24" viewBox="0 0 24 24"><defs><style>.a{fill:none;}.b{clip-path:url(#a);}.c{fill:#707070;}</style><clipPath id="a"><rect class="a" width="24" height="24"/></clipPath></defs><g class="b"><path class="a" d="M0,0H24V24H0Z"/><path class="c" d="M18.65,8.35l-2.79,2.79a.5.5,0,0,0,.35.86H18a6,6,0,0,1-6,6,5.823,5.823,0,0,1-2.25-.44.961.961,0,0,0-1.04.23,1,1,0,0,0,.34,1.64A7.828,7.828,0,0,0,12,20a8,8,0,0,0,8-8h1.79a.5.5,0,0,0,.35-.85L19.35,8.36a.492.492,0,0,0-.7-.01ZM6,12a6,6,0,0,1,6-6,5.823,5.823,0,0,1,2.25.44.961.961,0,0,0,1.04-.23,1,1,0,0,0-.34-1.64A7.828,7.828,0,0,0,12,4a8,8,0,0,0-8,8H2.21a.5.5,0,0,0-.35.85l2.79,2.79a.5.5,0,0,0,.71,0l2.79-2.79A.5.5,0,0,0,7.79,12Z"/></g></svg>