<svg xmlns="http://www.w3.org/2000/svg" width="12.892" height="12.892" viewBox="0 0 12.892 12.892"><defs><style>.a{fill:#ffc400;stroke:#ffaf00;stroke-miterlimit:10;}.b{fill:#fff;}.c{fill:#161717;}.d{fill:#fffbd1;}.e{fill:#a24d3d;}</style></defs><g transform="translate(0.5 0.5)"><ellipse class="a" cx="5.946" cy="5.946" rx="5.946" ry="5.946" transform="translate(0 0)"/><ellipse class="b" cx="0.93" cy="1.323" rx="0.93" ry="1.323" transform="translate(3.111 2.652)"/><ellipse class="b" cx="0.93" cy="1.323" rx="0.93" ry="1.323" transform="translate(7.04 2.652)"/><ellipse class="c" cx="0.55" cy="0.55" rx="0.55" ry="0.55" transform="translate(3.49 3.425)"/><ellipse class="c" cx="0.55" cy="0.55" rx="0.55" ry="0.55" transform="translate(7.42 3.425)"/><path class="d" d="M4427.877,2948.3a2.917,2.917,0,0,1-5.834,0c0-1.611,1.306-.22,2.917-.22S4427.877,2946.689,4427.877,2948.3Z" transform="translate(-4418.935 -2940.686)"/><path class="e" d="M4429.681,2955.111c0,.666-1.056,1.313-2.169,1.313s-2.152-.6-2.152-1.267c0-.389,1.038-.726,2.152-.726S4429.681,2954.791,4429.681,2955.111Z" transform="translate(-4421.434 -2945.892)"/></g></svg>