<svg xmlns="http://www.w3.org/2000/svg" viewBox="0 0 57 57"><defs><style>.cls-1{fill:#fff;}.cls-2{fill:#e4e4e4;}.cls-3,.cls-4{fill:none;stroke:#323333;}.cls-3{stroke-linecap:round;stroke-linejoin:round;}</style></defs><g id="レイヤー_2" data-name="レイヤー 2"><g id="レイヤー_1-2" data-name="レイヤー 1"><g id="グループ_30" data-name="グループ 30"><g id="Group_2" data-name="Group 2"><circle id="Oval_Copy" data-name="Oval Copy" class="cls-1" cx="28.5" cy="28.5" r="28.5"/></g><g id="グループ_28" data-name="グループ 28"><path id="Oval_Copy_2" data-name="Oval Copy 2" class="cls-2" d="M57,28.5c-.28,21.79-21.45,31.2-32.23,27.71S57.28,6.71,57,28.5Z"/><path id="パス_7" data-name="パス 7" class="cls-1" d="M20.68,55.53,26.61,44,40.82,54.26,37,55.73s-7.1,2.08-12.1.8S20.68,55.53,20.68,55.53Z"/><path id="パス_10" data-name="パス 10" class="cls-2" d="M21.71,41.07l6.92-.48-.27-4.1,4.35-.43,3-2.53,1.86-4.08.3-4.93,19.06,4.9L45.54,45.65l-4.76,8.61Z"/><path id="パス_13" data-name="パス 13" class="cls-1" d="M37.94,24.49l15.55-6,3.26,6.84.17,2.47v2.67l-.32,2.67-.92,4.05Z"/></g><g id="グループ_22" data-name="グループ 22"><g id="グループ_23" data-name="グループ 23"><path id="パス_14" data-name="パス 14" class="cls-3" d="M37.83,25v2.46a8.81,8.81,0,0,1-8.62,9H27.12a8.81,8.81,0,0,1-8.62-9V25"/><line id="線_3" data-name="線 3" class="cls-3" x1="28.17" y1="36.65" x2="28.17" y2="40.33"/><line id="線_4" data-name="線 4" class="cls-3" x1="22.1" y1="40.73" x2="34.23" y2="40.73"/><rect id="長方形_10" data-name="長方形 10" class="cls-3" x="22.56" y="14.5" width="11.21" height="18.01" rx="4.06"/></g></g></g><line id="線_5" data-name="線 5" class="cls-4" x1="40" y1="15" x2="17" y2="41"/></g></g></svg>