<svg xmlns="http://www.w3.org/2000/svg" viewBox="0 0 57 57"><defs><style>.cls-1{fill:#fff;}.cls-2{fill:#e4e4e4;}.cls-3,.cls-4,.cls-5{fill:none;}.cls-3,.cls-5{stroke:#323333;}.cls-3{stroke-linecap:round;stroke-linejoin:round;}.cls-4{stroke:#fff;}</style></defs><g id="レイヤー_2" data-name="レイヤー 2"><g id="レイヤー_1-2" data-name="レイヤー 1"><circle id="Oval_Copy-2" data-name="Oval Copy-2" class="cls-1" cx="28.5" cy="28.5" r="28.5"/><path id="Oval_Copy_2-2" data-name="Oval Copy 2-2" class="cls-2" d="M57,28.5c-.28,21.79-21.45,31.2-32.23,27.71S57.28,6.71,57,28.5Z"/><path id="パス_7-2" data-name="パス 7-2" class="cls-1" d="M16.56,52.69,23.61,45,37.82,55.25l-1.27.62s-8.72,2.39-13.8.09l-.36-.09C17.39,54.59,16.56,52.69,16.56,52.69Z"/><path id="パス_10-2" data-name="パス 10-2" class="cls-2" d="M14,39.47H33.82V33.54l9-14.45,13,9.31L43.35,47l-5.28,8.39Z"/><path id="パス_13-2" data-name="パス 13-2" class="cls-1" d="M39,16.12l6.83-2.48,7.74,3.69,1.51,3.49,1.62,4.11L57,27.41v2.28Z"/><path id="パス_16" data-name="パス 16" class="cls-1" d="M31.5,20.5h11l-.17,18.58-8.35-5-.23,5.55H30.54Z"/><g id="グループ_27" data-name="グループ 27"><g id="グループ_26" data-name="グループ 26"><path id="合体_4" data-name="合体 4" class="cls-3" d="M33.75,33.7v5.8H14.5v-20H33.75v6.4l8.75-6.4v20Z"/></g><line id="線_7" data-name="線 7" class="cls-4" x1="36" y1="16" x2="13" y2="42"/><line id="線_8" data-name="線 8" class="cls-5" x1="33" y1="18" x2="13" y2="41"/></g></g></g></svg>