<?xml version="1.0" encoding="UTF-8"?>
<svg width="415px" height="29px" viewBox="0 0 415 29" version="1.1" xmlns="http://www.w3.org/2000/svg" xmlns:xlink="http://www.w3.org/1999/xlink">
    <!-- Generator: Sketch 55 (78076) - https://sketchapp.com -->
    <title>Group</title>
    <desc>Created with Sketch.</desc>
    <defs>
        <polygon id="path-1" points="0 0 115.228 0 115.228 28.9998 0 28.9998"></polygon>
        <polygon id="path-3" points="0.0003 0 164.369 0 164.369 28.9998 0.0003 28.9998"></polygon>
        <polygon id="path-5" points="0 0 115.228 0 115.228 28.9998 0 28.9998"></polygon>
    </defs>
    <g id="商談画面" stroke="none" stroke-width="1" fill="none" fill-rule="evenodd">
        <g id="契約機能/完了画面" transform="translate(-89.000000, -113.000000)">
            <g id="Group" transform="translate(89.000000, 113.000000)">
                <g id="Group-12">
                    <g id="Group-3">
                        <mask id="mask-2" fill="white">
                            <use xlink:href="#path-1"></use>
                        </mask>
                        <g id="Clip-2"></g>
                        <path d="M101.5117,28.5058 C101.1837,28.8228 100.7447,28.9998 100.2887,28.9998 L50.4997,28.9998 L1.7587,28.9998 C0.7867,28.9998 -0.0003,28.2128 -0.0003,27.2408 L-0.0003,14.4998 L-0.0003,1.7588 C-0.0003,0.7878 0.7867,-0.0002 1.7587,-0.0002 L50.4997,-0.0002 L100.2887,-0.0002 C100.7447,-0.0002 101.1837,0.1768 101.5117,0.4938 L114.6917,13.2348 C115.4077,13.9268 115.4077,15.0728 114.6917,15.7648 L101.5117,28.5058 Z" id="Fill-1" fill="#FFA000" mask="url(#mask-2)"></path>
                    </g>
                    <path d="M44.001,16.0097 C44.84,17.1337 45.14,17.6427 45.829,19.1717 L45.034,19.6657 C44.465,18.2127 44.075,17.5077 43.267,16.4137 L44.001,16.0097 Z M40.075,14.1067 C41.184,14.8407 41.648,15.2157 42.487,16.0697 L41.813,16.6987 C41.079,15.7997 40.555,15.3507 39.431,14.6457 L40.075,14.1067 Z M39.94,19.6207 C39.94,19.9357 40.09,19.9957 40.854,19.9957 C41.198,19.9957 41.888,19.9657 42.038,19.9507 C42.547,19.8907 42.667,19.7407 42.757,19.1117 C42.817,18.7667 42.862,18.3317 42.877,17.8377 C43.206,18.0177 43.387,18.0777 43.73,18.1527 C43.611,19.5157 43.446,20.1457 43.147,20.4447 C42.847,20.7447 42.412,20.8197 40.899,20.8197 C39.386,20.8197 39.056,20.6547 39.056,19.8757 L39.056,17.1937 C39.056,16.7287 39.026,16.3687 38.966,15.9797 L40.03,15.9797 C39.955,16.2947 39.94,16.5637 39.94,17.1337 L39.94,19.6207 Z M37.992,10.0457 C38.846,10.3457 39.131,10.4507 39.82,10.7647 C39.985,10.2407 40.015,10.0457 40.149,9.1617 L38.741,9.1617 C38.022,9.1617 37.633,9.1767 37.243,9.2517 L37.243,8.2477 C37.603,8.3077 38.082,8.3377 38.756,8.3377 L43.342,8.3377 C43.94,8.3377 44.36,8.3227 44.735,8.2777 C44.705,8.4877 44.705,8.5777 44.675,8.9967 C44.555,11.4847 44.315,13.0577 43.94,13.7317 C43.716,14.1517 43.401,14.2717 42.592,14.2717 C42.218,14.2717 41.783,14.2417 41.363,14.1967 C41.334,13.8217 41.288,13.6267 41.139,13.2527 C41.618,13.3577 42.112,13.4177 42.547,13.4177 C43.071,13.4177 43.206,13.2827 43.371,12.6377 C43.566,11.9037 43.671,10.8247 43.746,9.1617 L41.034,9.1617 C40.899,10.1207 40.809,10.4957 40.6,11.1397 C41.198,11.4547 41.483,11.6047 42.247,12.0837 L41.753,12.8177 C41.108,12.3537 40.869,12.1887 40.3,11.8887 C39.745,13.0727 38.891,13.9567 37.362,14.9457 C37.138,14.6157 36.988,14.4507 36.703,14.2267 C38.127,13.4917 39.011,12.6377 39.535,11.4847 C38.816,11.1397 38.486,11.0197 37.558,10.6907 L37.992,10.0457 Z M38.382,16.3997 C38.142,18.0777 37.977,18.7067 37.378,20.0257 L36.568,19.6057 C37.183,18.4067 37.407,17.5977 37.527,16.2187 L38.382,16.3997 Z M33.317,19.5007 L35.429,19.5007 L35.429,17.2227 L33.317,17.2227 L33.317,19.5007 Z M32.403,21.1187 C32.448,20.6547 32.478,20.1757 32.478,19.6657 L32.478,17.6277 C32.478,17.1037 32.463,16.8037 32.418,16.3997 C32.763,16.4447 33.063,16.4587 33.632,16.4587 L35.22,16.4587 C35.774,16.4587 36.105,16.4447 36.314,16.4137 C36.284,16.6687 36.269,17.0287 36.269,17.5827 L36.269,19.6957 C36.269,20.2047 36.284,20.6097 36.344,20.9247 L35.43,20.9247 L35.43,20.2807 L33.332,20.2807 L33.332,21.1187 L32.403,21.1187 Z M32.358,14.3917 C32.657,14.4367 32.883,14.4507 33.377,14.4507 L35.385,14.4507 C35.879,14.4507 36.119,14.4367 36.389,14.3917 L36.389,15.3207 C36.074,15.2757 35.834,15.2597 35.385,15.2597 L33.377,15.2597 C32.897,15.2597 32.673,15.2757 32.358,15.3207 L32.358,14.3917 Z M32.358,12.3237 C32.657,12.3687 32.867,12.3837 33.377,12.3837 L35.385,12.3837 C35.895,12.3837 36.119,12.3687 36.389,12.3237 L36.389,13.2527 C36.074,13.2077 35.834,13.1927 35.385,13.1927 L33.377,13.1927 C32.897,13.1927 32.628,13.2077 32.358,13.2527 L32.358,12.3237 Z M32.313,8.1427 C32.643,8.2027 32.867,8.2177 33.392,8.2177 L35.34,8.2177 C35.85,8.2177 36.089,8.2027 36.419,8.1427 L36.419,9.0867 C36.074,9.0417 35.805,9.0267 35.34,9.0267 L33.392,9.0267 C32.928,9.0267 32.628,9.0417 32.313,9.0867 L32.313,8.1427 Z M31.773,10.2107 C32.104,10.2707 32.403,10.2857 32.973,10.2857 L35.564,10.2857 C36.194,10.2857 36.434,10.2707 36.764,10.2107 L36.764,11.1697 C36.448,11.1397 36.164,11.1247 35.67,11.1247 L32.973,11.1247 C32.433,11.1247 32.133,11.1397 31.773,11.1847 L31.773,10.2107 Z" id="Fill-4" fill="#FFFFFF"></path>
                    <path d="M55.9912,9.1918 L53.9532,9.1918 C53.3082,9.1918 52.8592,9.2218 52.4102,9.2818 L52.4102,8.2328 C52.8292,8.2928 53.2792,8.3228 53.9532,8.3228 L58.6282,8.3228 C59.2882,8.3228 59.7522,8.2928 60.1722,8.2328 L60.1722,9.2818 C59.7372,9.2218 59.2722,9.1918 58.6282,9.1918 L56.9352,9.1918 L56.9352,13.4628 L58.4642,13.4628 C59.1072,13.4628 59.5122,13.4328 59.9172,13.3728 L59.9172,14.4208 C59.5272,14.3608 59.0782,14.3318 58.4642,14.3318 L56.9352,14.3318 L56.9352,19.5008 L58.9282,19.5008 C59.5422,19.5008 60.0072,19.4708 60.4412,19.4108 L60.4412,20.4748 C60.0212,20.4148 59.5572,20.3848 58.9132,20.3848 L53.4892,20.3848 C52.7552,20.3848 52.3352,20.3998 51.9602,20.4598 L51.9602,19.4408 C52.2902,19.4858 52.5002,19.5008 53.1742,19.5008 L53.1742,13.3728 C53.1742,12.7278 53.1592,12.3378 53.0842,11.8588 L54.1932,11.8588 C54.1332,12.2638 54.1032,12.6978 54.1032,13.3728 L54.1032,19.5008 L55.9912,19.5008 L55.9912,9.1918 Z M48.1842,19.5758 L50.5962,19.5758 L50.5962,17.2538 L48.1842,17.2538 L48.1842,19.5758 Z M47.3152,14.3318 C47.5992,14.3768 47.8852,14.3918 48.3942,14.3918 L50.4762,14.3918 C51.0012,14.3918 51.2262,14.3768 51.5412,14.3318 L51.5412,15.2598 C51.1812,15.2148 50.9862,15.2008 50.4762,15.2008 L48.3942,15.2008 C47.8852,15.2008 47.6152,15.2148 47.3152,15.2598 L47.3152,14.3318 Z M47.3152,12.2638 C47.6152,12.3088 47.8702,12.3238 48.3942,12.3238 L50.4762,12.3238 C51.0012,12.3238 51.2562,12.3088 51.5412,12.2638 L51.5412,13.1918 C51.1662,13.1478 50.9712,13.1328 50.4762,13.1328 L48.3942,13.1328 C47.8852,13.1328 47.6602,13.1478 47.3152,13.1918 L47.3152,12.2638 Z M47.2402,21.1498 C47.3012,20.7148 47.3302,20.3098 47.3302,19.7108 L47.3302,17.6728 C47.3302,17.1638 47.3152,16.8038 47.2562,16.4138 C47.6442,16.4588 48.0192,16.4738 48.4542,16.4738 L50.4022,16.4738 C51.0472,16.4738 51.2112,16.4738 51.4802,16.4288 C51.4512,16.7438 51.4352,17.0738 51.4352,17.6128 L51.4352,19.7408 C51.4352,20.3248 51.4512,20.6698 51.4802,20.9548 L50.5962,20.9548 L50.5962,20.3548 L48.1842,20.3548 L48.1842,21.1498 L47.2402,21.1498 Z M47.2402,8.0528 C47.6152,8.1128 47.8402,8.1278 48.3792,8.1278 L50.4922,8.1278 C51.0162,8.1278 51.2562,8.1128 51.6312,8.0528 L51.6312,8.9968 C51.3012,8.9518 50.9562,8.9368 50.4922,8.9368 L48.3792,8.9368 C47.9152,8.9368 47.5992,8.9518 47.2402,8.9968 L47.2402,8.0528 Z M46.7302,10.1208 C47.0752,10.1808 47.3602,10.1958 47.9292,10.1958 L50.8212,10.1958 C51.4352,10.1958 51.6762,10.1808 52.0202,10.1208 L52.0202,11.0948 C51.6762,11.0498 51.4802,11.0348 50.9412,11.0348 L47.9292,11.0348 C47.3902,11.0348 47.0912,11.0498 46.7302,11.0948 L46.7302,10.1208 Z" id="Fill-6" fill="#FFFFFF"></path>
                    <path d="M26,14.4999 C26,19.7469 21.747,23.9999 16.5,23.9999 C11.253,23.9999 7,19.7469 7,14.4999 C7,9.2529 11.253,4.9999 16.5,4.9999 C21.747,4.9999 26,9.2529 26,14.4999" id="Fill-8" fill="#FFFFFF"></path>
                    <path d="M14.875,10.6132 C15.166,10.6582 15.38,10.6692 15.807,10.6692 L16.514,10.6692 C16.896,10.6692 17.076,10.6582 17.446,10.6132 C17.379,11.2982 17.346,11.8712 17.346,12.4772 L17.346,17.9352 C17.346,18.4632 17.367,18.7892 17.436,19.2042 L16.368,19.2042 C16.436,18.8112 16.458,18.4522 16.458,17.9352 L16.458,11.4332 L15.852,11.4332 C15.492,11.4332 15.2,11.4552 14.875,11.5002 L14.875,10.6132 Z" id="Fill-10" fill="#F49B17"></path>
                </g>
                <g id="Group-22" transform="translate(124.000000, 0.000000)">
                    <g id="Group-3">
                        <mask id="mask-4" fill="white">
                            <use xlink:href="#path-3"></use>
                        </mask>
                        <g id="Clip-2"></g>
                        <path d="M150.6523,28.5058 C150.3243,28.8228 149.8853,28.9998 149.4293,28.9998 L50.5003,28.9998 L1.7583,28.9998 C0.7873,28.9998 0.0003,28.2128 0.0003,27.2408 L0.0003,14.4998 L0.0003,1.7588 C0.0003,0.7878 0.7873,-0.0002 1.7583,-0.0002 L50.5003,-0.0002 L149.4293,-0.0002 C149.8853,-0.0002 150.3243,0.1768 150.6523,0.4938 L163.8323,13.2348 C164.5483,13.9268 164.5483,15.0728 163.8323,15.7648 L150.6523,28.5058 Z" id="Fill-1" fill="#FFA000" mask="url(#mask-4)"></path>
                    </g>
                    <path d="M38.8008,9.8061 C38.8008,9.1621 38.7858,8.8771 38.7558,8.5021 C39.1308,8.5471 39.5208,8.5621 40.1198,8.5621 L43.3568,8.5621 C43.9558,8.5621 44.3298,8.5471 44.7048,8.5021 C44.6448,8.8921 44.6298,9.2221 44.6298,9.8211 L44.6298,17.8521 C44.6298,18.8561 44.3008,19.1261 43.0868,19.1261 C42.7268,19.1261 42.0978,19.0961 41.5288,19.0361 C41.5138,18.6611 41.4388,18.3621 41.2878,18.0171 C42.0378,18.1371 42.5468,18.1821 43.0868,18.1821 C43.5668,18.1821 43.6558,18.1071 43.6558,17.6881 L43.6558,9.4471 L39.7898,9.4471 L39.7898,19.3661 C39.7898,20.1001 39.8208,20.7441 39.8798,21.1041 L38.7268,21.1041 C38.7718,20.7001 38.8008,20.0701 38.8008,19.3811 L38.8008,9.8061 Z M33.4218,19.2311 C33.4218,19.4861 33.4218,19.5461 33.4368,20.1001 L32.3588,20.1001 C32.4328,19.6961 32.4628,19.2611 32.4628,18.4971 L32.4628,10.5401 C32.4628,9.8961 32.4478,9.6861 32.4178,9.4021 C34.6508,8.9971 36.2838,8.4431 37.2428,7.7831 L37.9618,8.6221 C35.9688,9.4761 35.3548,9.6711 33.4218,10.1211 L33.4218,12.9531 L36.3588,12.9531 C36.9728,12.9531 37.2728,12.9381 37.6328,12.8781 L37.6328,13.9271 C37.2878,13.8671 36.9578,13.8521 36.3738,13.8521 L33.4218,13.8521 L33.4218,17.6731 L36.4638,17.6731 C37.0778,17.6731 37.3628,17.6581 37.7228,17.5981 L37.7228,18.6471 C37.3628,18.5871 37.0478,18.5721 36.4638,18.5721 L33.4218,18.5721 L33.4218,19.2311 Z" id="Fill-4" fill="#FFFFFF"></path>
                    <path d="M59.6025,8.2929 C59.3775,8.4879 59.3775,8.4879 58.8535,8.9969 C57.4745,10.3309 56.7705,10.8699 55.2265,11.7239 C55.0465,11.3649 54.9125,11.1699 54.6275,10.8699 C55.8865,10.3459 56.8745,9.6709 57.8645,8.6829 C58.2985,8.2479 58.4335,8.0829 58.7335,7.6789 L59.6025,8.2929 Z M60.0665,12.1589 C59.8275,12.3539 59.6625,12.5029 59.4525,12.7279 C58.1035,14.1219 56.8605,15.0959 55.1815,16.0239 C55.0175,15.6949 54.8525,15.4399 54.5975,15.1559 C55.7505,14.6759 56.8455,13.9269 57.9545,12.8929 C58.6585,12.2329 59.0025,11.8589 59.2275,11.4839 L60.0665,12.1589 Z M60.4415,16.3689 C60.0665,16.7139 60.0665,16.7139 59.2575,17.5979 C58.7635,18.1519 57.9095,18.9009 57.1295,19.5009 C56.2905,20.1299 55.7065,20.4749 54.6875,20.9999 C54.5225,20.6549 54.4025,20.4899 54.1035,20.1149 C55.6465,19.4859 56.9645,18.5569 58.3735,17.1479 C58.9885,16.5189 59.3775,16.0549 59.6025,15.6499 L60.4415,16.3689 Z M53.4435,20.3699 C53.0545,19.5009 52.7695,19.0059 52.2005,18.2419 L52.9045,17.9279 C53.4585,18.6619 53.8185,19.2009 54.2225,19.9509 L53.4435,20.3699 Z M48.8435,16.6689 L53.0095,16.6689 L53.0095,15.4549 L48.8435,15.4549 L48.8435,16.6689 Z M48.6035,11.3499 L53.2935,11.3499 L53.2935,10.4059 L48.6035,10.4059 L48.6035,11.3499 Z M48.6035,9.7009 L53.2935,9.7009 L53.2935,8.7719 L48.6035,8.7719 L48.6035,9.7009 Z M49.0235,17.3729 C48.5295,17.3729 48.2595,17.3879 47.9145,17.4329 C47.9595,17.1189 47.9745,16.8489 47.9745,16.4739 L47.9745,15.6199 C47.9745,15.2599 47.9595,14.9759 47.9145,14.6459 C48.2595,14.6909 48.4985,14.7059 49.0235,14.7059 L52.8145,14.7059 C53.3385,14.7059 53.5935,14.6909 53.9235,14.6459 C53.8935,14.9759 53.8775,15.2909 53.8775,15.6199 L53.8775,16.4739 C53.8775,16.8039 53.8935,17.1039 53.9235,17.4329 C53.5795,17.3879 53.2935,17.3729 52.7995,17.3729 L51.3755,17.3729 L51.3755,20.0699 C51.3755,20.4749 51.3165,20.7149 51.1655,20.8639 C51.0165,21.0139 50.8065,21.0589 50.1475,21.0589 C49.8325,21.0589 49.5925,21.0439 49.1285,20.9999 C49.0985,20.6999 49.0385,20.3849 48.9485,20.0849 C49.3535,20.1899 49.7275,20.2349 50.1175,20.2349 C50.4315,20.2349 50.4765,20.1899 50.4765,19.9359 L50.4765,17.3729 L49.0235,17.3729 Z M49.0535,12.0689 C48.3045,12.0689 47.9445,12.0839 47.6745,12.1139 C47.7195,11.6639 47.7355,11.2599 47.7355,10.8099 L47.7355,9.3269 C47.7355,8.7419 47.7195,8.3829 47.6745,7.9929 C48.0795,8.0379 48.4395,8.0529 49.0985,8.0529 L52.7845,8.0529 C53.4285,8.0529 53.8325,8.0379 54.2075,7.9929 C54.1635,8.3679 54.1635,8.5469 54.1635,9.3559 L54.1635,10.8099 C54.1635,11.3649 54.1775,11.7389 54.2075,12.1139 C53.9535,12.0839 53.5635,12.0689 52.8445,12.0689 L51.3455,12.0689 L51.3455,13.0579 L53.4585,13.0579 C54.1635,13.0579 54.4935,13.0429 54.8675,12.9829 L54.8675,13.9269 C54.4935,13.8669 54.1185,13.8519 53.4735,13.8519 L48.2595,13.8519 C47.5845,13.8519 47.1505,13.8819 46.8055,13.9419 L46.8055,12.9679 C47.1355,13.0279 47.5545,13.0579 48.2595,13.0579 L50.4475,13.0579 L50.4475,12.0689 L49.0535,12.0689 Z M49.3235,18.1679 C48.7535,19.3509 48.3045,19.9509 47.4195,20.7899 C47.2105,20.5499 47.0455,20.3999 46.7465,20.1899 C47.6745,19.4109 48.0495,18.9319 48.5435,17.8229 L49.3235,18.1679 Z" id="Fill-6" fill="#FFFFFF"></path>
                    <path d="M68.627,10.7499 C67.923,12.1739 67.233,13.2379 66.244,14.4059 C65.944,14.0019 65.944,14.0019 65.495,13.6869 C66.664,12.4429 67.473,11.1999 68.148,9.5819 C68.507,8.6969 68.731,7.9629 68.776,7.4539 L69.825,7.7979 C69.706,8.0679 69.661,8.1729 69.526,8.5619 C69.316,9.1769 69.241,9.3719 69.017,9.8959 L73.767,9.8959 C74.366,9.8959 74.695,9.8809 75.13,9.8059 L75.13,10.8249 C74.756,10.7649 74.396,10.7499 73.767,10.7499 L70.245,10.7499 L70.245,13.1779 L73.287,13.1779 C73.842,13.1779 74.186,13.1469 74.606,13.0879 L74.606,14.1219 C74.141,14.0619 73.797,14.0319 73.287,14.0319 L70.245,14.0319 L70.245,16.4589 L73.332,16.4589 C73.871,16.4589 74.231,16.4289 74.65,16.3689 L74.65,17.4029 C74.246,17.3429 73.856,17.3129 73.332,17.3129 L70.245,17.3129 L70.245,19.6059 C70.245,20.3399 70.275,20.8049 70.35,21.1789 L69.196,21.1789 C69.256,20.8189 69.286,20.3999 69.286,19.6059 L69.286,10.7499 L68.627,10.7499 Z M66.334,7.7979 C66.154,8.2029 66.109,8.3379 65.989,8.6379 C65.646,9.5659 65.45,10.0009 64.881,11.1249 L64.881,19.3209 C64.881,19.9959 64.911,20.6249 64.985,21.1189 L63.817,21.1189 C63.892,20.5349 63.922,20.0099 63.922,19.2909 L63.922,14.3159 C63.922,13.6719 63.937,13.2679 63.981,12.3829 C63.457,13.2679 62.993,13.8669 62.124,14.7509 C61.855,14.3159 61.855,14.3159 61.494,13.9569 C62.814,12.7579 63.862,11.2739 64.656,9.4609 C65.001,8.6829 65.195,8.0379 65.285,7.4539 L66.334,7.7979 Z" id="Fill-8" fill="#FFFFFF"></path>
                    <path d="M88.2451,9.746 C87.4061,8.982 87.0921,8.742 86.0881,8.158 L86.7311,7.633 C87.7211,8.203 87.9001,8.323 88.8751,9.117 L88.2451,9.746 Z M89.0691,12.518 C89.0241,12.593 88.8751,12.923 88.6201,13.522 C87.7661,15.515 87.4811,16.055 86.6271,17.178 C87.0921,18.122 87.4661,18.602 88.1411,19.171 C88.4101,19.381 88.6491,19.516 88.7851,19.516 C89.0241,19.516 89.2791,18.737 89.4591,17.358 C89.7731,17.673 89.9981,17.852 90.2681,18.017 C90.0731,19.006 89.9531,19.411 89.7281,19.846 C89.4891,20.325 89.1891,20.565 88.8001,20.565 C88.4101,20.565 87.8101,20.22 87.2261,19.636 C86.7771,19.201 86.3721,18.647 85.9821,17.957 C84.7541,19.261 83.5561,20.13 81.8321,20.939 C81.5931,20.579 81.4421,20.43 81.0981,20.175 C82.9711,19.426 84.3341,18.482 85.5481,17.074 C84.8591,15.47 84.4251,13.342 84.2741,10.84 L79.0001,10.84 C79.0001,12.143 78.9851,12.653 78.9701,13.283 L81.8321,13.283 C82.3711,13.283 82.6261,13.267 82.9561,13.223 C82.9111,13.537 82.9111,13.537 82.8501,14.901 C82.7611,16.594 82.6111,17.688 82.4011,18.122 C82.1771,18.587 81.8471,18.722 81.0081,18.722 C80.4691,18.722 80.1091,18.692 79.4341,18.587 C79.4041,18.197 79.3751,17.973 79.2551,17.613 C80.0791,17.793 80.5281,17.852 81.0231,17.852 C81.5171,17.852 81.6381,17.718 81.7421,17.058 C81.8471,16.429 81.9221,15.305 81.9361,14.121 L78.9401,14.121 C78.8501,16.039 78.7301,17.148 78.4611,18.257 C78.2061,19.321 77.9361,19.965 77.3221,20.879 C77.0521,20.565 76.8431,20.385 76.5271,20.205 C77.0821,19.426 77.3671,18.797 77.5761,17.957 C77.9061,16.609 78.0711,14.586 78.0711,11.664 C78.0711,10.66 78.0561,10.42 77.9811,9.911 C78.5061,9.971 79.0451,9.986 79.8091,9.986 L84.2291,9.986 C84.1701,8.143 84.1541,7.903 84.0801,7.558 L85.2331,7.558 C85.1741,7.858 85.1581,8.218 85.1581,8.787 C85.1581,9.057 85.1581,9.282 85.1881,9.986 L88.4551,9.986 C89.2941,9.986 89.6831,9.971 90.0581,9.896 L90.0581,10.915 C89.5941,10.855 89.1741,10.84 88.3801,10.84 L85.2191,10.84 C85.3231,12.983 85.6531,14.796 86.2071,16.234 C87.1061,14.946 87.8861,13.207 88.0511,12.114 L89.0691,12.518 Z" id="Fill-10" fill="#FFFFFF"></path>
                    <path d="M98.1982,14.3315 C98.1982,15.0055 97.6432,15.5605 96.9692,15.5605 C96.2952,15.5605 95.7412,15.0055 95.7412,14.3315 C95.7412,13.6575 96.2952,13.1025 96.9692,13.1025 C97.6432,13.1025 98.1982,13.6575 98.1982,14.3315" id="Fill-12" fill="#FFFFFF"></path>
                    <path d="M114.3105,16.6088 C115.0145,18.1368 115.5395,18.8718 116.5585,19.7858 C116.3035,20.0098 116.0935,20.2348 115.8535,20.5498 C114.8945,19.5158 114.2355,18.5268 113.4865,16.9238 L114.3105,16.6088 Z M109.3665,12.5638 C109.6505,12.6088 109.8905,12.6228 110.3095,12.6228 L113.0215,12.6228 C113.4415,12.6228 113.7105,12.6088 114.0105,12.5638 L114.0105,13.5228 C113.7105,13.4778 113.4415,13.4628 113.0215,13.4628 L110.2945,13.4628 C109.9195,13.4628 109.6645,13.4778 109.3665,13.5228 L109.3665,12.5638 Z M108.7215,15.8898 C108.1075,15.8898 107.8075,15.9048 107.4025,15.9648 L107.4025,14.9908 C107.7775,15.0508 108.0775,15.0658 108.7215,15.0658 L114.7595,15.0658 C115.3735,15.0658 115.7635,15.0358 116.1535,14.9758 L116.1535,15.9798 C115.7485,15.9198 115.3145,15.8898 114.7305,15.8898 L112.0925,15.8898 L112.0925,19.8458 C112.0925,20.7448 111.7925,20.9688 110.6095,20.9688 C110.2055,20.9688 109.8455,20.9548 109.3505,20.8948 C109.2905,20.5048 109.2155,20.2348 109.0505,19.9208 C109.6505,20.0258 110.1155,20.0698 110.6395,20.0698 C111.0585,20.0698 111.1645,20.0098 111.1645,19.7708 L111.1645,15.8898 L108.7215,15.8898 Z M108.6765,10.2558 C108.1075,10.2558 107.7175,10.2708 107.3125,10.3308 L107.3125,9.3718 C107.7325,9.4318 108.1075,9.4468 108.7665,9.4468 L110.4895,9.4468 C110.7595,8.7868 110.9235,8.1728 110.9685,7.6638 L112.0025,7.7688 C111.9135,8.0228 111.8375,8.2178 111.6275,8.9218 C111.5685,9.1018 111.5385,9.2068 111.4335,9.4468 L114.9395,9.4468 C115.6145,9.4468 116.0635,9.4168 116.4835,9.3568 L116.4835,10.3458 C116.0335,10.2858 115.5835,10.2558 114.9395,10.2558 L113.2765,10.2558 C113.9965,11.5448 115.1345,12.4878 116.7675,13.1918 C116.5735,13.4468 116.4385,13.6568 116.2435,14.0768 C114.3555,13.0128 113.2165,11.9188 112.2885,10.2558 L111.0745,10.2558 C110.2345,11.8288 109.1705,12.9078 107.3285,14.0318 C107.1775,13.7468 107.0735,13.5968 106.7435,13.2828 C108.3165,12.4588 109.3505,11.5148 110.0995,10.2558 L108.6765,10.2558 Z M109.5755,16.8788 C108.8715,18.5418 108.3615,19.3358 107.3125,20.3998 C107.0585,20.1148 106.8775,19.9808 106.5635,19.7858 C107.1035,19.3358 107.3425,19.0668 107.7175,18.5418 C108.1665,17.9128 108.3765,17.4928 108.7065,16.5788 L109.5755,16.8788 Z M104.2555,11.4238 C103.8965,11.4238 103.5815,11.4548 103.2065,11.5148 L103.2065,10.4958 C103.5815,10.5558 103.8815,10.5858 104.2555,10.5858 L105.0205,10.5858 L105.0205,9.1468 C105.0205,8.4428 104.9905,8.0378 104.9305,7.6188 L106.0395,7.6188 C105.9645,8.0378 105.9495,8.4278 105.9495,9.1318 L105.9495,10.5858 L106.4435,10.5858 C106.8485,10.5858 107.0735,10.5698 107.3425,10.5258 L107.3425,11.4838 C107.0585,11.4398 106.8325,11.4238 106.4435,11.4238 L105.9495,11.4238 L105.9495,14.4208 C106.3835,14.2718 106.5935,14.1818 107.1935,13.9418 L107.1935,14.8108 C106.6085,15.0508 106.4435,15.1098 105.9495,15.2758 L105.9495,19.9508 C105.9495,20.7898 105.6945,20.9998 104.6455,20.9998 C104.1815,20.9998 103.8515,20.9838 103.4615,20.9398 C103.4475,20.5798 103.4025,20.3848 103.2825,20.0258 C103.8365,20.1148 104.2555,20.1598 104.6305,20.1598 C104.9305,20.1598 105.0205,20.0858 105.0205,19.8458 L105.0205,15.5898 C104.6455,15.7098 104.4515,15.7698 103.9865,15.9048 C103.6265,15.9948 103.5665,16.0248 103.2515,16.1298 L103.0875,15.1258 C103.5965,15.0958 104.0165,15.0058 105.0205,14.7058 L105.0205,11.4238 L104.2555,11.4238 Z" id="Fill-14" fill="#FFFFFF"></path>
                    <path d="M125.1328,9.8061 C125.1328,9.1621 125.1178,8.8771 125.0878,8.5021 C125.4628,8.5471 125.8528,8.5621 126.4518,8.5621 L129.6888,8.5621 C130.2878,8.5621 130.6618,8.5471 131.0368,8.5021 C130.9768,8.8921 130.9618,9.2221 130.9618,9.8211 L130.9618,17.8521 C130.9618,18.8561 130.6328,19.1261 129.4188,19.1261 C129.0588,19.1261 128.4298,19.0961 127.8608,19.0361 C127.8458,18.6611 127.7708,18.3621 127.6198,18.0171 C128.3698,18.1371 128.8788,18.1821 129.4188,18.1821 C129.8988,18.1821 129.9878,18.1071 129.9878,17.6881 L129.9878,9.4471 L126.1218,9.4471 L126.1218,19.3661 C126.1218,20.1001 126.1528,20.7441 126.2118,21.1041 L125.0588,21.1041 C125.1038,20.7001 125.1328,20.0701 125.1328,19.3811 L125.1328,9.8061 Z M119.7538,19.2311 C119.7538,19.4861 119.7538,19.5461 119.7688,20.1001 L118.6908,20.1001 C118.7648,19.6961 118.7948,19.2611 118.7948,18.4971 L118.7948,10.5401 C118.7948,9.8961 118.7798,9.6861 118.7498,9.4021 C120.9828,8.9971 122.6158,8.4431 123.5748,7.7831 L124.2938,8.6221 C122.3008,9.4761 121.6868,9.6711 119.7538,10.1211 L119.7538,12.9531 L122.6908,12.9531 C123.3048,12.9531 123.6048,12.9381 123.9648,12.8781 L123.9648,13.9271 C123.6198,13.8671 123.2898,13.8521 122.7058,13.8521 L119.7538,13.8521 L119.7538,17.6731 L122.7958,17.6731 C123.4098,17.6731 123.6948,17.6581 124.0548,17.5981 L124.0548,18.6471 C123.6948,18.5871 123.3798,18.5721 122.7958,18.5721 L119.7538,18.5721 L119.7538,19.2311 Z" id="Fill-16" fill="#FFFFFF"></path>
                    <path d="M26,14.4999 C26,19.7469 21.747,23.9999 16.5,23.9999 C11.253,23.9999 7,19.7469 7,14.4999 C7,9.2529 11.253,4.9999 16.5,4.9999 C21.747,4.9999 26,9.2529 26,14.4999" id="Fill-18" fill="#FFFFFF"></path>
                    <path d="M14.6123,18.9184 C13.9043,18.9184 13.7353,18.9294 13.3763,18.9744 C13.5003,18.0874 13.5343,17.9184 13.7023,17.4924 C13.9833,16.7844 14.4543,16.1674 15.1623,15.5604 C15.5553,15.2234 15.5773,15.2124 16.8803,14.3254 C17.9923,13.5724 18.3623,13.0784 18.3623,12.3934 C18.3623,11.5404 17.6433,10.9894 16.4993,10.9894 C15.7573,10.9894 15.2073,11.2364 14.8703,11.7194 C14.6573,12.0224 14.5553,12.2924 14.4773,12.8544 L13.5343,12.6964 C13.7023,11.8884 13.8703,11.4954 14.2413,11.0794 C14.7473,10.5064 15.5103,10.2144 16.4993,10.2144 C18.1943,10.2144 19.2843,11.0684 19.2843,12.3934 C19.2843,12.9664 19.0593,13.5054 18.6213,13.9884 C18.2843,14.3704 17.9923,14.5834 16.7123,15.4374 C15.8253,16.0324 15.4663,16.3464 15.0943,16.8184 C14.7473,17.2784 14.5893,17.5824 14.4543,18.1214 L18.0373,18.1214 C18.5983,18.1214 18.9803,18.0984 19.4073,18.0424 L19.4073,18.9854 C18.9583,18.9404 18.5873,18.9184 18.0263,18.9184 L14.6123,18.9184 Z" id="Fill-20" fill="#F49B17"></path>
                </g>
                <g id="Group-12" transform="translate(299.000000, 0.000000)">
                    <g id="Group-3">
                        <mask id="mask-6" fill="white">
                            <use xlink:href="#path-5"></use>
                        </mask>
                        <g id="Clip-2"></g>
                        <path d="M101.5115,28.5058 C101.1835,28.8228 100.7445,28.9998 100.2885,28.9998 L50.4995,28.9998 L1.7585,28.9998 C0.7875,28.9998 -0.0005,28.2128 -0.0005,27.2408 L-0.0005,14.4998 L-0.0005,1.7588 C-0.0005,0.7878 0.7875,-0.0002 1.7585,-0.0002 L50.4995,-0.0002 L100.2885,-0.0002 C100.7445,-0.0002 101.1835,0.1768 101.5115,0.4938 L114.6925,13.2348 C115.4075,13.9268 115.4075,15.0728 114.6925,15.7648 L101.5115,28.5058 Z" id="Fill-1" fill="#FFA000" mask="url(#mask-6)"></path>
                    </g>
                    <path d="M34.2458,11.664 C34.6498,11.724 34.9348,11.739 35.5638,11.739 L41.4078,11.739 C42.0378,11.739 42.3218,11.724 42.7258,11.664 L42.7258,12.668 C42.3378,12.608 42.0078,12.593 41.4078,12.593 L35.5638,12.593 C34.9648,12.593 34.6358,12.608 34.2458,12.668 L34.2458,11.664 Z M37.8868,8.697 C37.8868,8.218 37.8568,7.843 37.7818,7.514 L38.9658,7.514 C38.8908,7.798 38.8608,8.203 38.8608,8.697 L38.8608,9.237 L43.3258,9.237 C44.0008,9.237 44.3598,9.222 44.8248,9.177 C44.7798,9.476 44.7648,9.731 44.7648,10.196 L44.7648,11.185 C44.7648,11.649 44.7798,11.919 44.8248,12.233 L43.8498,12.233 L43.8498,10.091 L33.2868,10.091 L33.2868,12.233 L32.2978,12.233 C32.3428,11.889 32.3578,11.634 32.3578,11.185 L32.3578,10.196 C32.3578,9.761 32.3428,9.492 32.2978,9.177 C32.7478,9.222 33.1518,9.237 33.8108,9.237 L37.8868,9.237 L37.8868,8.697 Z M33.6768,15.141 C33.0468,15.141 32.5978,15.17 32.1778,15.23 L32.1778,14.197 C32.5978,14.256 33.0018,14.287 33.6768,14.287 L43.4008,14.287 C44.0748,14.287 44.4798,14.256 44.8988,14.197 L44.8988,15.23 C44.4798,15.17 44.0458,15.141 43.4008,15.141 L40.3138,15.141 L40.3138,19.306 C40.3138,19.726 40.5238,19.786 42.0378,19.786 C43.7298,19.786 44.0748,19.681 44.1808,19.186 C44.2398,18.887 44.2698,18.512 44.2698,17.718 C44.6598,17.928 44.8248,18.002 45.1988,18.092 C45.1238,20.49 44.8988,20.67 41.9478,20.67 C39.7598,20.67 39.3408,20.49 39.3408,19.591 L39.3408,15.141 L37.1828,15.141 C37.0928,16.459 36.9728,17.028 36.5838,17.808 C36.1188,18.782 35.3848,19.561 34.4108,20.16 C33.9758,20.415 33.3918,20.7 32.4478,21.089 C32.2828,20.729 32.0878,20.43 31.8338,20.16 C33.1968,19.726 33.7808,19.441 34.4108,18.946 C35.2948,18.257 35.8938,17.268 36.0738,16.205 C36.1188,15.89 36.1488,15.665 36.1788,15.141 L33.6768,15.141 Z" id="Fill-4" fill="#FFFFFF"></path>
                    <path d="M49.5623,9.2968 C48.8743,9.2968 48.3493,9.3268 47.7353,9.4018 L47.7353,8.2928 C48.3043,8.3678 48.8433,8.3978 49.5623,8.3978 L57.3843,8.3978 C58.1333,8.3978 58.5383,8.3828 58.8233,8.3378 L59.4073,9.0268 C58.7483,9.7008 58.5533,9.8808 58.1783,10.2258 C56.9193,11.3348 55.8713,12.0538 54.1483,12.9528 L54.1483,19.7258 C54.1483,20.2348 53.9983,20.5648 53.6833,20.7298 C53.4893,20.8188 53.0393,20.8798 52.3793,20.8798 C51.8703,20.8798 51.1963,20.8348 50.2963,20.7448 C50.2673,20.3248 50.2073,20.1148 50.0873,19.6958 C51.0163,19.8598 51.7353,19.9358 52.4843,19.9358 C52.9643,19.9358 53.0993,19.8598 53.0993,19.6058 L53.0993,13.5228 C53.0993,12.8928 53.0833,12.4878 53.0243,12.0388 L53.9083,12.0388 C55.3613,11.2898 56.4253,10.5408 57.7443,9.2968 L49.5623,9.2968 Z" id="Fill-6" fill="#FFFFFF"></path>
                    <path d="M25.9998,14.4999 C25.9998,19.7469 21.7468,23.9999 16.4998,23.9999 C11.2538,23.9999 6.9998,19.7469 6.9998,14.4999 C6.9998,9.2529 11.2538,4.9999 16.4998,4.9999 C21.7468,4.9999 25.9998,9.2529 25.9998,14.4999" id="Fill-8" fill="#FFFFFF"></path>
                    <path d="M14.3308,17.0107 C14.5108,17.5947 14.6668,17.8307 15.0158,18.0777 C15.3968,18.3467 15.8918,18.4817 16.4638,18.4817 C17.7668,18.4817 18.5868,17.8077 18.5868,16.7407 C18.5868,15.6297 17.7898,15.0227 16.2958,15.0227 C15.9808,15.0227 15.6998,15.0457 15.3968,15.0787 L15.3968,14.1917 C15.6548,14.2367 15.9248,14.2597 16.2278,14.2597 C16.9698,14.2597 17.5198,14.0907 17.8678,13.7427 C18.1488,13.4727 18.3168,13.0577 18.3168,12.6537 C18.3168,11.6877 17.6438,11.1257 16.5088,11.1257 C15.8238,11.1257 15.3298,11.3167 15.0158,11.7207 C14.8578,11.9237 14.7798,12.1027 14.6558,12.5187 L13.7238,12.3167 C13.9148,11.7437 14.0498,11.4857 14.3308,11.1937 C14.8248,10.6547 15.5888,10.3737 16.5648,10.3737 C18.1938,10.3737 19.2268,11.2267 19.2268,12.5747 C19.2268,13.2597 18.9348,13.8657 18.4398,14.2147 C18.1488,14.4277 17.9008,14.5177 17.3858,14.6187 C18.0358,14.6857 18.3848,14.8097 18.7668,15.1017 C19.2608,15.4837 19.5178,16.0787 19.5178,16.7977 C19.5178,18.3137 18.3508,19.2567 16.4758,19.2567 C15.3408,19.2567 14.4988,18.9427 13.9598,18.3357 C13.7238,18.0667 13.5888,17.8197 13.3878,17.2467 L14.3308,17.0107 Z" id="Fill-10" fill="#F49B17"></path>
                </g>
            </g>
        </g>
    </g>
</svg>