<svg xmlns="http://www.w3.org/2000/svg" width="17" height="17" viewBox="0 0 17 17"><defs><style>.a{fill:#fa0;}</style></defs><path class="a" d="M14.344,10.625H13.281a.531.531,0,0,0-.531.531v3.719H2.125V4.25H6.906a.531.531,0,0,0,.531-.531V2.656a.531.531,0,0,0-.531-.531H1.594A1.594,1.594,0,0,0,0,3.719V15.406A1.594,1.594,0,0,0,1.594,17H13.281a1.594,1.594,0,0,0,1.594-1.594v-4.25A.531.531,0,0,0,14.344,10.625ZM16.2,0h-4.25a.8.8,0,0,0-.564,1.361l1.186,1.186-8.093,8.09a.8.8,0,0,0,0,1.129l.753.751a.8.8,0,0,0,1.129,0l8.089-8.091,1.186,1.185A.8.8,0,0,0,17,5.047V.8A.8.8,0,0,0,16.2,0Z"/></svg>