<svg xmlns="http://www.w3.org/2000/svg" width="64" height="35" viewBox="0 0 64 35"><defs><style>.a,.b{fill:#b9b9b9;}.a{font-size:14px;font-family:HiraginoSans-W3, Hiragino Sans;}</style></defs><g transform="translate(-249 -441)"><text class="a" transform="translate(249 473)"><tspan x="0" y="0">no image</tspan></text><g transform="translate(270.843 437.767)"><path class="b" d="M19.176,3.233H.741a.585.585,0,0,0-.585.585V16.37a.585.585,0,0,0,.585.585H19.176a.584.584,0,0,0,.584-.585V3.818A.584.584,0,0,0,19.176,3.233ZM18.591,4.4V15.1L14.747,10.05a.584.584,0,0,0-.878-.059l-3.35,3.35-5.3-6.872a.561.561,0,0,0-.484-.227.588.588,0,0,0-.466.26L1.325,10.938V4.4ZM1.325,12.869a.562.562,0,0,0,.254-.2L4.8,7.829,10,14.582a.587.587,0,0,0,.425.227.6.6,0,0,0,.451-.171l3.348-3.347,3.425,4.495H1.325Z"/><path class="b" d="M14.161,9.352a2.1,2.1,0,1,0-2.1-2.1A2.1,2.1,0,0,0,14.161,9.352Zm0-3.033a.932.932,0,1,1-.931.932A.933.933,0,0,1,14.161,6.319Z"/></g></g></svg>