<?xml version="1.0" encoding="UTF-8" standalone="no"?>
<svg width="20px" height="20px" viewBox="0 0 20 20" version="1.1" xmlns="http://www.w3.org/2000/svg" xmlns:xlink="http://www.w3.org/1999/xlink">
    <!-- Generator: Sketch 43.2 (39069) - http://www.bohemiancoding.com/sketch -->
    <title>icon/1px_comment_資料</title>
    <desc>Created with Sketch.</desc>
    <defs></defs>
    <g id="Symbols" stroke="none" stroke-width="1" fill="none" fill-rule="evenodd">
        <g id="icon/1px_comment_資料" fill-rule="nonzero">
            <g id="Group-2" transform="translate(0.000000, 1.000000)">
                <path d="M19,14.117 L16.228,14.117 C16.062,14.117 15.907,14.199 15.814,14.336 L13.575,17.635 L11.128,14.32 C11.034,14.192 10.884,14.117 10.726,14.117 L1,14.117 L1,1 L19,1 L19,14.117 Z" id="Shape" fill="#FFFFFF"></path>
                <path d="M19.5,0 L0.5,0 C0.224,0 0,0.224 0,0.5 L0,14.617 C0,14.893 0.224,15.117 0.5,15.117 L10.474,15.117 L13.191,18.797 C13.285,18.925 13.434,19 13.593,19 L13.603,19 C13.765,18.997 13.916,18.915 14.007,18.781 L16.494,15.117 L19.5,15.117 C19.776,15.117 20,14.893 20,14.617 L20,0.5 C20,0.224 19.776,0 19.5,0 Z M19,14.117 L16.228,14.117 C16.062,14.117 15.907,14.199 15.814,14.336 L13.575,17.635 L11.128,14.32 C11.034,14.192 10.884,14.117 10.726,14.117 L1,14.117 L1,1 L19,1 L19,14.117 Z" id="Shape" fill="#222222"></path>
                <ellipse id="Oval" fill="#222222" cx="5.321" cy="7.527" rx="1.25" ry="1.254"></ellipse>
                <ellipse id="Oval" fill="#222222" cx="10.034" cy="7.527" rx="1.25" ry="1.254"></ellipse>
                <circle id="Oval" fill="#222222" cx="14.747" cy="7.527" r="1.25"></circle>
            </g>
        </g>
    </g>
</svg>