<?xml version="1.0" encoding="UTF-8"?>
<svg width="17px" height="16px" viewBox="0 0 17 16" version="1.1" xmlns="http://www.w3.org/2000/svg" xmlns:xlink="http://www.w3.org/1999/xlink">
    <!-- Generator: Sketch 50.2 (55047) - http://www.bohemiancoding.com/sketch -->
    <title>icon/timelapse</title>
    <desc>Created with Sketch.</desc>
    <defs></defs>
    <g id="LP" stroke="none" stroke-width="1" fill="none" fill-rule="evenodd">
        <g id="header更新" transform="translate(-627.000000, -5.000000)" fill="#636363" fill-rule="nonzero">
            <g id="parts/header＿1" transform="translate(0.000000, -1.000000)">
                <g id="parts/header">
                    <g id="接続履歴" transform="translate(621.666667, 6.000000)">
                        <g id="icon/timelapse" transform="translate(6.000000, 0.000000)">
                            <path d="M11.392,4.608 C10.456,3.672 9.232,3.2 8,3.2 L8,8 L4.608,11.392 C6.48,13.264 9.52,13.264 11.4,11.392 C13.272,9.52 13.272,6.48 11.392,4.608 Z M8,0 C3.584,0 0,3.584 0,8 C0,12.416 3.584,16 8,16 C12.416,16 16,12.416 16,8 C16,3.584 12.416,1.59872116e-15 8,0 Z M8,14.4 C4.464,14.4 1.6,11.536 1.6,8 C1.6,4.464 4.464,1.6 8,1.6 C11.536,1.6 14.4,4.464 14.4,8 C14.4,11.536 11.536,14.4 8,14.4 Z"></path>
                        </g>
                    </g>
                </g>
            </g>
        </g>
    </g>
</svg>