<?xml version="1.0" encoding="UTF-8"?>
<svg width="16px" height="16px" viewBox="0 0 16 16" version="1.1" xmlns="http://www.w3.org/2000/svg" xmlns:xlink="http://www.w3.org/1999/xlink">
    <!-- Generator: Sketch 50.2 (55047) - http://www.bohemiancoding.com/sketch -->
    <title>Shape</title>
    <desc>Created with Sketch.</desc>
    <defs></defs>
    <g id="LP" stroke="none" stroke-width="1" fill="none" fill-rule="evenodd">
        <g id="header更新" transform="translate(-754.000000, -5.000000)" fill="#636363" fill-rule="nonzero">
            <g id="parts/header＿1" transform="translate(0.000000, -1.000000)">
                <g id="parts/header">
                    <g id="ヘルプ" transform="translate(751.000000, 6.000000)">
                        <g id="icon/help" transform="translate(3.000000, 0.000000)">
                            <path d="M8,0 C3.584,0 0,3.584 0,8 C0,12.416 3.584,16 8,16 C12.416,16 16,12.416 16,8 C16,3.584 12.416,0 8,0 Z M8.8,13.6 L7.2,13.6 L7.2,12 L8.8,12 L8.8,13.6 Z M10.456,7.4 L9.736,8.136 C9.16,8.72 8.8,9.2 8.8,10.4 L7.2,10.4 L7.2,10 C7.2,9.12 7.56,8.32 8.136,7.736 L9.128,6.728 C9.424,6.44 9.6,6.04 9.6,5.6 C9.6,4.72 8.88,4 8,4 C7.12,4 6.4,4.72 6.4,5.6 L4.8,5.6 C4.8,3.832 6.232,2.4 8,2.4 C9.768,2.4 11.2,3.832 11.2,5.6 C11.2,6.304 10.912,6.944 10.456,7.4 Z" id="Shape"></path>
                        </g>
                    </g>
                </g>
            </g>
        </g>
    </g>
</svg>