<?xml version="1.0" encoding="UTF-8"?>
<svg width="19px" height="19px" viewBox="0 0 19 19" version="1.1" xmlns="http://www.w3.org/2000/svg" xmlns:xlink="http://www.w3.org/1999/xlink">
    <!-- Generator: Sketch 50.2 (55047) - http://www.bohemiancoding.com/sketch -->
    <title>icon/profile_round</title>
    <desc>Created with Sketch.</desc>
    <defs></defs>
    <g id="Symbols" stroke="none" stroke-width="1" fill="none" fill-rule="evenodd">
        <g id="parts/header" transform="translate(-834.000000, -11.000000)" fill="#636363">
            <g id="icon/profile_round">
                <g transform="translate(834.000000, 11.000000)">
                    <path d="M15.7344205,17.0999781 L3.26626277,17.0999781 C2.59519135,17.0999781 2.09964585,16.4378281 2.35275226,15.8288781 C3.52712723,13.0130781 6.28608411,11.3999781 9.49985673,11.3999781 C12.7145991,11.3999781 15.473556,13.0130781 16.647931,15.8288781 C16.9010374,16.4378281 16.4054919,17.0999781 15.7344205,17.0999781 M5.62083124,5.69997811 C5.62083124,3.60427811 7.36154393,1.89997811 9.49985673,1.89997811 C11.6391393,1.89997811 13.3788822,3.60427811 13.3788822,5.69997811 C13.3788822,7.79567811 11.6391393,9.49997811 9.49985673,9.49997811 C7.36154393,9.49997811 5.62083124,7.79567811 5.62083124,5.69997811 M18.9578906,16.7541781 C18.2528778,13.5631281 16.0476518,11.2080781 13.1451709,10.1393281 C14.6832046,8.92617811 15.5802292,6.96442811 15.250512,4.81647811 C14.868428,2.32462811 12.7524196,0.330578107 10.1980813,0.0398781069 C6.67204715,-0.361971893 3.68131849,2.32652811 3.68131849,5.69997811 C3.68131849,7.49547811 4.53082508,9.09527811 5.85551228,10.1393281 C2.9520617,11.2080781 0.747805463,13.5631281 0.0418228234,16.7541781 C-0.214192859,17.9141281 0.740047412,18.9999781 1.95127312,18.9999781 L17.0484403,18.9999781 C18.2606358,18.9999781 19.2148761,17.9141281 18.9578906,16.7541781" id="profile_round-[#1342]"></path>
                </g>
            </g>
        </g>
    </g>
</svg>