<svg xmlns="http://www.w3.org/2000/svg" width="22.579" height="20.361" viewBox="0 0 22.579 20.361"><defs><style>.a{fill:rgba(0,0,0,0);}.b{fill:#222;}.c{stroke:#eee;stroke-miterlimit:10;stroke-width:0.6px;}</style></defs><g transform="translate(-144 -12)"><g transform="translate(144 12)"><rect class="a" width="18" height="18" transform="translate(0)"/><path class="b" d="M16.785,12.912a.434.434,0,0,1-.243-.075L12.1,9.8v2.677a.431.431,0,0,1-.43.431H.431A.431.431,0,0,1,0,12.481V.431A.431.431,0,0,1,.431,0H11.672a.431.431,0,0,1,.43.431V3.424L16.526.088a.432.432,0,0,1,.451-.042.428.428,0,0,1,.239.385v12.05a.426.426,0,0,1-.229.38A.42.42,0,0,1,16.785,12.912ZM.861.861V12.052h10.38V8.989a.43.43,0,0,1,.23-.38.435.435,0,0,1,.444.025l4.44,3.033V1.295L11.931,4.632a.43.43,0,0,1-.689-.343V.861Z" transform="translate(0 2.069)"/></g><g transform="translate(154.366 20.217)"><path class="c" d="M589.117,351.563a5.905,5.905,0,0,0,4.063-1.719.718.718,0,1,0-1.013-1.018,4.487,4.487,0,1,1-.11-6.474c.064.059.126.12.186.182l-.891.34a.318.318,0,0,0-.195.207.244.244,0,0,0,.073.249l2.814,2.493a.321.321,0,0,0,.515-.2l.436-3.733a.243.243,0,0,0-.11-.234.311.311,0,0,0-.283-.025l-.934.357a5.994,5.994,0,0,0-.635-.691,5.922,5.922,0,1,0-3.915,10.264Z" transform="translate(-583.084 -339.72)"/></g></g></svg>