<?xml version="1.0" encoding="UTF-8"?>
<svg width="17px" height="16px" viewBox="0 0 17 16" version="1.1" xmlns="http://www.w3.org/2000/svg" xmlns:xlink="http://www.w3.org/1999/xlink">
    <!-- Generator: Sketch 50.2 (55047) - http://www.bohemiancoding.com/sketch -->
    <title>icon/call</title>
    <desc>Created with Sketch.</desc>
    <defs></defs>
    <g id="LP" stroke="none" stroke-width="1" fill="none" fill-rule="evenodd">
        <g id="header更新" transform="translate(-692.000000, -5.000000)" fill="#636363">
            <g id="parts/header＿1" transform="translate(0.000000, -1.000000)">
                <g id="parts/header">
                    <g id="電話発信" transform="translate(686.333333, 6.000000)">
                        <g id="icon/call" transform="translate(6.000000, 0.000000)">
                            <path d="M8.00013963,6.4 L8.00013963,8 L9.60013963,8 C9.60013963,7.116 8.88413963,6.4 8.00013963,6.4 M8.00013963,3.2 L8.00013963,4.8 C9.76493963,4.8 11.2001396,6.2352 11.2001396,8 L12.8001396,8 C12.8001396,5.3488 10.6513396,3.2 8.00013963,3.2 M8.00013963,0 L8.00013963,1.6 C11.5289396,1.6 14.4001396,4.4712 14.4001396,8 L16.0001396,8 C16.0001396,3.5816 12.4185396,0 8.00013963,0 M11.7217396,14.5872 C11.7129396,14.612 11.7121396,14.616 11.7217396,14.5872 M11.2937396,12.4624 C10.7377396,12.1632 10.1753396,11.8224 9.59373963,11.5848 C8.46973963,11.1264 8.54573963,12.4816 7.74333963,12.9208 C7.22173963,13.2064 6.48573963,12.6888 6.03053963,12.4024 C5.23533963,11.9016 4.53053963,11.2424 3.94493963,10.48 C3.64493963,10.0904 2.98253963,9.3576 3.06413963,8.8112 C3.19373963,7.944 4.21933963,7.9008 3.92573963,6.84 C3.76893963,6.272 3.48813963,5.7128 3.27773963,5.1656 C2.99613963,4.432 2.88013963,3.9624 2.05853963,4.0024 C1.46493963,4.0312 1.07133963,4.2848 0.70653963,4.7608 C-0.28066037,6.0464 -0.13186037,7.78 0.53133963,9.1904 C1.47053963,11.1864 3.08013963,13.068 4.79933963,14.284 C5.96893963,15.1112 7.50973963,15.8624 8.92573963,15.9896 C9.96253963,16.0832 11.4129396,15.5224 11.7841396,14.3968 C11.7585396,14.4752 11.7337396,14.5512 11.7217396,14.5872 C11.7305396,14.5592 11.7497396,14.5024 11.7841396,14.3968 C11.8217396,14.2832 11.8401396,14.2264 11.8489396,14.2008 C11.8377396,14.2344 11.8121396,14.3128 11.7849396,14.3944 C12.1113396,13.4024 12.1513396,12.924 11.2937396,12.4624 M11.8489396,14.2008 C11.8553396,14.1816 11.8553396,14.18 11.8489396,14.2008" id="call-[#191]"></path>
                        </g>
                    </g>
                </g>
            </g>
        </g>
    </g>
</svg>