<?xml version="1.0" encoding="UTF-8"?>
<svg width="20px" height="20px" viewBox="0 0 20 20" version="1.1" xmlns="http://www.w3.org/2000/svg" xmlns:xlink="http://www.w3.org/1999/xlink">
    <!-- Generator: Sketch 50.2 (55047) - http://www.bohemiancoding.com/sketch -->
    <title>icon/call</title>
    <desc>Created with Sketch.</desc>
    <defs></defs>
    <g id="Symbols" stroke="none" stroke-width="1" fill="none" fill-rule="evenodd">
        <g id="parts/header" transform="translate(-748.000000, -10.000000)" fill="#636363">
            <g id="icon/call">
                <g transform="translate(748.000000, 10.000000)">
                    <path d="M10.0001745,8 L10.0001745,10 L12.0001745,10 C12.0001745,8.895 11.1051745,8 10.0001745,8 M10.0001745,4 L10.0001745,6 C12.2061745,6 14.0001745,7.794 14.0001745,10 L16.0001745,10 C16.0001745,6.686 13.3141745,4 10.0001745,4 M10.0001745,0 L10.0001745,2 C14.4111745,2 18.0001745,5.589 18.0001745,10 L20.0001745,10 C20.0001745,4.477 15.5231745,0 10.0001745,0 M14.6521745,18.234 C14.6411745,18.265 14.6401745,18.27 14.6521745,18.234 M14.1171745,15.578 C13.4221745,15.204 12.7191745,14.778 11.9921745,14.481 C10.5871745,13.908 10.6821745,15.602 9.67917454,16.151 C9.02717454,16.508 8.10717454,15.861 7.53817454,15.503 C6.54417454,14.877 5.66317454,14.053 4.93117454,13.1 C4.55617454,12.613 3.72817454,11.697 3.83017454,11.014 C3.99217454,9.93 5.27417454,9.876 4.90717454,8.55 C4.71117454,7.84 4.36017454,7.141 4.09717454,6.457 C3.74517454,5.54 3.60017454,4.953 2.57317454,5.003 C1.83117454,5.039 1.33917454,5.356 0.883174538,5.951 C-0.350825462,7.558 -0.164825462,9.725 0.664174538,11.488 C1.83817454,13.983 3.85017454,16.335 5.99917454,17.855 C7.46117454,18.889 9.38717454,19.828 11.1571745,19.987 C12.4531745,20.104 14.2661745,19.403 14.7301745,17.996 C14.6981745,18.094 14.6671745,18.189 14.6521745,18.234 C14.6631745,18.199 14.6871745,18.128 14.7301745,17.996 C14.7771745,17.854 14.8001745,17.783 14.8111745,17.751 C14.7971745,17.793 14.7651745,17.891 14.7311745,17.993 C15.1391745,16.753 15.1891745,16.155 14.1171745,15.578 M14.8111745,17.751 C14.8191745,17.727 14.8191745,17.725 14.8111745,17.751" id="call-[#191]"></path>
                </g>
            </g>
        </g>
    </g>
</svg>