<?xml version="1.0" encoding="UTF-8"?>
<svg width="21px" height="21px" viewBox="0 0 21 21" version="1.1" xmlns="http://www.w3.org/2000/svg" xmlns:xlink="http://www.w3.org/1999/xlink">
    <!-- Generator: Sketch 50.2 (55047) - http://www.bohemiancoding.com/sketch -->
    <title>rogo</title>
    <desc>Created with Sketch.</desc>
    <defs>
        <polygon id="path-1" points="18.8346421 10.3157895 0.327378947 10.3157895 0.327378947 0.0876339793 18.8346421 0.0876339793 18.8346421 10.3157895"></polygon>
    </defs>
    <g id="Symbols" stroke="none" stroke-width="1" fill="none" fill-rule="evenodd">
        <g id="ぱんくずリスト">
            <g id="rogo/meet-in_fav">
                <g>
                    <g id="Page-1">
                        <path d="M5.11685263,11.9261579 C7.06101053,11.7043684 8.26832632,12.2879474 9.15032632,12.7134737 C9.87722105,13.0638421 10.1461684,13.1673684 10.5488526,13.0435789 C10.9821158,12.9120526 11.2543789,12.4776842 11.6983263,11.7209474 C12.2774842,10.7354211 13.0703263,9.38515789 14.8601158,8.68184211 C16.2903263,8.12073684 18.2123789,8.16273684 20.5872211,8.80452632 C19.8555368,3.92921053 15.7148526,0.133 10.6159053,0.00368421053 C4.89985263,-0.141842105 0.148694737,4.37389474 0.00353684211,10.0899474 C-0.0377263158,11.7165263 0.299378947,13.2646316 0.933431579,14.651 C1.83274737,13.5059474 3.27069474,12.1361579 5.11685263,11.9261579" id="Fill-1" fill="#0081CC"></path>
                        <g id="Group-5" transform="translate(1.842105, 10.389584)">
                            <mask id="mask-2" fill="white">
                                <use xlink:href="#path-1"></use>
                            </mask>
                            <g id="Clip-4"></g>
                            <path d="M13.8196947,0.333789474 C12.7354316,0.759684211 12.2774842,1.53889474 11.7476947,2.44226316 C11.2182737,3.34305263 10.6188526,4.36431579 9.34558947,4.75226316 C8.09037895,5.13468421 7.16822105,4.69110526 6.35548421,4.29910526 C5.57406316,3.92184211 4.83353684,3.56705263 3.52306316,3.71552632 C2.07848421,3.87984211 0.883326316,5.44268421 0.327378947,6.30294737 C2.16616842,8.67373684 5.01443158,10.2299474 8.24732632,10.3124737 C13.7964842,10.4535789 18.4356421,6.20126316 18.8346421,0.723210526 C17.0010105,0.155842105 15.0852211,-0.162842105 13.8196947,0.333789474" id="Fill-3" fill="#5A5A5A" mask="url(#mask-2)"></path>
                        </g>
                    </g>
                </g>
            </g>
        </g>
    </g>
</svg>